<svg version="1.1" xmlns="http://www.w3.org/2000/svg" viewBox="0 0 1963.2853888384673 1424.7380952380963" width="1963.2853888384673" height="1424.7380952380963">
  <!-- svg-source:excalidraw -->
  
  <defs>
    <style class="style-fonts">
      @font-face {
        font-family: "Virgil";
        src: url("https://excalidraw.com/Virgil.woff2");
      }
      @font-face {
        font-family: "Cascadia";
        src: url("https://excalidraw.com/Cascadia.woff2");
      }
    </style>
  </defs>
  <rect x="0" y="0" width="1963.2853888384673" height="1424.7380952380963" fill="#ffffff"></rect><g stroke-linecap="round" transform="translate(1256.4166666666674 27.273809523810655) rotate(0 85.125 177.7499999999999)"><path d="M32 0 M32 0 C55.48 2.6, 79.6 0.32, 138.25 0 M32 0 C69.05 -1.13, 104.61 0.2, 138.25 0 M138.25 0 C159.46 -0.99, 168.33 12.35, 170.25 32 M138.25 0 C160.76 -1.11, 170.45 11.95, 170.25 32 M170.25 32 C171.83 120.49, 173.2 211.29, 170.25 323.5 M170.25 32 C170.97 108.77, 171.28 187.03, 170.25 323.5 M170.25 323.5 C168.65 344.32, 159.38 353.66, 138.25 355.5 M170.25 323.5 C169.41 343.07, 160.03 353.95, 138.25 355.5 M138.25 355.5 C107.93 354.55, 75.87 354.73, 32 355.5 M138.25 355.5 C103.13 356.38, 66.76 356.62, 32 355.5 M32 355.5 C12.09 355.1, 1.3 345.62, 0 323.5 M32 355.5 C11.27 354.04, 0.15 344.25, 0 323.5 M0 323.5 C-2.46 234.86, -2.47 142.66, 0 32 M0 323.5 C-0.33 214.36, -0.36 104.46, 0 32 M0 32 C-0.68 9.7, 9.35 -0.43, 32 0 M0 32 C-1.05 9.13, 8.71 -0.09, 32 0" stroke="#000000" stroke-width="1" fill="none"></path></g><g transform="translate(1299.5238095238103 44.309523809524876) rotate(0 41 17.5)"><text x="0" y="0" font-family="Virgil, Segoe UI Emoji" font-size="28px" fill="#000000" text-anchor="start" style="white-space: pre;" direction="ltr" dominant-baseline="text-before-edge">Driver</text></g><g stroke-linecap="round"><g transform="translate(1270.2738095238103 88.05952380952488) rotate(0 76.2525425663963 0.0045538327283907165)"><path d="M0.27 -1.03 C25.31 -0.95, 126.09 0.69, 151.41 0.87 M-1.04 1.04 C24.24 0.76, 128.17 -0.85, 153.55 -0.8" stroke="#000000" stroke-width="1" fill="none"></path></g></g><mask></mask><g transform="translate(1260.988095238096 97.05952380952488) rotate(0 80.2249984741211 141.11651750618898)"><text x="0" y="0" font-family="Virgil, Segoe UI Emoji" font-size="20.526038909991126px" fill="#000000" text-anchor="start" style="white-space: pre;" direction="ltr" dominant-baseline="text-before-edge">id: string;</text><text x="0" y="25.657548637488908" font-family="Virgil, Segoe UI Emoji" font-size="20.526038909991126px" fill="#000000" text-anchor="start" style="white-space: pre;" direction="ltr" dominant-baseline="text-before-edge"></text><text x="0" y="51.315097274977816" font-family="Virgil, Segoe UI Emoji" font-size="20.526038909991126px" fill="#000000" text-anchor="start" style="white-space: pre;" direction="ltr" dominant-baseline="text-before-edge">name: string;</text><text x="0" y="76.97264591246673" font-family="Virgil, Segoe UI Emoji" font-size="20.526038909991126px" fill="#000000" text-anchor="start" style="white-space: pre;" direction="ltr" dominant-baseline="text-before-edge"></text><text x="0" y="102.63019454995563" font-family="Virgil, Segoe UI Emoji" font-size="20.526038909991126px" fill="#000000" text-anchor="start" style="white-space: pre;" direction="ltr" dominant-baseline="text-before-edge">vehicleIds:</text><text x="0" y="128.28774318744453" font-family="Virgil, Segoe UI Emoji" font-size="20.526038909991126px" fill="#000000" text-anchor="start" style="white-space: pre;" direction="ltr" dominant-baseline="text-before-edge"> string[]</text><text x="0" y="153.94529182493346" font-family="Virgil, Segoe UI Emoji" font-size="20.526038909991126px" fill="#000000" text-anchor="start" style="white-space: pre;" direction="ltr" dominant-baseline="text-before-edge"></text><text x="0" y="179.60284046242236" font-family="Virgil, Segoe UI Emoji" font-size="20.526038909991126px" fill="#000000" text-anchor="start" style="white-space: pre;" direction="ltr" dominant-baseline="text-before-edge">phones: string[];</text><text x="0" y="205.26038909991127" font-family="Virgil, Segoe UI Emoji" font-size="20.526038909991126px" fill="#000000" text-anchor="start" style="white-space: pre;" direction="ltr" dominant-baseline="text-before-edge"></text><text x="0" y="230.91793773740017" font-family="Virgil, Segoe UI Emoji" font-size="20.526038909991126px" fill="#000000" text-anchor="start" style="white-space: pre;" direction="ltr" dominant-baseline="text-before-edge">organizationId: </text><text x="0" y="256.57548637488907" font-family="Virgil, Segoe UI Emoji" font-size="20.526038909991126px" fill="#000000" text-anchor="start" style="white-space: pre;" direction="ltr" dominant-baseline="text-before-edge">    string;</text></g><g stroke-linecap="round" transform="translate(859.9273798433571 585.7735140537194) rotate(359.58780725859765 87.5 148.91799845854234)"><path d="M32 0 M32 0 C54.22 -0.76, 77.65 -0.47, 143 0 M32 0 C67.31 -0.97, 103.48 -0.49, 143 0 M143 0 C163.23 -1.87, 175.36 10.02, 175 32 M143 0 C163.59 -0.32, 173.62 10.22, 175 32 M175 32 C175.81 99.64, 176.21 165.63, 175 265.84 M175 32 C174.05 116.25, 175.25 199.75, 175 265.84 M175 265.84 C173.55 285.59, 165.77 298.04, 143 297.84 M175 265.84 C173.75 288.28, 162.44 300.04, 143 297.84 M143 297.84 C115.18 297.23, 87.88 299.55, 32 297.84 M143 297.84 C117.16 298.63, 92.48 298.98, 32 297.84 M32 297.84 C11.11 298.84, 0.35 286.25, 0 265.84 M32 297.84 C12.18 299.74, -1.76 287.73, 0 265.84 M0 265.84 C-2.38 207.5, 0.21 153.3, 0 32 M0 265.84 C-1.2 184.51, -2.27 105.24, 0 32 M0 32 C-0.37 9.39, 10.38 -1.69, 32 0 M0 32 C-0.96 8.57, 8.55 0.34, 32 0" stroke="#000000" stroke-width="1" fill="none"></path></g><g transform="translate(902.5238095238103 598.8095238095249) rotate(0 43.25 17.5)"><text x="0" y="0" font-family="Virgil, Segoe UI Emoji" font-size="28px" fill="#000000" text-anchor="start" style="white-space: pre;" direction="ltr" dominant-baseline="text-before-edge">Vehicle</text></g><g stroke-linecap="round"><g transform="translate(871.2738095238103 653.8095238095249) rotate(0 77.88808362765235 0.5204991410859066)"><path d="M0.9 0.74 C26.96 0.81, 130.21 0.14, 155.87 0.06 M-0.09 0.08 C25.93 0.28, 129.7 0.8, 155.37 0.98" stroke="#000000" stroke-width="1" fill="none"></path></g></g><mask></mask><g transform="translate(866.8095238095245 665.7738095238107) rotate(0 80.23332977294922 100)"><text x="0" y="0" font-family="Virgil, Segoe UI Emoji" font-size="20px" fill="#000000" text-anchor="start" style="white-space: pre;" direction="ltr" dominant-baseline="text-before-edge">id: string;</text><text x="0" y="25" font-family="Virgil, Segoe UI Emoji" font-size="20px" fill="#000000" text-anchor="start" style="white-space: pre;" direction="ltr" dominant-baseline="text-before-edge"></text><text x="0" y="50" font-family="Virgil, Segoe UI Emoji" font-size="20px" fill="#000000" text-anchor="start" style="white-space: pre;" direction="ltr" dominant-baseline="text-before-edge">licensePlate: </text><text x="0" y="75" font-family="Virgil, Segoe UI Emoji" font-size="20px" fill="#000000" text-anchor="start" style="white-space: pre;" direction="ltr" dominant-baseline="text-before-edge">    string;</text><text x="0" y="100" font-family="Virgil, Segoe UI Emoji" font-size="20px" fill="#000000" text-anchor="start" style="white-space: pre;" direction="ltr" dominant-baseline="text-before-edge"></text><text x="0" y="125" font-family="Virgil, Segoe UI Emoji" font-size="20px" fill="#000000" text-anchor="start" style="white-space: pre;" direction="ltr" dominant-baseline="text-before-edge">driverId?: string;</text><text x="0" y="150" font-family="Virgil, Segoe UI Emoji" font-size="20px" fill="#000000" text-anchor="start" style="white-space: pre;" direction="ltr" dominant-baseline="text-before-edge"></text><text x="0" y="175" font-family="Virgil, Segoe UI Emoji" font-size="20px" fill="#000000" text-anchor="start" style="white-space: pre;" direction="ltr" dominant-baseline="text-before-edge">vehicleType: *</text></g><g transform="translate(1355.488095238096 1302.4880952380959) rotate(0 0.00004999999998744897 0.00004999999998744897)" stroke="none"><path fill="#000000" d="M 1.57,-1.57 Q 1.57,-1.57 1.77,-1.27 1.98,-0.98 2.09,-0.64 2.20,-0.29 2.19,0.05 2.18,0.41 2.05,0.75 1.93,1.09 1.70,1.37 1.48,1.65 1.18,1.84 0.87,2.04 0.52,2.12 0.18,2.21 -0.17,2.18 -0.53,2.15 -0.86,2.01 -1.19,1.87 -1.46,1.63 -1.73,1.39 -1.90,1.07 -2.08,0.76 -2.15,0.41 -2.21,0.05 -2.17,-0.29 -2.12,-0.65 -1.96,-0.97 -1.80,-1.29 -1.54,-1.54 -1.29,-1.80 -0.97,-1.96 -0.65,-2.12 -0.29,-2.17 0.06,-2.21 0.41,-2.15 0.76,-2.08 1.07,-1.90 1.39,-1.73 1.63,-1.46 1.87,-1.19 2.01,-0.86 2.15,-0.53 2.18,-0.17 2.21,0.18 2.12,0.52 2.03,0.87 1.84,1.18 1.65,1.48 1.37,1.70 1.09,1.93 0.75,2.05 0.41,2.18 0.05,2.19 -0.30,2.20 -0.64,2.09 -0.98,1.98 -1.27,1.77 -1.57,1.56 -1.57,1.57 -1.57,1.57 -1.73,1.35 -1.90,1.14 -2.01,0.90 -2.12,0.66 -2.16,0.39 -2.21,0.13 -2.20,-0.13 -2.18,-0.40 -2.10,-0.65 -2.02,-0.91 -1.88,-1.14 -1.74,-1.36 -1.55,-1.55 -1.36,-1.74 -1.14,-1.88 -0.91,-2.02 -0.65,-2.10 -0.40,-2.18 -0.13,-2.20 0.13,-2.21 0.39,-2.16 0.66,-2.12 0.90,-2.01 1.14,-1.90 1.35,-1.73 1.57,-1.57 1.57,-1.57 L 1.57,-1.57 Z"></path></g><g stroke-linecap="round" transform="translate(498.51785714285757 10) rotate(0 85.125 204.89285714285717)"><path d="M32 0 M32 0 C68.38 -0.23, 104.35 -0.63, 138.25 0 M32 0 C53.77 -1.61, 75.65 -1.79, 138.25 0 M138.25 0 C160.47 1.78, 171.02 11.64, 170.25 32 M138.25 0 C160.94 -0.48, 172.41 11.12, 170.25 32 M170.25 32 C168.87 105.65, 169.53 176.87, 170.25 377.79 M170.25 32 C171.17 145.54, 171.21 258.52, 170.25 377.79 M170.25 377.79 C170.27 398.2, 159.01 409.28, 138.25 409.79 M170.25 377.79 C170.29 398.29, 157.92 411.62, 138.25 409.79 M138.25 409.79 C98.35 409.5, 62.28 409.95, 32 409.79 M138.25 409.79 C101.35 410.08, 66.12 411.17, 32 409.79 M32 409.79 C12.24 408.87, -0.69 397.61, 0 377.79 M32 409.79 C12.77 411.43, -2.21 400.38, 0 377.79 M0 377.79 C1.39 301.47, 0.63 222.18, 0 32 M0 377.79 C-1.5 248, -1.29 118.41, 0 32 M0 32 C-1.67 9.31, 11.93 -0.2, 32 0 M0 32 C2.17 12.3, 9.19 -1.83, 32 0" stroke="#000000" stroke-width="1" fill="none"></path></g><g stroke-linecap="round"><g transform="translate(511.14031457646115 72.38830331012912) rotate(0 76.56209631143139 -0.3824604534512446)"><path d="M0.77 -0.39 C25.93 -0.29, 125.91 1.04, 151.32 0.91 M-0.29 -1.64 C25.19 -1.89, 127.9 -0.93, 153.41 -0.74" stroke="#000000" stroke-width="1" fill="none"></path></g></g><mask></mask><g transform="translate(546.3928571428576 17.392857142857224) rotate(0 34.29999923706055 17.5)"><text x="0" y="0" font-family="Virgil, Segoe UI Emoji" font-size="28px" fill="#000000" text-anchor="start" style="white-space: pre;" direction="ltr" dominant-baseline="text-before-edge">Wash</text></g><g transform="translate(507.0357142857147 87.39285714285722) rotate(0 76.75833129882812 162.5)"><text x="0" y="0" font-family="Virgil, Segoe UI Emoji" font-size="20px" fill="#000000" text-anchor="start" style="white-space: pre;" direction="ltr" dominant-baseline="text-before-edge">id: string;</text><text x="0" y="25" font-family="Virgil, Segoe UI Emoji" font-size="20px" fill="#000000" text-anchor="start" style="white-space: pre;" direction="ltr" dominant-baseline="text-before-edge"></text><text x="0" y="50" font-family="Virgil, Segoe UI Emoji" font-size="20px" fill="#000000" text-anchor="start" style="white-space: pre;" direction="ltr" dominant-baseline="text-before-edge">vehicleId: string</text><text x="0" y="75" font-family="Virgil, Segoe UI Emoji" font-size="20px" fill="#000000" text-anchor="start" style="white-space: pre;" direction="ltr" dominant-baseline="text-before-edge"></text><text x="0" y="100" font-family="Virgil, Segoe UI Emoji" font-size="20px" fill="#000000" text-anchor="start" style="white-space: pre;" direction="ltr" dominant-baseline="text-before-edge">scheduleDate:</text><text x="0" y="125" font-family="Virgil, Segoe UI Emoji" font-size="20px" fill="#000000" text-anchor="start" style="white-space: pre;" direction="ltr" dominant-baseline="text-before-edge">    string;</text><text x="0" y="150" font-family="Virgil, Segoe UI Emoji" font-size="20px" fill="#000000" text-anchor="start" style="white-space: pre;" direction="ltr" dominant-baseline="text-before-edge"></text><text x="0" y="175" font-family="Virgil, Segoe UI Emoji" font-size="20px" fill="#000000" text-anchor="start" style="white-space: pre;" direction="ltr" dominant-baseline="text-before-edge">cycleId: string;</text><text x="0" y="200" font-family="Virgil, Segoe UI Emoji" font-size="20px" fill="#000000" text-anchor="start" style="white-space: pre;" direction="ltr" dominant-baseline="text-before-edge"></text><text x="0" y="225" font-family="Virgil, Segoe UI Emoji" font-size="20px" fill="#000000" text-anchor="start" style="white-space: pre;" direction="ltr" dominant-baseline="text-before-edge">note?: string;</text><text x="0" y="250" font-family="Virgil, Segoe UI Emoji" font-size="20px" fill="#000000" text-anchor="start" style="white-space: pre;" direction="ltr" dominant-baseline="text-before-edge"></text><text x="0" y="275" font-family="Virgil, Segoe UI Emoji" font-size="20px" fill="#000000" text-anchor="start" style="white-space: pre;" direction="ltr" dominant-baseline="text-before-edge">isCompleted:</text><text x="0" y="300" font-family="Virgil, Segoe UI Emoji" font-size="20px" fill="#000000" text-anchor="start" style="white-space: pre;" direction="ltr" dominant-baseline="text-before-edge">    boolean</text></g><g stroke-linecap="round" transform="translate(10.267857142857565 165.99999999999966) rotate(0 104.5892857142857 217.7500000000001)"><path d="M32 0 M32 0 C80.4 -2.6, 130.39 0.74, 177.18 0 M32 0 C84.59 -1.22, 138.27 -0.6, 177.18 0 M177.18 0 C199.34 -0.75, 209.97 9.88, 209.18 32 M177.18 0 C196.57 -0.16, 208.33 10.61, 209.18 32 M209.18 32 C208.68 179.99, 208.08 325.83, 209.18 403.5 M209.18 32 C210.58 148.06, 210.13 264.96, 209.18 403.5 M209.18 403.5 C209.88 425.35, 197.84 434.9, 177.18 435.5 M209.18 403.5 C208.49 425.32, 200.05 434.44, 177.18 435.5 M177.18 435.5 C134.8 434.79, 92.74 437.21, 32 435.5 M177.18 435.5 C127.18 437.07, 76.71 437.21, 32 435.5 M32 435.5 C12.31 434.53, -1.69 424.44, 0 403.5 M32 435.5 C11.9 435.63, 0.26 423.03, 0 403.5 M0 403.5 C-2.94 284.1, -2.75 166.29, 0 32 M0 403.5 C2.35 328.22, 2.77 254.03, 0 32 M0 32 C1.79 12.14, 11.22 0.89, 32 0 M0 32 C1.46 9.39, 12.3 -0.62, 32 0" stroke="#000000" stroke-width="1" fill="none"></path></g><g stroke-linecap="round"><g transform="translate(23.64031457646115 234.1383033101289) rotate(0 76.16588923670352 -0.0931705722492211)"><path d="M-1.09 0.61 C24.38 0.77, 127.78 0.69, 153.42 0.77 M0.54 -0.11 C25.87 -0.28, 127.7 -0.86, 152.95 -0.95" stroke="#000000" stroke-width="1" fill="none"></path></g></g><mask></mask><g transform="translate(25.142857142857565 179.142857142857) rotate(0 72.00833129882812 17.5)"><text x="0" y="0" font-family="Virgil, Segoe UI Emoji" font-size="28px" fill="#000000" text-anchor="start" style="white-space: pre;" direction="ltr" dominant-baseline="text-before-edge">Wash-cycle</text></g><g transform="translate(23.642857142857565 245.142857142857) rotate(0 90.53333282470703 175)"><text x="0" y="0" font-family="Virgil, Segoe UI Emoji" font-size="20px" fill="#000000" text-anchor="start" style="white-space: pre;" direction="ltr" dominant-baseline="text-before-edge">id: string</text><text x="0" y="25" font-family="Virgil, Segoe UI Emoji" font-size="20px" fill="#000000" text-anchor="start" style="white-space: pre;" direction="ltr" dominant-baseline="text-before-edge"></text><text x="0" y="50" font-family="Virgil, Segoe UI Emoji" font-size="20px" fill="#000000" text-anchor="start" style="white-space: pre;" direction="ltr" dominant-baseline="text-before-edge">vehicleId: string;</text><text x="0" y="75" font-family="Virgil, Segoe UI Emoji" font-size="20px" fill="#000000" text-anchor="start" style="white-space: pre;" direction="ltr" dominant-baseline="text-before-edge"></text><text x="0" y="100" font-family="Virgil, Segoe UI Emoji" font-size="20px" fill="#000000" text-anchor="start" style="white-space: pre;" direction="ltr" dominant-baseline="text-before-edge">startDate: string;</text><text x="0" y="125" font-family="Virgil, Segoe UI Emoji" font-size="20px" fill="#000000" text-anchor="start" style="white-space: pre;" direction="ltr" dominant-baseline="text-before-edge"></text><text x="0" y="150" font-family="Virgil, Segoe UI Emoji" font-size="20px" fill="#000000" text-anchor="start" style="white-space: pre;" direction="ltr" dominant-baseline="text-before-edge">endDate: string;</text><text x="0" y="175" font-family="Virgil, Segoe UI Emoji" font-size="20px" fill="#000000" text-anchor="start" style="white-space: pre;" direction="ltr" dominant-baseline="text-before-edge"></text><text x="0" y="200" font-family="Virgil, Segoe UI Emoji" font-size="20px" fill="#000000" text-anchor="start" style="white-space: pre;" direction="ltr" dominant-baseline="text-before-edge">note?: string</text><text x="0" y="225" font-family="Virgil, Segoe UI Emoji" font-size="20px" fill="#000000" text-anchor="start" style="white-space: pre;" direction="ltr" dominant-baseline="text-before-edge"></text><text x="0" y="250" font-family="Virgil, Segoe UI Emoji" font-size="20px" fill="#000000" text-anchor="start" style="white-space: pre;" direction="ltr" dominant-baseline="text-before-edge">washIds: string[]</text><text x="0" y="275" font-family="Virgil, Segoe UI Emoji" font-size="20px" fill="#000000" text-anchor="start" style="white-space: pre;" direction="ltr" dominant-baseline="text-before-edge"></text><text x="0" y="300" font-family="Virgil, Segoe UI Emoji" font-size="20px" fill="#000000" text-anchor="start" style="white-space: pre;" direction="ltr" dominant-baseline="text-before-edge">completedWashes: </text><text x="0" y="325" font-family="Virgil, Segoe UI Emoji" font-size="20px" fill="#000000" text-anchor="start" style="white-space: pre;" direction="ltr" dominant-baseline="text-before-edge">    string[]</text></g><g stroke-linecap="round" transform="translate(1709.7797619047647 383.0238095238102) rotate(0 120.87500000000011 151.14285714285722)"><path d="M32 0 M32 0 C99.19 0.79, 165.82 1.08, 209.75 0 M32 0 C80.51 0.68, 127.72 0.82, 209.75 0 M209.75 0 C232.69 0.29, 240.45 9.52, 241.75 32 M209.75 0 C230.29 1.65, 243.06 10.28, 241.75 32 M241.75 32 C242.68 91.7, 243.5 151.19, 241.75 270.29 M241.75 32 C239.7 119.64, 239.65 206.83, 241.75 270.29 M241.75 270.29 C241.62 293.57, 230.15 303.65, 209.75 302.29 M241.75 270.29 C241.61 292.74, 230.39 302.46, 209.75 302.29 M209.75 302.29 C161.98 302.91, 111.03 302.74, 32 302.29 M209.75 302.29 C152.51 302.27, 95.91 300.87, 32 302.29 M32 302.29 C10.96 301.09, 1.48 291.74, 0 270.29 M32 302.29 C12.77 303.11, -1.07 289.86, 0 270.29 M0 270.29 C1.11 202.76, 0.63 136.21, 0 32 M0 270.29 C-1.82 204.12, -2.06 138.72, 0 32 M0 32 C-1.87 11.08, 10.65 -0.02, 32 0 M0 32 C-0.25 9.62, 11.96 0.98, 32 0" stroke="#000000" stroke-width="1" fill="none"></path></g><g transform="translate(1754.8869047619075 392.0595238095244) rotate(0 84.7750015258789 17.5)"><text x="0" y="0" font-family="Virgil, Segoe UI Emoji" font-size="28px" fill="#000000" text-anchor="start" style="white-space: pre;" direction="ltr" dominant-baseline="text-before-edge">Organization</text></g><g stroke-linecap="round"><g transform="translate(1723.6369047619075 443.8095238095244) rotate(0 114.37971930152275 -0.05748292517853315)"><path d="M0.37 -0.37 C38.62 -0.56, 191.24 -0.22, 229.65 -0.03 M-0.89 -1.61 C37.15 -1.08, 189.95 1.43, 228.52 1.5" stroke="#000000" stroke-width="1" fill="none"></path></g></g><mask></mask><g transform="translate(1726.6369047619075 458.8095238095244) rotate(0 95.84166717529297 115.45896886870014)"><text x="0" y="0" font-family="Virgil, Segoe UI Emoji" font-size="20.526038909991126px" fill="#000000" text-anchor="start" style="white-space: pre;" direction="ltr" dominant-baseline="text-before-edge">id: string;</text><text x="0" y="25.657548637488908" font-family="Virgil, Segoe UI Emoji" font-size="20.526038909991126px" fill="#000000" text-anchor="start" style="white-space: pre;" direction="ltr" dominant-baseline="text-before-edge"></text><text x="0" y="51.315097274977816" font-family="Virgil, Segoe UI Emoji" font-size="20.526038909991126px" fill="#000000" text-anchor="start" style="white-space: pre;" direction="ltr" dominant-baseline="text-before-edge">type: "Cooperativa"</text><text x="0" y="76.97264591246673" font-family="Virgil, Segoe UI Emoji" font-size="20.526038909991126px" fill="#000000" text-anchor="start" style="white-space: pre;" direction="ltr" dominant-baseline="text-before-edge">    | "Empresa"</text><text x="0" y="102.63019454995563" font-family="Virgil, Segoe UI Emoji" font-size="20.526038909991126px" fill="#000000" text-anchor="start" style="white-space: pre;" direction="ltr" dominant-baseline="text-before-edge"></text><text x="0" y="128.28774318744453" font-family="Virgil, Segoe UI Emoji" font-size="20.526038909991126px" fill="#000000" text-anchor="start" style="white-space: pre;" direction="ltr" dominant-baseline="text-before-edge">name: string;</text><text x="0" y="153.94529182493346" font-family="Virgil, Segoe UI Emoji" font-size="20.526038909991126px" fill="#000000" text-anchor="start" style="white-space: pre;" direction="ltr" dominant-baseline="text-before-edge"></text><text x="0" y="179.60284046242236" font-family="Virgil, Segoe UI Emoji" font-size="20.526038909991126px" fill="#000000" text-anchor="start" style="white-space: pre;" direction="ltr" dominant-baseline="text-before-edge">phone: string[];</text><text x="0" y="205.26038909991127" font-family="Virgil, Segoe UI Emoji" font-size="20.526038909991126px" fill="#000000" text-anchor="start" style="white-space: pre;" direction="ltr" dominant-baseline="text-before-edge"></text></g><g transform="translate(1028.2857142857142 1339.7380952380963) rotate(0 137.6666717529297 37.5)"><text x="0" y="0" font-family="Virgil, Segoe UI Emoji" font-size="20px" fill="#000000" text-anchor="start" style="white-space: pre;" direction="ltr" dominant-baseline="text-before-edge">* "Extra leve" | "Leve"</text><text x="0" y="25" font-family="Virgil, Segoe UI Emoji" font-size="20px" fill="#000000" text-anchor="start" style="white-space: pre;" direction="ltr" dominant-baseline="text-before-edge">    | "Vuc" | "Toco" | "Truck"</text><text x="0" y="50" font-family="Virgil, Segoe UI Emoji" font-size="20px" fill="#000000" text-anchor="start" style="white-space: pre;" direction="ltr" dominant-baseline="text-before-edge">    | "Bitruck" | "Carreta" </text></g><g stroke-linecap="round" transform="translate(1254 328.02380952381) rotate(0 88 28)"><path d="M14 0 M14 0 C64.82 1.87, 112.87 -0.02, 162 0 M162 0 C169.77 1.2, 177.64 3.15, 176 14 M176 14 C174.57 24.56, 176.51 32.68, 176 42 M176 42 C174.88 49.48, 170.97 55.88, 162 56 M162 56 C121.5 55.83, 78.21 56.38, 14 56 M14 56 C3.75 56.16, -0.79 52.26, 0 42 M0 42 C-1.14 34.18, 1.74 24.92, 0 14 M0 14 C-0.37 3.37, 3.4 -1.83, 14 0" stroke="#a61e4d" stroke-width="4.5" fill="none" stroke-dasharray="1.5 10"></path></g><g stroke-linecap="round" transform="translate(1718 444.02380952381) rotate(0 88.00000000000011 28)"><path d="M14 0 M14 0 C50.95 -2.57, 85.62 0.07, 162 0 M162 0 C173.01 1.4, 177.01 4.4, 176 14 M176 14 C176.09 20.85, 176.96 29.41, 176 42 M176 42 C176.92 51.4, 170.27 55.22, 162 56 M162 56 C115.7 53.54, 69.27 55.38, 14 56 M14 56 C5.48 57.61, -1.7 52.7, 0 42 M0 42 C0.84 32.31, -0.14 20.32, 0 14 M0 14 C-0.46 3.3, 4.96 0.2, 14 0" stroke="#a61e4d" stroke-width="4.5" fill="none" stroke-dasharray="1.5 10"></path></g><g stroke-linecap="round"><g transform="translate(1428 350.02380952381) rotate(0 145.61276228129873 57.84808056652548)"><path d="M0.66 0.71 C49.22 19.71, 242.47 95.67, 290.57 114.98" stroke="#a61e4d" stroke-width="4.5" fill="none" stroke-dasharray="1.5 10"></path></g></g><mask></mask><g stroke-linecap="round" transform="translate(852 778.02380952381) rotate(0 88 28)"><path d="M14 0 M14 0 C56.23 2.84, 100.51 0.68, 162 0 M162 0 C172.18 -0.38, 174.51 2.88, 176 14 M176 14 C174.56 18.8, 177.25 24.06, 176 42 M176 42 C175.16 52.68, 169.86 54.05, 162 56 M162 56 C129.08 57.79, 98.05 57.6, 14 56 M14 56 C3.07 57.56, 1.25 51.71, 0 42 M0 42 C-1.06 33.72, -1.11 26.46, 0 14 M0 14 C1.17 4.37, 6.08 0.24, 14 0" stroke="#a61e4d" stroke-width="4.5" fill="none" stroke-dasharray="1.5 10"></path></g><g stroke-linecap="round"><g transform="translate(1030 800.02380952381) rotate(0 104.24826938807973 -337.1883680075407)"><path d="M0.89 -0.88 C35.68 -112.96, 173.12 -561.16, 207.6 -673.49" stroke="#a61e4d" stroke-width="4.5" fill="none" stroke-dasharray="1.5 10"></path></g></g><mask></mask><g stroke-linecap="round" transform="translate(1244 90.02380952380997) rotate(0 88 28)"><path d="M14 0 M14 0 C72.7 -1.18, 129.36 -0.3, 162 0 M162 0 C170.6 -0.19, 177.02 4.32, 176 14 M176 14 C175.32 19, 175.51 28.92, 176 42 M176 42 C176.5 50.07, 170.31 55.9, 162 56 M162 56 C123.64 55.02, 87.87 57.22, 14 56 M14 56 C6.2 54.52, -1.18 50.23, 0 42 M0 42 C1.81 34.9, 1.6 29.72, 0 14 M0 14 C0.61 4.22, 3.74 1.88, 14 0" stroke="#a61e4d" stroke-width="4.5" fill="none" stroke-dasharray="1.5 10"></path></g><g stroke-linecap="round" transform="translate(862 652.02380952381) rotate(0 88 28)"><path d="M14 0 M14 0 C70.46 1.96, 129.37 1.07, 162 0 M162 0 C172.68 -1.72, 176.89 2.91, 176 14 M176 14 C177.79 21.98, 174.47 34.76, 176 42 M176 42 C174.27 52.69, 172.19 54.17, 162 56 M162 56 C125.46 54.96, 88.88 54.71, 14 56 M14 56 C3.4 57.8, 0.77 51.42, 0 42 M0 42 C1.37 30.37, -0.23 23.74, 0 14 M0 14 C-1.11 6.07, 5.86 1.64, 14 0" stroke="#a61e4d" stroke-width="4.5" fill="none" stroke-dasharray="1.5 10"></path></g><g stroke-linecap="round"><g transform="translate(1041.7517306119203 685.2121775313504) rotate(0 103.79901707470412 -227.04678695499894)"><path d="M0.54 -0.97 C34.95 -76.57, 172.94 -378.13, 207.06 -453.12" stroke="#a61e4d" stroke-width="4.5" fill="none" stroke-dasharray="1.5 10"></path></g></g><mask></mask><g stroke-linecap="round" transform="translate(1250 204.02380952380997) rotate(0 88 28)"><path d="M14 0 M14 0 C53.1 0.7, 89.41 -1.28, 162 0 M162 0 C171 -1.22, 176.89 5.27, 176 14 M176 14 C177.73 24.08, 174.45 33.27, 176 42 M176 42 C177.7 52.34, 169.42 57.19, 162 56 M162 56 C121.55 54.08, 77.97 53.38, 14 56 M14 56 C5.5 54.13, 1.08 52.75, 0 42 M0 42 C-0.37 33.92, -1.92 25.52, 0 14 M0 14 C0.44 3.61, 5.57 -1.6, 14 0" stroke="#a61e4d" stroke-width="4.5" fill="none" stroke-dasharray="1.5 10"></path></g><g stroke-linecap="round"><g transform="translate(856.2009829252961 685.0705964788086) rotate(0 -92.04000765979288 -264.20974586308006)"><path d="M0.9 1.14 C-29.88 -87.13, -154.18 -440.88, -184.98 -529.56" stroke="#a61e4d" stroke-width="4.5" fill="none" stroke-dasharray="1.5 10"></path></g></g><mask></mask><g stroke-linecap="round" transform="translate(498 248.02380952380997) rotate(0 88 28)"><path d="M14 0 M14 0 C70.23 0.99, 131.4 0.55, 162 0 M162 0 C172.34 0.19, 175.78 3.77, 176 14 M176 14 C176 23.13, 175.31 35.23, 176 42 M176 42 C176.5 53.12, 172.78 56.72, 162 56 M162 56 C109.31 57.97, 55.65 57.07, 14 56 M14 56 C2.97 54.6, 0.11 52.82, 0 42 M0 42 C1.24 33.23, -1.96 20.83, 0 14 M0 14 C1.98 5.04, 5.85 -0.97, 14 0" stroke="#a61e4d" stroke-width="4.5" fill="none" stroke-dasharray="1.5 10"></path></g><g stroke-linecap="round" transform="translate(10 230.02380952380997) rotate(0 88 28)"><path d="M14 0 M14 0 C71.71 -0.6, 127.6 -2.28, 162 0 M162 0 C172.75 -0.29, 176.92 3.11, 176 14 M176 14 C175.87 23.92, 176.76 30.83, 176 42 M176 42 C176.89 52.57, 172.36 54.03, 162 56 M162 56 C130.55 55.3, 98.41 58.06, 14 56 M14 56 C5.63 57.86, 1.51 52.08, 0 42 M0 42 C1.67 34.3, -1.47 23.26, 0 14 M0 14 C1.03 5.29, 2.67 -1.4, 14 0" stroke="#a61e4d" stroke-width="4.5" fill="none" stroke-dasharray="1.5 10"></path></g><g stroke-linecap="round"><g transform="translate(202 248.02380952380997) rotate(0 145.5654649049044 16.356424638628937)"><path d="M0.6 -0.03 C49.01 5.28, 242.2 27.6, 290.53 32.74" stroke="#a61e4d" stroke-width="4.5" fill="none" stroke-dasharray="1.5 10"></path></g></g><mask></mask><g stroke-linecap="round" transform="translate(22 282.02380952381) rotate(0 88 28)"><path d="M14 0 M14 0 C47.11 -2.9, 82.99 -0.12, 162 0 M162 0 C171.33 -1.38, 175.55 4.07, 176 14 M176 14 C174.51 19.91, 175.98 30.55, 176 42 M176 42 C175.98 51.21, 172.33 55.23, 162 56 M162 56 C124.09 56.13, 84.89 57.44, 14 56 M14 56 C4.03 54.68, 1.33 52.82, 0 42 M0 42 C-1.89 32.97, -0.66 24.17, 0 14 M0 14 C1.79 5.21, 2.88 1.62, 14 0" stroke="#a61e4d" stroke-width="4.5" fill="none" stroke-dasharray="1.5 10"></path></g><g stroke-linecap="round"><g transform="translate(212.4345350950956 314.66738488518115) rotate(0 320.59584591090675 183.27796538174152)"><path d="M0.79 -1.09 C107.43 60.14, 533.71 305.95, 640.4 367.65" stroke="#a61e4d" stroke-width="4.5" fill="none" stroke-dasharray="1.5 10"></path></g></g><mask></mask><g stroke-linecap="round"><g transform="translate(206.4345350950956 506.66738488518115) rotate(0 143.26356470286845 -197.86822783648967)"><path d="M-0.61 -0.86 C47.43 -66.68, 239.3 -328.84, 287.13 -394.88" stroke="#a61e4d" stroke-width="4.5" fill="none" stroke-dasharray="1.5 10"></path></g></g><mask></mask><g stroke-linecap="round" transform="translate(488 84.02380952380997) rotate(0 88 17)"><path d="M8.5 0 M8.5 0 C61.58 -3.09, 117.42 0.41, 167.5 0 M167.5 0 C173.63 1.7, 177.47 2.29, 176 8.5 M176 8.5 C175.78 12.5, 177.34 15.56, 176 25.5 M176 25.5 C176.88 30.34, 171.36 33.63, 167.5 34 M167.5 34 C108.67 35.39, 48.09 34.5, 8.5 34 M8.5 34 C4.52 33.86, 1.17 29.2, 0 25.5 M0 25.5 C-0.42 20.19, -0.03 16.32, 0 8.5 M0 8.5 C-1.65 1.99, 4.1 -1.54, 8.5 0" stroke="#a61e4d" stroke-width="4.5" fill="none" stroke-dasharray="1.5 10"></path></g><g stroke-linecap="round" transform="translate(16 484.02380952381) rotate(0 90 28)"><path d="M14 0 M14 0 C56.37 -0.35, 101.12 -3.03, 166 0 M166 0 C174.97 1.47, 180.79 5.09, 180 14 M180 14 C180.31 24.9, 180.01 33.59, 180 42 M180 42 C178.03 49.97, 174.22 55.33, 166 56 M166 56 C123.5 54.24, 83.19 57.16, 14 56 M14 56 C3.12 57.78, -1.63 49.69, 0 42 M0 42 C-1.06 36.36, 1.05 28.07, 0 14 M0 14 C0.29 2.97, 3.4 1.95, 14 0" stroke="#a61e4d" stroke-width="4.5" fill="none" stroke-dasharray="1.5 10"></path></g></svg>