<svg version="1.1" xmlns="http://www.w3.org/2000/svg" viewBox="0 0 2035.809361085901 1681.4047619047633" width="2035.809361085901" height="1681.4047619047633">
  <!-- svg-source:excalidraw -->
  
  <defs>
    <style class="style-fonts">
      @font-face {
        font-family: "Virgil";
        src: url("https://excalidraw.com/Virgil.woff2");
      }
      @font-face {
        font-family: "Cascadia";
        src: url("https://excalidraw.com/Cascadia.woff2");
      }
    </style>
    
  </defs>
  <rect x="0" y="0" width="2035.809361085901" height="1681.4047619047633" fill="#ffffff"></rect><g stroke-linecap="round" transform="translate(1328.940638914101 27.273809523810655) rotate(0 85.125 151.4999999999999)"><path d="M32 0 M32 0 C55.48 2.6, 79.6 0.32, 138.25 0 M32 0 C69.05 -1.13, 104.61 0.2, 138.25 0 M138.25 0 C159.46 -0.99, 168.33 12.35, 170.25 32 M138.25 0 C160.76 -1.11, 170.45 11.95, 170.25 32 M170.25 32 C171.63 104.38, 173.16 179.36, 170.25 271 M170.25 32 C170.91 94.82, 171.25 159.31, 170.25 271 M170.25 271 C168.65 291.82, 159.38 301.16, 138.25 303 M170.25 271 C169.41 290.57, 160.03 301.45, 138.25 303 M138.25 303 C107.93 302.05, 75.87 302.23, 32 303 M138.25 303 C103.13 303.88, 66.76 304.12, 32 303 M32 303 C12.09 302.6, 1.3 293.12, 0 271 M32 303 C11.27 301.54, 0.15 291.75, 0 271 M0 271 C-2.53 198.66, -2.54 122.33, 0 32 M0 271 C-0.42 181.59, -0.46 91.31, 0 32 M0 32 C-0.68 9.7, 9.35 -0.43, 32 0 M0 32 C-1.05 9.13, 8.71 -0.09, 32 0" stroke="#000000" stroke-width="1" fill="none"></path></g><g transform="translate(1372.047781771244 44.309523809524876) rotate(0 41 17.5)"><text x="0" y="0" font-family="Virgil, Segoe UI Emoji" font-size="28px" fill="#000000" text-anchor="start" style="white-space: pre;" direction="ltr" dominant-baseline="text-before-edge">Driver</text></g><g stroke-linecap="round"><g transform="translate(1342.797781771244 88.05952380952488) rotate(0 76.2525425663963 0.0045538327283907165)"><path d="M0.27 -1.03 C25.31 -0.95, 126.09 0.69, 151.41 0.87 M-1.04 1.04 C24.24 0.76, 128.17 -0.85, 153.55 -0.8" stroke="#000000" stroke-width="1" fill="none"></path></g></g><mask></mask><g transform="translate(1333.5120674855298 97.05952380952488) rotate(0 80.2249984741211 102.6301945499556)"><text x="0" y="0" font-family="Virgil, Segoe UI Emoji" font-size="20.526038909991126px" fill="#000000" text-anchor="start" style="white-space: pre;" direction="ltr" dominant-baseline="text-before-edge">id: string;</text><text x="0" y="25.657548637488908" font-family="Virgil, Segoe UI Emoji" font-size="20.526038909991126px" fill="#000000" text-anchor="start" style="white-space: pre;" direction="ltr" dominant-baseline="text-before-edge"></text><text x="0" y="51.315097274977816" font-family="Virgil, Segoe UI Emoji" font-size="20.526038909991126px" fill="#000000" text-anchor="start" style="white-space: pre;" direction="ltr" dominant-baseline="text-before-edge">name: string;</text><text x="0" y="76.97264591246673" font-family="Virgil, Segoe UI Emoji" font-size="20.526038909991126px" fill="#000000" text-anchor="start" style="white-space: pre;" direction="ltr" dominant-baseline="text-before-edge"></text><text x="0" y="102.63019454995563" font-family="Virgil, Segoe UI Emoji" font-size="20.526038909991126px" fill="#000000" text-anchor="start" style="white-space: pre;" direction="ltr" dominant-baseline="text-before-edge">phones: string[];</text><text x="0" y="128.28774318744453" font-family="Virgil, Segoe UI Emoji" font-size="20.526038909991126px" fill="#000000" text-anchor="start" style="white-space: pre;" direction="ltr" dominant-baseline="text-before-edge"></text><text x="0" y="153.94529182493346" font-family="Virgil, Segoe UI Emoji" font-size="20.526038909991126px" fill="#000000" text-anchor="start" style="white-space: pre;" direction="ltr" dominant-baseline="text-before-edge">organizationId: </text><text x="0" y="179.60284046242236" font-family="Virgil, Segoe UI Emoji" font-size="20.526038909991126px" fill="#000000" text-anchor="start" style="white-space: pre;" direction="ltr" dominant-baseline="text-before-edge">    string;</text></g><g stroke-linecap="round" transform="translate(936.4513520907908 589.7735140537194) rotate(359.58780725859765 87.5 148.91799845854234)"><path d="M32 0 M32 0 C54.22 -0.76, 77.65 -0.47, 143 0 M32 0 C67.31 -0.97, 103.48 -0.49, 143 0 M143 0 C163.23 -1.87, 175.36 10.02, 175 32 M143 0 C163.59 -0.32, 173.62 10.22, 175 32 M175 32 C175.81 99.64, 176.21 165.63, 175 265.84 M175 32 C174.05 116.25, 175.25 199.75, 175 265.84 M175 265.84 C173.55 285.59, 165.77 298.04, 143 297.84 M175 265.84 C173.75 288.28, 162.44 300.04, 143 297.84 M143 297.84 C115.18 297.23, 87.88 299.55, 32 297.84 M143 297.84 C117.16 298.63, 92.48 298.98, 32 297.84 M32 297.84 C11.11 298.84, 0.35 286.25, 0 265.84 M32 297.84 C12.18 299.74, -1.76 287.73, 0 265.84 M0 265.84 C-2.38 207.5, 0.21 153.3, 0 32 M0 265.84 C-1.2 184.51, -2.27 105.24, 0 32 M0 32 C-0.37 9.39, 10.38 -1.69, 32 0 M0 32 C-0.96 8.57, 8.55 0.34, 32 0" stroke="#000000" stroke-width="1" fill="none"></path></g><g transform="translate(979.047781771244 602.8095238095249) rotate(0 43.25 17.5)"><text x="0" y="0" font-family="Virgil, Segoe UI Emoji" font-size="28px" fill="#000000" text-anchor="start" style="white-space: pre;" direction="ltr" dominant-baseline="text-before-edge">Vehicle</text></g><g stroke-linecap="round"><g transform="translate(947.797781771244 657.8095238095249) rotate(0 77.88808362765235 0.5204991410859066)"><path d="M0.9 0.74 C26.96 0.81, 130.21 0.14, 155.87 0.06 M-0.09 0.08 C25.93 0.28, 129.7 0.8, 155.37 0.98" stroke="#000000" stroke-width="1" fill="none"></path></g></g><mask></mask><g transform="translate(943.3334960569582 669.7738095238107) rotate(0 80.23332977294922 100)"><text x="0" y="0" font-family="Virgil, Segoe UI Emoji" font-size="20px" fill="#000000" text-anchor="start" style="white-space: pre;" direction="ltr" dominant-baseline="text-before-edge">id: string;</text><text x="0" y="25" font-family="Virgil, Segoe UI Emoji" font-size="20px" fill="#000000" text-anchor="start" style="white-space: pre;" direction="ltr" dominant-baseline="text-before-edge"></text><text x="0" y="50" font-family="Virgil, Segoe UI Emoji" font-size="20px" fill="#000000" text-anchor="start" style="white-space: pre;" direction="ltr" dominant-baseline="text-before-edge">licensePlate: </text><text x="0" y="75" font-family="Virgil, Segoe UI Emoji" font-size="20px" fill="#000000" text-anchor="start" style="white-space: pre;" direction="ltr" dominant-baseline="text-before-edge">    string;</text><text x="0" y="100" font-family="Virgil, Segoe UI Emoji" font-size="20px" fill="#000000" text-anchor="start" style="white-space: pre;" direction="ltr" dominant-baseline="text-before-edge"></text><text x="0" y="125" font-family="Virgil, Segoe UI Emoji" font-size="20px" fill="#000000" text-anchor="start" style="white-space: pre;" direction="ltr" dominant-baseline="text-before-edge">driverId?: string;</text><text x="0" y="150" font-family="Virgil, Segoe UI Emoji" font-size="20px" fill="#000000" text-anchor="start" style="white-space: pre;" direction="ltr" dominant-baseline="text-before-edge"></text><text x="0" y="175" font-family="Virgil, Segoe UI Emoji" font-size="20px" fill="#000000" text-anchor="start" style="white-space: pre;" direction="ltr" dominant-baseline="text-before-edge">vehicleType: *</text></g><g stroke-linecap="round" transform="translate(571.0418293902912 10) rotate(0 108.875 237.39285714285717)"><path d="M32 0 M32 0 C84.5 -0.02, 136.58 -0.42, 185.75 0 M32 0 C63.35 -2.03, 94.82 -2.2, 185.75 0 M185.75 0 C207.97 1.78, 218.52 11.64, 217.75 32 M185.75 0 C208.44 -0.48, 219.91 11.12, 217.75 32 M217.75 32 C216.33 119.1, 216.88 204.17, 217.75 442.79 M217.75 32 C218.63 166.72, 218.66 300.98, 217.75 442.79 M217.75 442.79 C217.77 463.2, 206.51 474.28, 185.75 474.79 M217.75 442.79 C217.79 463.29, 205.42 476.62, 185.75 474.79 M185.75 474.79 C128.78 474.37, 75.65 474.82, 32 474.79 M185.75 474.79 C132.59 475.42, 81.09 476.51, 32 474.79 M32 474.79 C12.24 473.87, -0.69 462.61, 0 442.79 M32 474.79 C12.77 476.43, -2.21 465.38, 0 442.79 M0 442.79 C1.33 351.83, 0.69 258.38, 0 32 M0 442.79 C-1.46 288.56, -1.29 134.5, 0 32 M0 32 C-1.67 9.31, 11.93 -0.2, 32 0 M0 32 C2.17 12.3, 9.19 -1.83, 32 0" stroke="#000000" stroke-width="1" fill="none"></path></g><g stroke-linecap="round"><g transform="translate(583.6642868238948 72.38830331012912) rotate(0 76.56209631143139 -0.3824604534512446)"><path d="M0.77 -0.39 C25.93 -0.29, 125.91 1.04, 151.32 0.91 M-0.29 -1.64 C25.19 -1.89, 127.9 -0.93, 153.41 -0.74" stroke="#000000" stroke-width="1" fill="none"></path></g></g><mask></mask><g transform="translate(618.9168293902912 17.392857142857224) rotate(0 34.29999923706055 17.5)"><text x="0" y="0" font-family="Virgil, Segoe UI Emoji" font-size="28px" fill="#000000" text-anchor="start" style="white-space: pre;" direction="ltr" dominant-baseline="text-before-edge">Wash</text></g><g transform="translate(607.0596865331484 87.39285714285722) rotate(0 83.04166412353516 183.5)"><text x="0" y="0" font-family="Virgil, Segoe UI Emoji" font-size="19.573333333333334px" fill="#000000" text-anchor="start" style="white-space: pre;" direction="ltr" dominant-baseline="text-before-edge">id: string;</text><text x="0" y="24.46666666666667" font-family="Virgil, Segoe UI Emoji" font-size="19.573333333333334px" fill="#000000" text-anchor="start" style="white-space: pre;" direction="ltr" dominant-baseline="text-before-edge"></text><text x="0" y="48.93333333333334" font-family="Virgil, Segoe UI Emoji" font-size="19.573333333333334px" fill="#000000" text-anchor="start" style="white-space: pre;" direction="ltr" dominant-baseline="text-before-edge">vehicleId: string</text><text x="0" y="73.4" font-family="Virgil, Segoe UI Emoji" font-size="19.573333333333334px" fill="#000000" text-anchor="start" style="white-space: pre;" direction="ltr" dominant-baseline="text-before-edge"></text><text x="0" y="97.86666666666667" font-family="Virgil, Segoe UI Emoji" font-size="19.573333333333334px" fill="#000000" text-anchor="start" style="white-space: pre;" direction="ltr" dominant-baseline="text-before-edge">scheduleDate:</text><text x="0" y="122.33333333333334" font-family="Virgil, Segoe UI Emoji" font-size="19.573333333333334px" fill="#000000" text-anchor="start" style="white-space: pre;" direction="ltr" dominant-baseline="text-before-edge">    string;</text><text x="0" y="146.8" font-family="Virgil, Segoe UI Emoji" font-size="19.573333333333334px" fill="#000000" text-anchor="start" style="white-space: pre;" direction="ltr" dominant-baseline="text-before-edge"></text><text x="0" y="171.26666666666668" font-family="Virgil, Segoe UI Emoji" font-size="19.573333333333334px" fill="#000000" text-anchor="start" style="white-space: pre;" direction="ltr" dominant-baseline="text-before-edge">cycleId: string;</text><text x="0" y="195.73333333333335" font-family="Virgil, Segoe UI Emoji" font-size="19.573333333333334px" fill="#000000" text-anchor="start" style="white-space: pre;" direction="ltr" dominant-baseline="text-before-edge"></text><text x="0" y="220.20000000000002" font-family="Virgil, Segoe UI Emoji" font-size="19.573333333333334px" fill="#000000" text-anchor="start" style="white-space: pre;" direction="ltr" dominant-baseline="text-before-edge">note?: string;</text><text x="0" y="244.66666666666669" font-family="Virgil, Segoe UI Emoji" font-size="19.573333333333334px" fill="#000000" text-anchor="start" style="white-space: pre;" direction="ltr" dominant-baseline="text-before-edge"></text><text x="0" y="269.1333333333333" font-family="Virgil, Segoe UI Emoji" font-size="19.573333333333334px" fill="#000000" text-anchor="start" style="white-space: pre;" direction="ltr" dominant-baseline="text-before-edge">isCompleted:</text><text x="0" y="293.6" font-family="Virgil, Segoe UI Emoji" font-size="19.573333333333334px" fill="#000000" text-anchor="start" style="white-space: pre;" direction="ltr" dominant-baseline="text-before-edge">    boolean</text><text x="0" y="318.0666666666667" font-family="Virgil, Segoe UI Emoji" font-size="19.573333333333334px" fill="#000000" text-anchor="start" style="white-space: pre;" direction="ltr" dominant-baseline="text-before-edge"></text><text x="0" y="342.53333333333336" font-family="Virgil, Segoe UI Emoji" font-size="19.573333333333334px" fill="#000000" text-anchor="start" style="white-space: pre;" direction="ltr" dominant-baseline="text-before-edge">createdBy: string</text></g><g stroke-linecap="round" transform="translate(82.79182939029118 165.99999999999966) rotate(0 104.5892857142857 217.7500000000001)"><path d="M32 0 M32 0 C80.4 -2.6, 130.39 0.74, 177.18 0 M32 0 C84.59 -1.22, 138.27 -0.6, 177.18 0 M177.18 0 C199.34 -0.75, 209.97 9.88, 209.18 32 M177.18 0 C196.57 -0.16, 208.33 10.61, 209.18 32 M209.18 32 C208.68 179.99, 208.08 325.83, 209.18 403.5 M209.18 32 C210.58 148.06, 210.13 264.96, 209.18 403.5 M209.18 403.5 C209.88 425.35, 197.84 434.9, 177.18 435.5 M209.18 403.5 C208.49 425.32, 200.05 434.44, 177.18 435.5 M177.18 435.5 C134.8 434.79, 92.74 437.21, 32 435.5 M177.18 435.5 C127.18 437.07, 76.71 437.21, 32 435.5 M32 435.5 C12.31 434.53, -1.69 424.44, 0 403.5 M32 435.5 C11.9 435.63, 0.26 423.03, 0 403.5 M0 403.5 C-2.94 284.1, -2.75 166.29, 0 32 M0 403.5 C2.35 328.22, 2.77 254.03, 0 32 M0 32 C1.79 12.14, 11.22 0.89, 32 0 M0 32 C1.46 9.39, 12.3 -0.62, 32 0" stroke="#000000" stroke-width="1" fill="none"></path></g><g stroke-linecap="round"><g transform="translate(96.16428682389477 234.1383033101289) rotate(0 76.16588923670352 -0.0931705722492211)"><path d="M-1.09 0.61 C24.38 0.77, 127.78 0.69, 153.42 0.77 M0.54 -0.11 C25.87 -0.28, 127.7 -0.86, 152.95 -0.95" stroke="#000000" stroke-width="1" fill="none"></path></g></g><mask></mask><g transform="translate(97.66682939029118 179.142857142857) rotate(0 72.00833129882812 17.5)"><text x="0" y="0" font-family="Virgil, Segoe UI Emoji" font-size="28px" fill="#000000" text-anchor="start" style="white-space: pre;" direction="ltr" dominant-baseline="text-before-edge">Wash-cycle</text></g><g transform="translate(96.16682939029118 245.142857142857) rotate(0 90.53333282470703 175)"><text x="0" y="0" font-family="Virgil, Segoe UI Emoji" font-size="20px" fill="#000000" text-anchor="start" style="white-space: pre;" direction="ltr" dominant-baseline="text-before-edge">id: string</text><text x="0" y="25" font-family="Virgil, Segoe UI Emoji" font-size="20px" fill="#000000" text-anchor="start" style="white-space: pre;" direction="ltr" dominant-baseline="text-before-edge"></text><text x="0" y="50" font-family="Virgil, Segoe UI Emoji" font-size="20px" fill="#000000" text-anchor="start" style="white-space: pre;" direction="ltr" dominant-baseline="text-before-edge">vehicleId: string;</text><text x="0" y="75" font-family="Virgil, Segoe UI Emoji" font-size="20px" fill="#000000" text-anchor="start" style="white-space: pre;" direction="ltr" dominant-baseline="text-before-edge"></text><text x="0" y="100" font-family="Virgil, Segoe UI Emoji" font-size="20px" fill="#000000" text-anchor="start" style="white-space: pre;" direction="ltr" dominant-baseline="text-before-edge">startDate: string;</text><text x="0" y="125" font-family="Virgil, Segoe UI Emoji" font-size="20px" fill="#000000" text-anchor="start" style="white-space: pre;" direction="ltr" dominant-baseline="text-before-edge"></text><text x="0" y="150" font-family="Virgil, Segoe UI Emoji" font-size="20px" fill="#000000" text-anchor="start" style="white-space: pre;" direction="ltr" dominant-baseline="text-before-edge">endDate: string;</text><text x="0" y="175" font-family="Virgil, Segoe UI Emoji" font-size="20px" fill="#000000" text-anchor="start" style="white-space: pre;" direction="ltr" dominant-baseline="text-before-edge"></text><text x="0" y="200" font-family="Virgil, Segoe UI Emoji" font-size="20px" fill="#000000" text-anchor="start" style="white-space: pre;" direction="ltr" dominant-baseline="text-before-edge">note?: string</text><text x="0" y="225" font-family="Virgil, Segoe UI Emoji" font-size="20px" fill="#000000" text-anchor="start" style="white-space: pre;" direction="ltr" dominant-baseline="text-before-edge"></text><text x="0" y="250" font-family="Virgil, Segoe UI Emoji" font-size="20px" fill="#000000" text-anchor="start" style="white-space: pre;" direction="ltr" dominant-baseline="text-before-edge">washIds: string[]</text><text x="0" y="275" font-family="Virgil, Segoe UI Emoji" font-size="20px" fill="#000000" text-anchor="start" style="white-space: pre;" direction="ltr" dominant-baseline="text-before-edge"></text><text x="0" y="300" font-family="Virgil, Segoe UI Emoji" font-size="20px" fill="#000000" text-anchor="start" style="white-space: pre;" direction="ltr" dominant-baseline="text-before-edge">completedWashes: </text><text x="0" y="325" font-family="Virgil, Segoe UI Emoji" font-size="20px" fill="#000000" text-anchor="start" style="white-space: pre;" direction="ltr" dominant-baseline="text-before-edge">    string[]</text></g><g stroke-linecap="round" transform="translate(1782.3037341521983 383.0238095238102) rotate(0 120.87500000000011 151.14285714285722)"><path d="M32 0 M32 0 C99.19 0.79, 165.82 1.08, 209.75 0 M32 0 C80.51 0.68, 127.72 0.82, 209.75 0 M209.75 0 C232.69 0.29, 240.45 9.52, 241.75 32 M209.75 0 C230.29 1.65, 243.06 10.28, 241.75 32 M241.75 32 C242.68 91.7, 243.5 151.19, 241.75 270.29 M241.75 32 C239.7 119.64, 239.65 206.83, 241.75 270.29 M241.75 270.29 C241.62 293.57, 230.15 303.65, 209.75 302.29 M241.75 270.29 C241.61 292.74, 230.39 302.46, 209.75 302.29 M209.75 302.29 C161.98 302.91, 111.03 302.74, 32 302.29 M209.75 302.29 C152.51 302.27, 95.91 300.87, 32 302.29 M32 302.29 C10.96 301.09, 1.48 291.74, 0 270.29 M32 302.29 C12.77 303.11, -1.07 289.86, 0 270.29 M0 270.29 C1.11 202.76, 0.63 136.21, 0 32 M0 270.29 C-1.82 204.12, -2.06 138.72, 0 32 M0 32 C-1.87 11.08, 10.65 -0.02, 32 0 M0 32 C-0.25 9.62, 11.96 0.98, 32 0" stroke="#000000" stroke-width="1" fill="none"></path></g><g transform="translate(1827.4108770093412 392.0595238095244) rotate(0 84.7750015258789 17.5)"><text x="0" y="0" font-family="Virgil, Segoe UI Emoji" font-size="28px" fill="#000000" text-anchor="start" style="white-space: pre;" direction="ltr" dominant-baseline="text-before-edge">Organization</text></g><g stroke-linecap="round"><g transform="translate(1796.1608770093412 443.8095238095244) rotate(0 114.37971930152275 -0.05748292517853315)"><path d="M0.37 -0.37 C38.62 -0.56, 191.24 -0.22, 229.65 -0.03 M-0.89 -1.61 C37.15 -1.08, 189.95 1.43, 228.52 1.5" stroke="#000000" stroke-width="1" fill="none"></path></g></g><mask></mask><g transform="translate(1799.1608770093412 458.8095238095244) rotate(0 95.84166717529297 115.45896886870014)"><text x="0" y="0" font-family="Virgil, Segoe UI Emoji" font-size="20.526038909991126px" fill="#000000" text-anchor="start" style="white-space: pre;" direction="ltr" dominant-baseline="text-before-edge">id: string;</text><text x="0" y="25.657548637488908" font-family="Virgil, Segoe UI Emoji" font-size="20.526038909991126px" fill="#000000" text-anchor="start" style="white-space: pre;" direction="ltr" dominant-baseline="text-before-edge"></text><text x="0" y="51.315097274977816" font-family="Virgil, Segoe UI Emoji" font-size="20.526038909991126px" fill="#000000" text-anchor="start" style="white-space: pre;" direction="ltr" dominant-baseline="text-before-edge">type: "Cooperativa"</text><text x="0" y="76.97264591246673" font-family="Virgil, Segoe UI Emoji" font-size="20.526038909991126px" fill="#000000" text-anchor="start" style="white-space: pre;" direction="ltr" dominant-baseline="text-before-edge">    | "Empresa"</text><text x="0" y="102.63019454995563" font-family="Virgil, Segoe UI Emoji" font-size="20.526038909991126px" fill="#000000" text-anchor="start" style="white-space: pre;" direction="ltr" dominant-baseline="text-before-edge"></text><text x="0" y="128.28774318744453" font-family="Virgil, Segoe UI Emoji" font-size="20.526038909991126px" fill="#000000" text-anchor="start" style="white-space: pre;" direction="ltr" dominant-baseline="text-before-edge">name: string;</text><text x="0" y="153.94529182493346" font-family="Virgil, Segoe UI Emoji" font-size="20.526038909991126px" fill="#000000" text-anchor="start" style="white-space: pre;" direction="ltr" dominant-baseline="text-before-edge"></text><text x="0" y="179.60284046242236" font-family="Virgil, Segoe UI Emoji" font-size="20.526038909991126px" fill="#000000" text-anchor="start" style="white-space: pre;" direction="ltr" dominant-baseline="text-before-edge">phone: string[];</text><text x="0" y="205.26038909991127" font-family="Virgil, Segoe UI Emoji" font-size="20.526038909991126px" fill="#000000" text-anchor="start" style="white-space: pre;" direction="ltr" dominant-baseline="text-before-edge"></text></g><g transform="translate(738.3096865331479 1596.4047619047633) rotate(0 137.6666717529297 37.5)"><text x="0" y="0" font-family="Virgil, Segoe UI Emoji" font-size="20px" fill="#000000" text-anchor="start" style="white-space: pre;" direction="ltr" dominant-baseline="text-before-edge">* "Extra leve" | "Leve"</text><text x="0" y="25" font-family="Virgil, Segoe UI Emoji" font-size="20px" fill="#000000" text-anchor="start" style="white-space: pre;" direction="ltr" dominant-baseline="text-before-edge">    | "Vuc" | "Toco" | "Truck"</text><text x="0" y="50" font-family="Virgil, Segoe UI Emoji" font-size="20px" fill="#000000" text-anchor="start" style="white-space: pre;" direction="ltr" dominant-baseline="text-before-edge">    | "Bitruck" | "Carreta" </text></g><g stroke-linecap="round" transform="translate(1324.0239722474337 245.52380952380997) rotate(0 88 28)"><path d="M14 0 M14 0 C64.82 1.87, 112.87 -0.02, 162 0 M162 0 C169.77 1.2, 177.64 3.15, 176 14 M176 14 C174.57 24.56, 176.51 32.68, 176 42 M176 42 C174.88 49.48, 170.97 55.88, 162 56 M162 56 C121.5 55.83, 78.21 56.38, 14 56 M14 56 C3.75 56.16, -0.79 52.26, 0 42 M0 42 C-1.14 34.18, 1.74 24.92, 0 14 M0 14 C-0.37 3.37, 3.4 -1.83, 14 0" stroke="#a61e4d" stroke-width="4.5" fill="none" stroke-dasharray="1.5 10"></path></g><g stroke-linecap="round" transform="translate(1790.5239722474337 444.02380952381) rotate(0 88.00000000000011 28)"><path d="M14 0 M14 0 C50.95 -2.57, 85.62 0.07, 162 0 M162 0 C173.01 1.4, 177.01 4.4, 176 14 M176 14 C176.09 20.85, 176.96 29.41, 176 42 M176 42 C176.92 51.4, 170.27 55.22, 162 56 M162 56 C115.7 53.54, 69.27 55.38, 14 56 M14 56 C5.48 57.61, -1.7 52.7, 0 42 M0 42 C0.84 32.31, -0.14 20.32, 0 14 M0 14 C-0.46 3.3, 4.96 0.2, 14 0" stroke="#a61e4d" stroke-width="4.5" fill="none" stroke-dasharray="1.5 10"></path></g><g stroke-linecap="round"><g transform="translate(1508.0239722474337 280.02380952381) rotate(0 131.86276228129873 92.84808056652548)"><path d="M0.66 0.71 C44.64 31.38, 219.56 154.01, 263.07 184.98" stroke="#a61e4d" stroke-width="4.5" fill="none" stroke-dasharray="1.5 10"></path></g></g><mask></mask><g stroke-linecap="round" transform="translate(928.5239722474337 782.02380952381) rotate(0 88 28)"><path d="M14 0 M14 0 C56.23 2.84, 100.51 0.68, 162 0 M162 0 C172.18 -0.38, 174.51 2.88, 176 14 M176 14 C174.56 18.8, 177.25 24.06, 176 42 M176 42 C175.16 52.68, 169.86 54.05, 162 56 M162 56 C129.08 57.79, 98.05 57.6, 14 56 M14 56 C3.07 57.56, 1.25 51.71, 0 42 M0 42 C-1.06 33.72, -1.11 26.46, 0 14 M0 14 C1.17 4.37, 6.08 0.24, 14 0" stroke="#a61e4d" stroke-width="4.5" fill="none" stroke-dasharray="1.5 10"></path></g><g stroke-linecap="round"><g transform="translate(1102.5239722474337 800.02380952381) rotate(0 104.24826938807973 -337.1883680075407)"><path d="M0.89 -0.88 C35.68 -112.96, 173.12 -561.16, 207.6 -673.49" stroke="#a61e4d" stroke-width="4.5" fill="none" stroke-dasharray="1.5 10"></path></g></g><mask></mask><g stroke-linecap="round" transform="translate(1316.5239722474337 90.02380952380997) rotate(0 88 28)"><path d="M14 0 M14 0 C72.7 -1.18, 129.36 -0.3, 162 0 M162 0 C170.6 -0.19, 177.02 4.32, 176 14 M176 14 C175.32 19, 175.51 28.92, 176 42 M176 42 C176.5 50.07, 170.31 55.9, 162 56 M162 56 C123.64 55.02, 87.87 57.22, 14 56 M14 56 C6.2 54.52, -1.18 50.23, 0 42 M0 42 C1.81 34.9, 1.6 29.72, 0 14 M0 14 C0.61 4.22, 3.74 1.88, 14 0" stroke="#a61e4d" stroke-width="4.5" fill="none" stroke-dasharray="1.5 10"></path></g><g stroke-linecap="round" transform="translate(938.5239722474337 656.02380952381) rotate(0 88 28)"><path d="M14 0 M14 0 C70.46 1.96, 129.37 1.07, 162 0 M162 0 C172.68 -1.72, 176.89 2.91, 176 14 M176 14 C177.79 21.98, 174.47 34.76, 176 42 M176 42 C174.27 52.69, 172.19 54.17, 162 56 M162 56 C125.46 54.96, 88.88 54.71, 14 56 M14 56 C3.4 57.8, 0.77 51.42, 0 42 M0 42 C1.37 30.37, -0.23 23.74, 0 14 M0 14 C-1.11 6.07, 5.86 1.64, 14 0" stroke="#a61e4d" stroke-width="4.5" fill="none" stroke-dasharray="1.5 10"></path></g><g stroke-linecap="round"><g transform="translate(928.7249551727298 685.0705964788086) rotate(0 -78.29000765979288 -284.20974586308006)"><path d="M0.9 1.14 C-25.29 -93.8, -131.27 -474.21, -157.48 -569.56" stroke="#a61e4d" stroke-width="4.5" fill="none" stroke-dasharray="1.5 10"></path></g></g><mask></mask><g stroke-linecap="round" transform="translate(580.5239722474337 248.02380952380997) rotate(0 88 28)"><path d="M14 0 M14 0 C70.23 0.99, 131.4 0.55, 162 0 M162 0 C172.34 0.19, 175.78 3.77, 176 14 M176 14 C176 23.13, 175.31 35.23, 176 42 M176 42 C176.5 53.12, 172.78 56.72, 162 56 M162 56 C109.31 57.97, 55.65 57.07, 14 56 M14 56 C2.97 54.6, 0.11 52.82, 0 42 M0 42 C1.24 33.23, -1.96 20.83, 0 14 M0 14 C1.98 5.04, 5.85 -0.97, 14 0" stroke="#a61e4d" stroke-width="4.5" fill="none" stroke-dasharray="1.5 10"></path></g><g stroke-linecap="round" transform="translate(82.52397224743362 230.02380952380997) rotate(0 88 28)"><path d="M14 0 M14 0 C71.71 -0.6, 127.6 -2.28, 162 0 M162 0 C172.75 -0.29, 176.92 3.11, 176 14 M176 14 C175.87 23.92, 176.76 30.83, 176 42 M176 42 C176.89 52.57, 172.36 54.03, 162 56 M162 56 C130.55 55.3, 98.41 58.06, 14 56 M14 56 C5.63 57.86, 1.51 52.08, 0 42 M0 42 C1.67 34.3, -1.47 23.26, 0 14 M0 14 C1.03 5.29, 2.67 -1.4, 14 0" stroke="#a61e4d" stroke-width="4.5" fill="none" stroke-dasharray="1.5 10"></path></g><g stroke-linecap="round"><g transform="translate(274.5239722474336 248.02380952380997) rotate(0 145.5654649049044 16.356424638628937)"><path d="M0.6 -0.03 C49.01 5.28, 242.2 27.6, 290.53 32.74" stroke="#a61e4d" stroke-width="4.5" fill="none" stroke-dasharray="1.5 10"></path></g></g><mask></mask><g stroke-linecap="round" transform="translate(94.52397224743362 282.02380952381) rotate(0 88 28)"><path d="M14 0 M14 0 C47.11 -2.9, 82.99 -0.12, 162 0 M162 0 C171.33 -1.38, 175.55 4.07, 176 14 M176 14 C174.51 19.91, 175.98 30.55, 176 42 M176 42 C175.98 51.21, 172.33 55.23, 162 56 M162 56 C124.09 56.13, 84.89 57.44, 14 56 M14 56 C4.03 54.68, 1.33 52.82, 0 42 M0 42 C-1.89 32.97, -0.66 24.17, 0 14 M0 14 C1.79 5.21, 2.88 1.62, 14 0" stroke="#a61e4d" stroke-width="4.5" fill="none" stroke-dasharray="1.5 10"></path></g><g stroke-linecap="round"><g transform="translate(284.95850734252923 314.66738488518115) rotate(0 320.59584591090675 183.27796538174152)"><path d="M0.79 -1.09 C107.43 60.14, 533.71 305.95, 640.4 367.65" stroke="#a61e4d" stroke-width="4.5" fill="none" stroke-dasharray="1.5 10"></path></g></g><mask></mask><g stroke-linecap="round"><g transform="translate(278.95850734252923 506.66738488518115) rotate(0 143.26356470286845 -197.86822783648967)"><path d="M-0.61 -0.86 C47.43 -66.68, 239.3 -328.84, 287.13 -394.88" stroke="#a61e4d" stroke-width="4.5" fill="none" stroke-dasharray="1.5 10"></path></g></g><mask></mask><g stroke-linecap="round" transform="translate(580.5239722474337 84.02380952380997) rotate(0 88 17)"><path d="M8.5 0 M8.5 0 C61.58 -3.09, 117.42 0.41, 167.5 0 M167.5 0 C173.63 1.7, 177.47 2.29, 176 8.5 M176 8.5 C175.78 12.5, 177.34 15.56, 176 25.5 M176 25.5 C176.88 30.34, 171.36 33.63, 167.5 34 M167.5 34 C108.67 35.39, 48.09 34.5, 8.5 34 M8.5 34 C4.52 33.86, 1.17 29.2, 0 25.5 M0 25.5 C-0.42 20.19, -0.03 16.32, 0 8.5 M0 8.5 C-1.65 1.99, 4.1 -1.54, 8.5 0" stroke="#a61e4d" stroke-width="4.5" fill="none" stroke-dasharray="1.5 10"></path></g><g stroke-linecap="round" transform="translate(88.52397224743362 484.02380952381) rotate(0 90 28)"><path d="M14 0 M14 0 C56.37 -0.35, 101.12 -3.03, 166 0 M166 0 C174.97 1.47, 180.79 5.09, 180 14 M180 14 C180.31 24.9, 180.01 33.59, 180 42 M180 42 C178.03 49.97, 174.22 55.33, 166 56 M166 56 C123.5 54.24, 83.19 57.16, 14 56 M14 56 C3.12 57.78, -1.63 49.69, 0 42 M0 42 C-1.06 36.36, 1.05 28.07, 0 14 M0 14 C0.29 2.97, 3.4 1.95, 14 0" stroke="#a61e4d" stroke-width="4.5" fill="none" stroke-dasharray="1.5 10"></path></g><g stroke-linecap="round" transform="translate(16.454068401605383 834.0448803505427) rotate(359.58780725859765 97.31389471470455 235.2377071022006)"><path d="M32 0 M32 0 C82.04 0.51, 134.45 0.94, 162.63 0 M32 0 C79.25 0.06, 127.39 1.29, 162.63 0 M162.63 0 C185.18 -0.76, 193.29 10.76, 194.63 32 M162.63 0 C185.38 1.1, 193.63 9.47, 194.63 32 M194.63 32 C196.37 115.1, 196.03 198.07, 194.63 438.48 M194.63 32 C192.87 152.63, 192.59 273.54, 194.63 438.48 M194.63 438.48 C193.94 460.92, 184.69 471.92, 162.63 470.48 M194.63 438.48 C193.93 460.23, 184.94 472.43, 162.63 470.48 M162.63 470.48 C130.64 469.3, 95.62 469.1, 32 470.48 M162.63 470.48 C132.49 469.44, 104.33 469.06, 32 470.48 M32 470.48 C11.56 472.03, 0.11 460.34, 0 438.48 M32 470.48 C12.57 470.92, 0.05 459.85, 0 438.48 M0 438.48 C-0.18 335.69, 1.14 232.69, 0 32 M0 438.48 C1.75 292.06, 2.31 145.98, 0 32 M0 32 C-1.49 9.29, 11.85 1.11, 32 0 M0 32 C-2.2 9.11, 8.73 1.86, 32 0" stroke="#000000" stroke-width="1" fill="none"></path></g><g transform="translate(68.41666666666652 860.5357142857143) rotate(0 31.274999618530273 17.5)"><text x="0" y="0" font-family="Virgil, Segoe UI Emoji" font-size="28px" fill="#000000" text-anchor="start" style="white-space: pre;" direction="ltr" dominant-baseline="text-before-edge">User</text></g><g stroke-linecap="round"><g transform="translate(24.999999999999773 908.7023809523811) rotate(0 78.54479477655913 0.3077079938972247)"><path d="M0.66 0.43 C26.93 0.44, 131.5 -0.38, 157.54 -0.37 M-0.45 -0.38 C25.74 -0.17, 130.93 1.18, 157.04 0.98" stroke="#1e1e1e" stroke-width="1" fill="none"></path></g></g><mask></mask><g transform="translate(23.10000356038381 936.369047619048) rotate(0 88.5999984741211 176.68091445686082)"><text x="0" y="0" font-family="Virgil, Segoe UI Emoji" font-size="20.192104509355524px" fill="#000000" text-anchor="start" style="white-space: pre;" direction="ltr" dominant-baseline="text-before-edge">id: string;</text><text x="0" y="25.240130636694403" font-family="Virgil, Segoe UI Emoji" font-size="20.192104509355524px" fill="#000000" text-anchor="start" style="white-space: pre;" direction="ltr" dominant-baseline="text-before-edge"></text><text x="0" y="50.480261273388805" font-family="Virgil, Segoe UI Emoji" font-size="20.192104509355524px" fill="#000000" text-anchor="start" style="white-space: pre;" direction="ltr" dominant-baseline="text-before-edge">username: string;</text><text x="0" y="75.72039191008321" font-family="Virgil, Segoe UI Emoji" font-size="20.192104509355524px" fill="#000000" text-anchor="start" style="white-space: pre;" direction="ltr" dominant-baseline="text-before-edge"></text><text x="0" y="100.96052254677761" font-family="Virgil, Segoe UI Emoji" font-size="20.192104509355524px" fill="#000000" text-anchor="start" style="white-space: pre;" direction="ltr" dominant-baseline="text-before-edge">password: string;</text><text x="0" y="126.20065318347201" font-family="Virgil, Segoe UI Emoji" font-size="20.192104509355524px" fill="#000000" text-anchor="start" style="white-space: pre;" direction="ltr" dominant-baseline="text-before-edge"></text><text x="0" y="151.44078382016642" font-family="Virgil, Segoe UI Emoji" font-size="20.192104509355524px" fill="#000000" text-anchor="start" style="white-space: pre;" direction="ltr" dominant-baseline="text-before-edge">email: string;</text><text x="0" y="176.68091445686082" font-family="Virgil, Segoe UI Emoji" font-size="20.192104509355524px" fill="#000000" text-anchor="start" style="white-space: pre;" direction="ltr" dominant-baseline="text-before-edge"></text><text x="0" y="201.92104509355522" font-family="Virgil, Segoe UI Emoji" font-size="20.192104509355524px" fill="#000000" text-anchor="start" style="white-space: pre;" direction="ltr" dominant-baseline="text-before-edge">sessions: string[];</text><text x="0" y="227.16117573024962" font-family="Virgil, Segoe UI Emoji" font-size="20.192104509355524px" fill="#000000" text-anchor="start" style="white-space: pre;" direction="ltr" dominant-baseline="text-before-edge"></text><text x="0" y="252.40130636694403" font-family="Virgil, Segoe UI Emoji" font-size="20.192104509355524px" fill="#000000" text-anchor="start" style="white-space: pre;" direction="ltr" dominant-baseline="text-before-edge">role: "ADMIN" |</text><text x="0" y="277.64143700363843" font-family="Virgil, Segoe UI Emoji" font-size="20.192104509355524px" fill="#000000" text-anchor="start" style="white-space: pre;" direction="ltr" dominant-baseline="text-before-edge">        "COLAB"</text><text x="0" y="302.88156764033283" font-family="Virgil, Segoe UI Emoji" font-size="20.192104509355524px" fill="#000000" text-anchor="start" style="white-space: pre;" direction="ltr" dominant-baseline="text-before-edge"></text><text x="0" y="328.12169827702724" font-family="Virgil, Segoe UI Emoji" font-size="20.192104509355524px" fill="#000000" text-anchor="start" style="white-space: pre;" direction="ltr" dominant-baseline="text-before-edge">createdAt: string;</text></g><g stroke-linecap="round" transform="translate(474.85529066983116 1059.5489707199818) rotate(359.58780725859765 97.31389471470453 180.50351201620333)"><path d="M32 0 M32 0 C74.43 1.09, 116.29 -0.56, 162.63 0 M32 0 C78.09 1.79, 124.95 0.85, 162.63 0 M162.63 0 C184.17 2, 193.48 8.82, 194.63 32 M162.63 0 C185.68 0.23, 192.86 9.74, 194.63 32 M194.63 32 C193.04 131.4, 193.11 234.1, 194.63 329.01 M194.63 32 C194.8 144.09, 195.17 257.34, 194.63 329.01 M194.63 329.01 C193.34 351.13, 182.08 362.32, 162.63 361.01 M194.63 329.01 C193.7 351.56, 185.57 360.92, 162.63 361.01 M162.63 361.01 C118.81 360.61, 76.61 360.88, 32 361.01 M162.63 361.01 C121.05 362.32, 80.01 361.12, 32 361.01 M32 361.01 C11.35 361.49, 1.6 349.27, 0 329.01 M32 361.01 C11.03 361.15, -1.6 348.74, 0 329.01 M0 329.01 C1.38 240.29, 0.04 149.2, 0 32 M0 329.01 C1.83 263.18, 1.32 197.19, 0 32 M0 32 C1.66 12.53, 9.9 1.59, 32 0 M0 32 C0.28 10.36, 10.68 1.47, 32 0" stroke="#000000" stroke-width="1" fill="none"></path></g><g transform="translate(494.71164993271844 1081.0383882670135) rotate(0 79.25833129882812 17.5)"><text x="0" y="0" font-family="Virgil, Segoe UI Emoji" font-size="28px" fill="#000000" text-anchor="start" style="white-space: pre;" direction="ltr" dominant-baseline="text-before-edge">Notification</text></g><g stroke-linecap="round"><g transform="translate(488.7949832660515 1129.20505493368) rotate(0 78.29629499660172 -0.14012843196917402)"><path d="M-0.03 0.69 C25.78 0.71, 129.82 -1, 155.82 -0.97 M-1.5 0 C24.6 0.23, 132.04 0.23, 158.09 0.06" stroke="#1e1e1e" stroke-width="1" fill="none"></path></g></g><mask></mask><g transform="translate(486.89498682643574 1156.871721600347) rotate(0 89.15833282470703 113.58058786512493)"><text x="0" y="0" font-family="Virgil, Segoe UI Emoji" font-size="20.192104509355524px" fill="#000000" text-anchor="start" style="white-space: pre;" direction="ltr" dominant-baseline="text-before-edge">id: string;</text><text x="0" y="25.240130636694403" font-family="Virgil, Segoe UI Emoji" font-size="20.192104509355524px" fill="#000000" text-anchor="start" style="white-space: pre;" direction="ltr" dominant-baseline="text-before-edge"></text><text x="0" y="50.480261273388805" font-family="Virgil, Segoe UI Emoji" font-size="20.192104509355524px" fill="#000000" text-anchor="start" style="white-space: pre;" direction="ltr" dominant-baseline="text-before-edge">recipientId: string;</text><text x="0" y="75.72039191008321" font-family="Virgil, Segoe UI Emoji" font-size="20.192104509355524px" fill="#000000" text-anchor="start" style="white-space: pre;" direction="ltr" dominant-baseline="text-before-edge"></text><text x="0" y="100.96052254677761" font-family="Virgil, Segoe UI Emoji" font-size="20.192104509355524px" fill="#000000" text-anchor="start" style="white-space: pre;" direction="ltr" dominant-baseline="text-before-edge">content: string;</text><text x="0" y="126.20065318347201" font-family="Virgil, Segoe UI Emoji" font-size="20.192104509355524px" fill="#000000" text-anchor="start" style="white-space: pre;" direction="ltr" dominant-baseline="text-before-edge"></text><text x="0" y="151.44078382016642" font-family="Virgil, Segoe UI Emoji" font-size="20.192104509355524px" fill="#000000" text-anchor="start" style="white-space: pre;" direction="ltr" dominant-baseline="text-before-edge">readtAt?: string;</text><text x="0" y="176.68091445686082" font-family="Virgil, Segoe UI Emoji" font-size="20.192104509355524px" fill="#000000" text-anchor="start" style="white-space: pre;" direction="ltr" dominant-baseline="text-before-edge"></text><text x="0" y="201.92104509355522" font-family="Virgil, Segoe UI Emoji" font-size="20.192104509355524px" fill="#000000" text-anchor="start" style="white-space: pre;" direction="ltr" dominant-baseline="text-before-edge">createdAt: string:</text></g><g stroke-linecap="round" transform="translate(474.99999999999994 1191.0357142857142) rotate(0 99 28)"><path d="M14 0 M14 0 C77.13 -0.89, 138.19 2.51, 184 0 M184 0 C194.2 1.49, 197.34 6.2, 198 14 M198 14 C197.93 21.81, 196.09 34.63, 198 42 M198 42 C197.07 52.37, 194.15 57.86, 184 56 M184 56 C142.58 56.91, 102.8 54.74, 14 56 M14 56 C4.53 56.2, 1.71 50.02, 0 42 M0 42 C-0.31 34.96, 0.82 28.38, 0 14 M0 14 C-0.99 3.09, 5.97 -1.3, 14 0" stroke="#a61e4d" stroke-width="4.5" fill="none" stroke-dasharray="1.5 10"></path></g><g stroke-linecap="round"><g transform="translate(466.7517306119202 1212.224082293255) rotate(0 -120.52976186238243 -134.3348590556534)"><path d="M-0.08 0.12 C-40.4 -44.53, -200.49 -224.3, -240.97 -268.79" stroke="#a61e4d" stroke-width="4.5" fill="none" stroke-dasharray="1.5 10"></path></g></g><mask></mask><g stroke-linecap="round" transform="translate(10 917.0357142857146) rotate(0 99.00000000000003 28)"><path d="M14 0 M14 0 C50.05 0.42, 91.13 0.75, 184 0 M184 0 C194.41 0.61, 198.94 4.34, 198 14 M198 14 C198.82 24.08, 199.6 35.62, 198 42 M198 42 C199.23 52.3, 191.81 56.07, 184 56 M184 56 C134.7 58.91, 81.72 59.19, 14 56 M14 56 C5.24 57.23, -1.09 52.74, 0 42 M0 42 C0.83 29.94, -1.68 20.3, 0 14 M0 14 C-0.19 4.26, 2.83 0.93, 14 0" stroke="#a61e4d" stroke-width="4.5" fill="none" stroke-dasharray="1.5 10"></path></g><g stroke-linecap="round" transform="translate(582.4999999999998 417.0357142857141) rotate(0 99 28)"><path d="M14 0 M14 0 C65.48 -2.47, 113.83 0.57, 184 0 M184 0 C194.14 0.07, 199.11 3.74, 198 14 M198 14 C196.3 18.71, 197.13 27.71, 198 42 M198 42 C199.5 50.5, 193.86 57.67, 184 56 M184 56 C148.28 56.26, 113.1 56.81, 14 56 M14 56 C3.86 56.94, 1.8 51.19, 0 42 M0 42 C-0.99 32.56, -1.75 21.12, 0 14 M0 14 C1.45 6.5, 4.79 0.1, 14 0" stroke="#a61e4d" stroke-width="4.5" fill="none" stroke-dasharray="1.5 10"></path></g><g stroke-linecap="round"><g transform="translate(211.5297618623827 905.3705733413675) rotate(0 177.24903636462963 -225.36564295180153)"><path d="M-0.5 0.31 C58.48 -75.01, 295.8 -376.04, 355 -451.05" stroke="#a61e4d" stroke-width="4.5" fill="none" stroke-dasharray="1.5 10"></path></g></g><mask></mask></svg>