<svg version="1.1" xmlns="http://www.w3.org/2000/svg" viewBox="0 0 1175.8333333333326 1466.6666666666658" width="1175.8333333333326" height="1466.6666666666658">
  <!-- svg-source:excalidraw -->
  
  <defs>
    <style class="style-fonts">
      @font-face {
        font-family: "Virgil";
        src: url("https://excalidraw.com/Virgil.woff2");
      }
      @font-face {
        font-family: "Cascadia";
        src: url("https://excalidraw.com/Cascadia.woff2");
      }
    </style>
    
  </defs>
  <rect x="0" y="0" width="1175.8333333333326" height="1466.6666666666658" fill="#ffffff"></rect><g stroke-linecap="round" transform="translate(10 76.6666666666668) rotate(0 577.9166666666663 689.9999999999995)"><path d="M32 0 M32 0 C263.97 -3.41, 495.1 -3.67, 1123.83 0 M32 0 C319.36 -3.8, 607.16 -3.34, 1123.83 0 M1123.83 0 C1144.83 1.64, 1156.58 11.43, 1155.83 32 M1123.83 0 C1144.24 -1.62, 1156.6 10.9, 1155.83 32 M1155.83 32 C1160 348.97, 1158.91 665.53, 1155.83 1348 M1155.83 32 C1159.7 538.79, 1160 1045.77, 1155.83 1348 M1155.83 1348 C1154.01 1368.47, 1144.74 1381.6, 1123.83 1380 M1155.83 1348 C1154.6 1369.48, 1147.26 1379.4, 1123.83 1380 M1123.83 1380 C787.68 1381.81, 451.56 1382.5, 32 1380 M1123.83 1380 C823.18 1376.73, 523.28 1377.21, 32 1380 M32 1380 C10.58 1379.89, 1.72 1371.04, 0 1348 M32 1380 C8.92 1378.95, -1.01 1369.34, 0 1348 M0 1348 C3.4 1003.31, 4.58 657.64, 0 32 M0 1348 C-0.23 939.33, 0.47 530.12, 0 32 M0 32 C-1.23 12.08, 11.14 0.06, 32 0 M0 32 C-1.93 11.92, 8.42 1.45, 32 0" stroke="#000000" stroke-width="1" fill="none"></path></g><g stroke-linecap="round" transform="translate(372.8333333333326 177.99999999999994) rotate(0 86.66666666666646 91.66666666666663)"><path d="M105.2 1.73 C115.69 2.82, 125.72 10.05, 134.79 16.64 C143.85 23.24, 153.29 31.58, 159.6 41.31 C165.91 51.04, 170.6 63.57, 172.65 75.02 C174.69 86.48, 174.4 98.58, 171.88 110.02 C169.37 121.45, 163.83 134.03, 157.55 143.66 C151.28 153.29, 143.23 161.58, 134.22 167.78 C125.21 173.99, 114.28 178.65, 103.47 180.9 C92.67 183.14, 80.5 183.63, 69.41 181.24 C58.32 178.86, 46 173.02, 36.93 166.58 C27.86 160.14, 20.99 152.35, 15 142.63 C9 132.9, 3.12 119.79, 0.94 108.22 C-1.24 96.65, -0.53 84.73, 1.94 73.2 C4.4 61.68, 9.61 48.84, 15.75 39.09 C21.89 29.35, 29.51 21.08, 38.78 14.75 C48.05 8.41, 58.34 2.4, 71.38 1.06 C84.42 -0.29, 107.62 4.65, 117.01 6.69 C126.39 8.72, 128.06 11.87, 127.7 13.25 M104.6 1.62 C115.49 2.15, 127.45 8.44, 136.45 15.02 C145.46 21.61, 152.48 30.96, 158.61 41.16 C164.75 51.36, 171.12 64.63, 173.25 76.21 C175.37 87.78, 173.69 99.16, 171.38 110.6 C169.07 122.04, 165.84 135.29, 159.41 144.83 C152.97 154.37, 142.36 161.68, 132.76 167.84 C123.17 174, 112.62 179.72, 101.84 181.79 C91.07 183.86, 78.82 182.81, 68.12 180.26 C57.42 177.71, 46.5 172.71, 37.64 166.52 C28.77 160.32, 20.95 152.77, 14.91 143.11 C8.88 133.45, 3.62 120.2, 1.44 108.57 C-0.74 96.95, -0.21 84.61, 1.84 73.38 C3.89 62.15, 7.29 50.82, 13.74 41.2 C20.19 31.58, 31.19 22.1, 40.55 15.67 C49.91 9.23, 59.17 4.88, 69.91 2.61 C80.65 0.33, 99.49 1.71, 105.01 2.04 C110.53 2.37, 103.64 2.96, 103.03 4.6" stroke="#000000" stroke-width="1" fill="none"></path></g><g transform="translate(406.1666666666665 261.3333333333333) rotate(0 46.13333511352539 12.5)"><text x="0" y="0" font-family="Virgil, Segoe UI Emoji" font-size="20px" fill="#000000" text-anchor="start" style="white-space: pre;" direction="ltr" dominant-baseline="text-before-edge">New wash</text></g><g stroke-linecap="round" transform="translate(532.8333333333337 554.8333333333335) rotate(0 102.66666666666617 76.99999999999991)"><path d="M92.18 0.27 C104.64 -1.96, 119.92 0.77, 132.48 3.51 C145.04 6.24, 157.58 10.52, 167.52 16.68 C177.46 22.84, 185.88 31.88, 192.1 40.48 C198.33 49.07, 203.23 58.66, 204.86 68.23 C206.48 77.8, 205.51 88.41, 201.88 97.9 C198.24 107.4, 191.53 117.56, 183.03 125.21 C174.54 132.86, 162.35 138.94, 150.91 143.8 C139.48 148.65, 127.39 153.23, 114.42 154.33 C101.45 155.44, 85.79 153.26, 73.11 150.41 C60.42 147.55, 48.28 143.45, 38.29 137.21 C28.31 130.96, 19.56 121.65, 13.2 112.94 C6.84 104.23, 1.52 94.67, 0.15 84.96 C-1.22 75.26, 1.2 63.95, 4.98 54.72 C8.76 45.49, 14.79 37.09, 22.84 29.55 C30.88 22.01, 39.92 14.3, 53.26 9.48 C66.6 4.65, 93.02 2, 102.87 0.58 C112.73 -0.84, 112.39 -0.21, 112.4 0.97 M89.25 0.04 C101.5 -1.9, 118.55 1.36, 131.29 4.05 C144.02 6.73, 155.33 10.12, 165.65 16.15 C175.98 22.18, 186.93 31.8, 193.22 40.23 C199.51 48.67, 202.11 57.25, 203.41 66.78 C204.7 76.32, 204.38 88.04, 201 97.44 C197.61 106.84, 191.05 115.58, 183.12 123.21 C175.19 130.84, 164.56 137.95, 153.42 143.23 C142.28 148.51, 129.28 153.53, 116.28 154.89 C103.28 156.25, 88.19 154.13, 75.4 151.4 C62.62 148.67, 50.14 144.32, 39.56 138.5 C28.98 132.67, 18.2 124.98, 11.93 116.47 C5.65 107.95, 3.43 97.19, 1.9 87.38 C0.38 77.58, -0.59 67.23, 2.76 57.63 C6.11 48.02, 14.01 37.55, 22 29.75 C29.99 21.96, 39.6 15.57, 50.68 10.87 C61.77 6.17, 82.11 3.23, 88.5 1.54 C94.88 -0.15, 88.54 -0.4, 88.98 0.75" stroke="#000000" stroke-width="1" fill="none"></path></g><g transform="translate(552.8333333333328 601.3333333333335) rotate(0 82.68333435058594 37.5)"><text x="0" y="0" font-family="Virgil, Segoe UI Emoji" font-size="20px" fill="#000000" text-anchor="start" style="white-space: pre;" direction="ltr" dominant-baseline="text-before-edge">Search for </text><text x="0" y="25" font-family="Virgil, Segoe UI Emoji" font-size="20px" fill="#000000" text-anchor="start" style="white-space: pre;" direction="ltr" dominant-baseline="text-before-edge">the next active </text><text x="0" y="50" font-family="Virgil, Segoe UI Emoji" font-size="20px" fill="#000000" text-anchor="start" style="white-space: pre;" direction="ltr" dominant-baseline="text-before-edge">wash-cycle</text></g><g stroke-linecap="round" transform="translate(918.9999999999989 294.33333333333314) rotate(0 103.33333333333326 103.33333333333337)"><path d="M95.01 -0.03 C106.39 -2.64, 119.81 1.04, 131.7 4.51 C143.6 7.98, 156.26 13.4, 166.37 20.78 C176.48 28.17, 185.82 38.09, 192.34 48.8 C198.87 59.5, 203.61 72.76, 205.53 85.01 C207.44 97.27, 206.18 109.96, 203.86 122.33 C201.53 134.69, 198.18 148.62, 191.6 159.2 C185.02 169.79, 174.49 178.5, 164.37 185.83 C154.26 193.17, 142.7 200, 130.92 203.23 C119.13 206.47, 106.12 206.56, 93.65 205.23 C81.18 203.9, 67.17 200.82, 56.1 195.25 C45.03 189.67, 35.44 180.87, 27.21 171.8 C18.99 162.72, 11.32 152.33, 6.75 140.8 C2.17 129.26, -0.5 115.08, -0.26 102.59 C-0.02 90.09, 3.49 77.54, 8.19 65.81 C12.89 54.08, 19.5 41.45, 27.95 32.22 C36.4 22.99, 45.69 15.71, 58.91 10.43 C72.12 5.16, 97.17 1.82, 107.22 0.57 C117.27 -0.68, 119.28 1.16, 119.19 2.95 M147.53 10.6 C158.77 13.95, 167.79 21.79, 176.16 30.49 C184.52 39.18, 192.73 51.39, 197.71 62.77 C202.69 74.14, 205.51 86.44, 206.04 98.75 C206.58 111.07, 204.78 124.48, 200.92 136.66 C197.07 148.83, 191 162.19, 182.92 171.81 C174.85 181.43, 163.59 188.59, 152.49 194.38 C141.38 200.18, 128.89 204.8, 116.3 206.57 C103.71 208.35, 88.84 208.02, 76.96 205.05 C65.08 202.07, 55.09 195.93, 45 188.71 C34.92 181.5, 23.48 172.23, 16.45 161.74 C9.41 151.25, 5.57 137.98, 2.82 125.79 C0.06 113.61, -1.65 100.76, -0.08 88.61 C1.48 76.46, 6.03 64.05, 12.22 52.89 C18.41 41.73, 27.17 29.61, 37.07 21.66 C46.97 13.7, 59.55 8.87, 71.6 5.16 C83.66 1.44, 97.21 -1.14, 109.41 -0.63 C121.62 -0.12, 139.08 6.19, 144.84 8.23 C150.6 10.27, 144.24 9.68, 143.96 11.62" stroke="#000000" stroke-width="1" fill="none"></path></g><g transform="translate(947.3333333333319 368.49999999999966) rotate(0 72.18333435058594 25)"><text x="0" y="0" font-family="Virgil, Segoe UI Emoji" font-size="20px" fill="#000000" text-anchor="start" style="white-space: pre;" direction="ltr" dominant-baseline="text-before-edge">Initialize </text><text x="0" y="25" font-family="Virgil, Segoe UI Emoji" font-size="20px" fill="#000000" text-anchor="start" style="white-space: pre;" direction="ltr" dominant-baseline="text-before-edge">new wash cycle</text></g><g mask="url(#mask-g5pi1T25Ajz0XGV1UhzEW)" stroke-linecap="round"><g transform="translate(918.1856147304413 403.88737034530163) rotate(0 -183.70148892576074 -47.58726363485378)"><path d="M0.45 0.46 C-60.83 -15.65, -306.61 -79.78, -367.85 -95.63" stroke="#000000" stroke-width="1.5" fill="none" stroke-dasharray="8 9"></path></g><g transform="translate(918.1856147304413 403.88737034530163) rotate(0 -183.70148892576074 -47.58726363485378)"><path d="M-2.77 14.37 C-3.45 11.34, -1.16 5.85, 1.53 -0.81" stroke="#000000" stroke-width="1.5" fill="none"></path></g><g transform="translate(918.1856147304413 403.88737034530163) rotate(0 -183.70148892576074 -47.58726363485378)"><path d="M4.81 -14.66 C2.22 -9.44, 2.36 -6.71, 1.53 -0.81" stroke="#000000" stroke-width="1.5" fill="none"></path></g><g transform="translate(918.1856147304413 403.88737034530163) rotate(0 -183.70148892576074 -47.58726363485378)"><path d="M-337.22 -99.27 C-347.83 -96.89, -354.67 -97.93, -366.41 -97.32" stroke="#000000" stroke-width="1.5" fill="none"></path></g><g transform="translate(918.1856147304413 403.88737034530163) rotate(0 -183.70148892576074 -47.58726363485378)"><path d="M-342.39 -79.41 C-351.69 -82.67, -357.07 -89.33, -366.41 -97.32" stroke="#000000" stroke-width="1.5" fill="none"></path></g></g><mask id="mask-g5pi1T25Ajz0XGV1UhzEW"><rect x="0" y="0" fill="#fff" width="1385.5539798570328" height="598.6710525166627"></rect><rect x="677.1264321671456" y="343.9955292596211" fill="#000" width="114.75" height="25" opacity="1"></rect></mask><g transform="translate(677.1264321671456 343.9955292596211) rotate(0 57.35769363753499 12.304577450826763)"><text x="57.375" y="0" font-family="Virgil, Segoe UI Emoji" font-size="20px" fill="#000000" text-anchor="middle" style="white-space: pre;" direction="ltr" dominant-baseline="text-before-edge">&lt;&lt;exclude&gt;&gt;</text></g><g stroke-linecap="round" transform="translate(950.3333333333328 82.33333333333331) rotate(0 98.33333333333326 90.33333333333326)"><path d="M70.19 3.76 C80.88 -0.75, 94.46 -1.66, 107 -0.38 C119.55 0.89, 134.35 5.92, 145.47 11.4 C156.6 16.89, 165.89 23.69, 173.73 32.52 C181.57 41.34, 188.66 53.39, 192.51 64.33 C196.37 75.28, 198.19 86.82, 196.88 98.21 C195.57 109.59, 190.54 122.41, 184.66 132.64 C178.77 142.87, 171.18 152.08, 161.57 159.58 C151.96 167.09, 139.19 174.21, 127.01 177.67 C114.83 181.12, 100.85 181.5, 88.5 180.32 C76.16 179.14, 63.9 176.2, 52.95 170.61 C42 165.02, 30.75 155.81, 22.78 146.8 C14.82 137.8, 8.9 127.38, 5.14 116.59 C1.38 105.79, -0.73 93.57, 0.22 82.03 C1.17 70.49, 4.98 57.43, 10.86 47.33 C16.75 37.24, 24.06 29.06, 35.53 21.46 C47 13.87, 70.88 4.81, 79.66 1.75 C88.44 -1.3, 87.9 1.8, 88.22 3.15 M75.46 1.28 C86.83 -2.68, 101.78 -1.82, 114.4 0.49 C127.02 2.8, 140.55 8.88, 151.19 15.12 C161.83 21.35, 171.12 28.65, 178.26 37.89 C185.41 47.14, 191.45 59.14, 194.05 70.57 C196.66 82, 195.72 95.1, 193.87 106.49 C192.02 117.88, 189.48 129.18, 182.94 138.91 C176.41 148.63, 164.99 158.26, 154.67 164.84 C144.34 171.41, 133.27 175.78, 121 178.36 C108.73 180.93, 93.72 182, 81.04 180.27 C68.36 178.54, 55.57 174.43, 44.92 167.98 C34.28 161.53, 24.23 151.06, 17.16 141.56 C10.08 132.07, 5.1 122.15, 2.46 111.03 C-0.17 99.9, -0.48 86.38, 1.35 74.79 C3.18 63.21, 7.06 51.1, 13.44 41.52 C19.83 31.94, 29.03 23.64, 39.66 17.31 C50.29 10.97, 71.24 5.55, 77.22 3.5 C83.21 1.46, 75.22 3.68, 75.58 5.04" stroke="#000000" stroke-width="1" fill="none"></path></g><g mask="url(#mask-pDhE3ipbGA1iX8CxxsqAC)" stroke-linecap="round"><g transform="translate(945.7399279586423 201.25778603520763) rotate(0 -199.37280505495926 14.631707420292003)"><path d="M-0.71 0.87 C-67.11 5.58, -331.95 24.08, -398.04 28.4" stroke="#000000" stroke-width="1.5" fill="none" stroke-dasharray="8 9"></path></g><g transform="translate(945.7399279586423 201.25778603520763) rotate(0 -199.37280505495926 14.631707420292003)"><path d="M1.42 14.56 C0.68 10.61, -1.72 4.64, 0.57 2.02" stroke="#000000" stroke-width="1.5" fill="none"></path></g><g transform="translate(945.7399279586423 201.25778603520763) rotate(0 -199.37280505495926 14.631707420292003)"><path d="M-0.67 -15.36 C-0.69 -9.33, -2.39 -5.34, 0.57 2.02" stroke="#000000" stroke-width="1.5" fill="none"></path></g><g transform="translate(945.7399279586423 201.25778603520763) rotate(0 -199.37280505495926 14.631707420292003)"><path d="M-369.16 14.56 C-378.79 19.83, -390.66 22.56, -396.34 29.94" stroke="#000000" stroke-width="1.5" fill="none"></path></g><g transform="translate(945.7399279586423 201.25778603520763) rotate(0 -199.37280505495926 14.631707420292003)"><path d="M-367.77 35.04 C-377.89 33.48, -390.22 29.39, -396.34 29.94" stroke="#000000" stroke-width="1.5" fill="none"></path></g></g><mask id="mask-pDhE3ipbGA1iX8CxxsqAC"><rect x="0" y="0" fill="#fff" width="1442.7642857247572" height="329.0930886214999"></rect><rect x="689.8527490755848" y="202.67543732835378" fill="#000" width="114.75" height="25" opacity="1"></rect></mask><g transform="translate(689.8527490755848 202.67543732835378) rotate(0 56.5143738280982 13.214056127145852)"><text x="57.375" y="0" font-family="Virgil, Segoe UI Emoji" font-size="20px" fill="#000000" text-anchor="middle" style="white-space: pre;" direction="ltr" dominant-baseline="text-before-edge">&lt;&lt;exclude&gt;&gt;</text></g><g transform="translate(986.9999999999989 139.66666666666657) rotate(0 66.19999694824219 37.5)"><text x="0" y="0" font-family="Virgil, Segoe UI Emoji" font-size="20px" fill="#000000" text-anchor="start" style="white-space: pre;" direction="ltr" dominant-baseline="text-before-edge">Add created </text><text x="0" y="25" font-family="Virgil, Segoe UI Emoji" font-size="20px" fill="#000000" text-anchor="start" style="white-space: pre;" direction="ltr" dominant-baseline="text-before-edge">wash id to </text><text x="0" y="50" font-family="Virgil, Segoe UI Emoji" font-size="20px" fill="#000000" text-anchor="start" style="white-space: pre;" direction="ltr" dominant-baseline="text-before-edge">wash cycle</text></g><g stroke-linecap="round" transform="translate(97.49999999999955 517.6666666666665) rotate(0 105.99999999999989 106.99999999999997)"><path d="M145.9 8.11 C157.96 11.09, 170.06 19.38, 179.28 28.12 C188.49 36.86, 195.63 48.87, 201.16 60.56 C206.7 72.24, 211.42 85.18, 212.48 98.22 C213.55 111.25, 211.42 126.32, 207.56 138.76 C203.71 151.2, 197.05 162.75, 189.34 172.86 C181.64 182.96, 172.17 192.95, 161.33 199.4 C150.49 205.85, 136.89 209.5, 124.3 211.58 C111.72 213.65, 98.45 214.16, 85.83 211.83 C73.2 209.5, 59.6 204.61, 48.58 197.59 C37.57 190.57, 27.29 180.02, 19.73 169.7 C12.17 159.37, 6.29 148, 3.25 135.62 C0.21 123.25, 0.05 108.28, 1.47 95.46 C2.89 82.64, 5.92 70.28, 11.79 58.71 C17.65 47.15, 27.15 34.83, 36.64 26.08 C46.14 17.33, 56.93 10.62, 68.76 6.21 C80.59 1.8, 93.62 -1.22, 107.62 -0.36 C121.62 0.49, 144.14 8.31, 152.75 11.35 C161.36 14.39, 159.78 16.29, 159.27 17.88 M110.26 1.58 C122.65 0.6, 138.97 5.08, 150.7 10.32 C162.43 15.56, 171.8 23.96, 180.62 33.01 C189.45 42.05, 198.66 52.82, 203.66 64.6 C208.67 76.39, 210.48 90.7, 210.67 103.72 C210.85 116.75, 208.92 130.94, 204.77 142.76 C200.62 154.58, 193.78 164.92, 185.77 174.64 C177.77 184.36, 167.73 194.81, 156.74 201.09 C145.75 207.36, 132.71 210.82, 119.84 212.28 C106.97 213.74, 92.16 212.71, 79.51 209.86 C66.87 207.02, 54.03 202.2, 43.99 195.2 C33.95 188.21, 26.32 178.52, 19.27 167.91 C12.23 157.31, 4.57 144.27, 1.73 131.59 C-1.1 118.92, 0.02 105, 2.27 91.87 C4.52 78.73, 8.93 64.15, 15.25 52.78 C21.57 41.4, 30.7 31.36, 40.18 23.61 C49.67 15.86, 60.2 10.33, 72.17 6.27 C84.15 2.21, 105.7 -0.07, 112.04 -0.74 C118.38 -1.41, 110.3 0.25, 110.22 2.24" stroke="#000000" stroke-width="1" fill="none"></path></g><g transform="translate(105.49999999999932 609.6666666666665) rotate(0 95.375 12.5)"><text x="0" y="0" font-family="Virgil, Segoe UI Emoji" font-size="20px" fill="#000000" text-anchor="start" style="white-space: pre;" direction="ltr" dominant-baseline="text-before-edge">Search licensePlate</text></g><g mask="url(#mask-ph8VUGGvZaB1Cc6Xhfi7h)" stroke-linecap="round"><g transform="translate(327.4397901038576 612.4964781006056) rotate(0 98.45291073399702 13.254838863648992)"><path d="M-0.55 0.12 C32.21 4.8, 164.7 23.05, 197.46 27.37 M1.36 -0.86 C33.91 3.54, 163.86 21.02, 196.69 25.67" stroke="#000000" stroke-width="1" fill="none"></path></g><g transform="translate(327.4397901038576 612.4964781006056) rotate(0 98.45291073399702 13.254838863648992)"><path d="M196.26 25.35 L181.99 28.67 L183.4 17.14 L197.78 27.29" stroke="none" stroke-width="0" fill="#000000" fill-rule="evenodd"></path><path d="M196.84 26.1 C192.28 25.9, 185.21 28.62, 183.56 29.29 M196.75 26.35 C192.77 27.3, 187.28 29.01, 182.33 29.91 M181.89 31.26 C184.14 25.67, 183.58 22.44, 185.17 16.58 M182.12 29.64 C182.86 26.6, 183.68 24.34, 184.08 17.61 M185.51 18.65 C188.72 19.15, 192.67 22.85, 196.73 24.41 M183.47 16.85 C188.42 20.44, 192.95 22.82, 195.99 25.12 M196.69 25.67 C196.69 25.67, 196.69 25.67, 196.69 25.67 M196.69 25.67 C196.69 25.67, 196.69 25.67, 196.69 25.67" stroke="#000000" stroke-width="1" fill="none"></path></g></g><mask id="mask-ph8VUGGvZaB1Cc6Xhfi7h"><rect x="0" y="0" fill="#fff" width="624.5508333894941" height="739.0491982035725"></rect><rect x="409.0453109837364" y="613.272838152089" fill="#000" width="33.900001525878906" height="25" opacity="1"></rect></mask><g transform="translate(409.0453109837364 613.2728381520892) rotate(0 16.847389854118234 12.478478812165555)"><text x="16.950000762939453" y="0" font-family="Virgil, Segoe UI Emoji" font-size="20px" fill="#000000" text-anchor="middle" style="white-space: pre;" direction="ltr" dominant-baseline="text-before-edge">call</text></g><g mask="url(#mask-mOHJTgy-7k36nUi8uguF5)" stroke-linecap="round"><g transform="translate(408.23123503687543 357.2402725045392) rotate(0 -66.18867836582308 78.78848309003153)"><path d="M-1.1 -0.52 C-23.03 25.69, -109.52 131.81, -131.28 158.1" stroke="#000000" stroke-width="1.5" fill="none" stroke-dasharray="8 9"></path></g><g transform="translate(408.23123503687543 357.2402725045392) rotate(0 -66.18867836582308 78.78848309003153)"><path d="M9.85 8.67 C7.82 4.96, 2.91 4, -1.49 -0.4" stroke="#000000" stroke-width="1.5" fill="none"></path></g><g transform="translate(408.23123503687543 357.2402725045392) rotate(0 -66.18867836582308 78.78848309003153)"><path d="M-13.34 -10.36 C-7.62 -7.61, -4.91 -2.31, -1.49 -0.4" stroke="#000000" stroke-width="1.5" fill="none"></path></g><g transform="translate(408.23123503687543 357.2402725045392) rotate(0 -66.18867836582308 78.78848309003153)"><path d="M-122.19 129.37 C-122.81 137.94, -127.55 150.13, -131.81 158.26" stroke="#000000" stroke-width="1.5" fill="none"></path></g><g transform="translate(408.23123503687543 357.2402725045392) rotate(0 -66.18867836582308 78.78848309003153)"><path d="M-106.33 142.39 C-112.25 146.53, -122.2 154.45, -131.81 158.26" stroke="#000000" stroke-width="1.5" fill="none"></path></g></g><mask id="mask-mOHJTgy-7k36nUi8uguF5"><rect x="0" y="0" fill="#fff" width="639.2541975971346" height="614.3782857044117"></rect><rect x="285.34475375674583" y="423.3092791044754" fill="#000" width="114.75" height="25" opacity="1"></rect></mask><g transform="translate(285.34475375674583 423.3092791044754) rotate(0 56.69780291430652 12.71947649009526)"><text x="57.375" y="0" font-family="Virgil, Segoe UI Emoji" font-size="20px" fill="#000000" text-anchor="middle" style="white-space: pre;" direction="ltr" dominant-baseline="text-before-edge">&lt;&lt;exclude&gt;&gt;</text></g><g stroke-linecap="round" transform="translate(571.4999999999993 788.1666666666665) rotate(0 94.75000000000011 95.25)"><path d="M137.32 10.28 C148.39 13.88, 158.24 22.34, 166.23 31.36 C174.22 40.37, 181.47 52.62, 185.27 64.35 C189.08 76.07, 190.09 89.65, 189.07 101.7 C188.04 113.75, 184.47 125.68, 179.13 136.66 C173.8 147.64, 165.86 159.49, 157.06 167.6 C148.26 175.71, 137.7 181.38, 126.32 185.31 C114.93 189.24, 100.83 192.05, 88.76 191.18 C76.7 190.3, 64.86 185.6, 53.94 180.04 C43.01 174.48, 31.37 166.87, 23.23 157.82 C15.1 148.77, 9.08 137.16, 5.12 125.74 C1.16 114.33, -1.21 101.27, -0.53 89.31 C0.14 77.34, 3.57 64.89, 9.17 53.97 C14.77 43.05, 23.9 31.95, 33.07 23.81 C42.23 15.66, 52.8 9.21, 64.15 5.11 C75.5 1.01, 88.05 -2.18, 101.17 -0.8 C114.28 0.58, 135.26 10.43, 142.85 13.38 C150.44 16.32, 147.53 15.59, 146.71 16.89 M94.69 0.96 C106.2 -0.7, 119.74 1.74, 131.07 6.43 C142.39 11.12, 154 20.29, 162.63 29.1 C171.26 37.91, 178.61 48.22, 182.85 59.3 C187.09 70.38, 188.51 83.21, 188.09 95.57 C187.67 107.92, 184.68 121.88, 180.33 133.41 C175.97 144.94, 170.53 156.19, 161.95 164.74 C153.36 173.29, 140.06 180.33, 128.82 184.7 C117.57 189.08, 106.17 191.55, 94.48 190.98 C82.78 190.41, 69.71 186.27, 58.63 181.29 C47.56 176.3, 36.83 169.39, 28.02 161.07 C19.2 152.75, 10.36 142.74, 5.74 131.38 C1.12 120.03, 0.21 105.26, 0.31 92.94 C0.42 80.62, 1.55 68.39, 6.36 57.45 C11.17 46.51, 20.22 35.74, 29.18 27.29 C38.15 18.83, 49.03 11.31, 60.14 6.73 C71.25 2.14, 89.88 0.75, 95.83 -0.23 C101.78 -1.21, 95.91 -0.73, 95.85 0.84" stroke="#000000" stroke-width="1" fill="none"></path></g><g transform="translate(622.4999999999993 863.6666666666665) rotate(0 39.33333206176758 25)"><text x="0" y="0" font-family="Virgil, Segoe UI Emoji" font-size="20px" fill="#000000" text-anchor="start" style="white-space: pre;" direction="ltr" dominant-baseline="text-before-edge">Confirm </text><text x="0" y="25" font-family="Virgil, Segoe UI Emoji" font-size="20px" fill="#000000" text-anchor="start" style="white-space: pre;" direction="ltr" dominant-baseline="text-before-edge">wash</text></g><g mask="url(#mask-Y0EUnfBvbutdw1zLE2W78)" stroke-linecap="round"><g transform="translate(566.4876370499753 848.7589185010943) rotate(0 -130.28310950419927 -73.69185080726554)"><path d="M0.1 1.09 C-43.53 -23.6, -216.91 -123.64, -260.66 -148.47" stroke="#000000" stroke-width="1.5" fill="none" stroke-dasharray="8 9"></path></g><g transform="translate(566.4876370499753 848.7589185010943) rotate(0 -130.28310950419927 -73.69185080726554)"><path d="M-6.01 14.97 C-3.79 7.67, -0.16 3.87, -0.27 1.82" stroke="#000000" stroke-width="1.5" fill="none"></path></g><g transform="translate(566.4876370499753 848.7589185010943) rotate(0 -130.28310950419927 -73.69185080726554)"><path d="M8.93 -11.05 C5.24 -8.16, 3.02 -1.79, -0.27 1.82" stroke="#000000" stroke-width="1.5" fill="none"></path></g><g transform="translate(566.4876370499753 848.7589185010943) rotate(0 -130.28310950419927 -73.69185080726554)"><path d="M-229.29 -142.21 C-241.81 -147.12, -252.43 -147.4, -261.16 -147.5" stroke="#000000" stroke-width="1.5" fill="none"></path></g><g transform="translate(566.4876370499753 848.7589185010943) rotate(0 -130.28310950419927 -73.69185080726554)"><path d="M-239.49 -124.4 C-247.98 -136.28, -254.61 -143.53, -261.16 -147.5" stroke="#000000" stroke-width="1.5" fill="none"></path></g></g><mask id="mask-Y0EUnfBvbutdw1zLE2W78"><rect x="0" y="0" fill="#fff" width="927.8460665203182" height="1097.7338286309416"></rect><rect x="378.4334223148039" y="761.7714634361706" fill="#000" width="114.75" height="25" opacity="1"></rect></mask><g transform="translate(378.4334223148039 761.7714634361706) rotate(0 57.77110523097218 13.295604257658127)"><text x="57.375" y="0" font-family="Virgil, Segoe UI Emoji" font-size="20px" fill="#000000" text-anchor="middle" style="white-space: pre;" direction="ltr" dominant-baseline="text-before-edge">&lt;&lt;exclude&gt;&gt;</text></g><g mask="url(#mask-XpTSopJa3_L2GCQr2m4rm)" stroke-linecap="round"><g transform="translate(550.1792620097392 677.5939316253985) rotate(0 -117.33905598635484 -9.08305923032853)"><path d="M-1.07 1.07 C-40.12 -2.22, -194.96 -15.76, -233.61 -19.23" stroke="#000000" stroke-width="1.5" fill="none" stroke-dasharray="8 9"></path></g><g transform="translate(550.1792620097392 677.5939316253985) rotate(0 -117.33905598635484 -9.08305923032853)"><path d="M-233.74 -18.97 L-219.47 -25.42 L-222.49 -13.18 L-235.5 -18.68" stroke="none" stroke-width="0" fill="#000000" fill-rule="evenodd"></path><path d="M-232.28 -19.28 C-228.96 -20.21, -224.62 -23.48, -220.06 -22.98 M-218.42 -23.27 C-220.91 -20.06, -220.93 -14.61, -221.11 -12.63 M-219.14 -11.73 C-224.35 -13.96, -227.7 -17.65, -232.19 -18.12 M-233.61 -19.23 C-233.61 -19.23, -233.61 -19.23, -233.61 -19.23" stroke="#000000" stroke-width="1.5" fill="none"></path></g></g><mask id="mask-XpTSopJa3_L2GCQr2m4rm"><rect x="0" y="0" fill="#fff" width="883.750439556469" height="796.528373612587"></rect><rect x="411.368673617844" y="655.6267106318043" fill="#000" width="44.04999923706055" height="25" opacity="1"></rect></mask><g transform="translate(411.368673617844 655.6267106318041) rotate(0 21.471532405540344 12.884161763265723)"><text x="22.024999618530273" y="0" font-family="Virgil, Segoe UI Emoji" font-size="20px" fill="#000000" text-anchor="middle" style="white-space: pre;" direction="ltr" dominant-baseline="text-before-edge">reply</text></g><g stroke-linecap="round" transform="translate(53.49999999999977 1207.6666666666665) rotate(0 109.99999999999977 112)"><path d="M84.86 3.13 C96.73 -1.6, 111.18 0.18, 124.31 1.82 C137.44 3.46, 152.09 6.73, 163.65 12.98 C175.2 19.24, 185.23 28.98, 193.63 39.36 C202.03 49.73, 209.77 62.39, 214.03 75.22 C218.29 88.05, 219.79 102.7, 219.2 116.34 C218.61 129.98, 215.46 144.69, 210.48 157.06 C205.51 169.44, 198.56 181.08, 189.36 190.58 C180.16 200.08, 167.46 208.7, 155.3 214.08 C143.14 219.46, 129.49 222, 116.4 222.85 C103.32 223.71, 89.36 223.33, 76.79 219.21 C64.21 215.08, 51.24 206.71, 40.94 198.09 C30.65 189.47, 21.64 179.25, 15.02 167.48 C8.4 155.71, 3.16 141.02, 1.2 127.48 C-0.75 113.93, 0.24 99.36, 3.28 86.21 C6.31 73.06, 12.25 59.62, 19.41 48.59 C26.57 37.55, 34.76 27.74, 46.23 20.02 C57.7 12.3, 80.59 5.14, 88.22 2.27 C95.85 -0.61, 91.8 1.09, 92.02 2.76 M124.2 1.98 C136.89 1.91, 152.6 8.43, 164.57 14.59 C176.53 20.76, 187.51 28.76, 196 38.96 C204.49 49.15, 211.69 62.6, 215.52 75.78 C219.34 88.96, 219.7 104.65, 218.94 118.06 C218.19 131.47, 216.39 144.08, 210.97 156.25 C205.56 168.42, 195.79 181.31, 186.45 191.07 C177.12 200.83, 166.78 209.33, 154.96 214.79 C143.14 220.26, 128.89 223.35, 115.53 223.88 C102.17 224.42, 87.48 222.44, 74.82 217.99 C62.15 213.54, 49.76 205.78, 39.53 197.16 C29.3 188.54, 19.71 177.68, 13.44 166.29 C7.16 154.89, 3.61 141.91, 1.89 128.79 C0.16 115.67, 0.23 101.14, 3.09 87.57 C5.95 74, 11.67 58.87, 19.04 47.36 C26.41 35.86, 36.56 25.7, 47.28 18.55 C58.01 11.4, 70.41 7.14, 83.4 4.46 C96.4 1.78, 118.29 2.91, 125.25 2.47 C132.21 2.03, 125.59 0.38, 125.16 1.84" stroke="#000000" stroke-width="1" fill="none"></path></g><g transform="translate(93.49999999999977 1299.6666666666665) rotate(0 69.94166564941406 12.5)"><text x="0" y="0" font-family="Virgil, Segoe UI Emoji" font-size="20px" fill="#000000" text-anchor="start" style="white-space: pre;" direction="ltr" dominant-baseline="text-before-edge">Create vehicle</text></g><g mask="url(#mask-KQbOsfz2fnQR9JOowpdWW)" stroke-linecap="round"><g transform="translate(184.4840664321432 1182.8869602532222) rotate(0 -10.41771333056733 -217.92064259270134)"><path d="M1.1 1.03 C-2.46 -71.71, -18.28 -364.07, -21.93 -436.87" stroke="#000000" stroke-width="1.5" fill="none" stroke-dasharray="8 9"></path></g><g transform="translate(184.4840664321432 1182.8869602532222) rotate(0 -10.41771333056733 -217.92064259270134)"><path d="M-8.5 -409.34 C-13.18 -414.39, -14.32 -424.6, -22.85 -437.74" stroke="#000000" stroke-width="1.5" fill="none"></path></g><g transform="translate(184.4840664321432 1182.8869602532222) rotate(0 -10.41771333056733 -217.92064259270134)"><path d="M-28.99 -408.27 C-28.5 -413.77, -24.47 -424.25, -22.85 -437.74" stroke="#000000" stroke-width="1.5" fill="none"></path></g></g><mask id="mask-KQbOsfz2fnQR9JOowpdWW"><rect x="0" y="0" fill="#fff" width="306.36331979476995" height="1719.6869531623915"></rect><rect x="116.16943975082984" y="951.9869637986377" fill="#000" width="114.75" height="25" opacity="1"></rect></mask><g transform="translate(116.16943975082984 951.9869637986376) rotate(0 57.89691335074604 12.979353861883254)"><text x="57.375" y="0" font-family="Virgil, Segoe UI Emoji" font-size="20px" fill="#000000" text-anchor="middle" style="white-space: pre;" direction="ltr" dominant-baseline="text-before-edge">&lt;&lt;exclude&gt;&gt;</text></g><g stroke-linecap="round" transform="translate(482.66626506811986 1032.190311286056) rotate(0 89.99999999999977 82)"><path d="M56.68 5.45 C66.9 0.46, 80.73 -0.52, 92.84 0.08 C104.96 0.69, 118.13 4.16, 129.35 9.08 C140.58 13.99, 152.31 21.13, 160.2 29.58 C168.1 38.02, 173.51 49.2, 176.74 59.74 C179.96 70.27, 181.17 81.68, 179.55 92.81 C177.94 103.94, 173.55 117.06, 167.05 126.52 C160.55 135.98, 150.74 143.49, 140.55 149.58 C130.36 155.67, 118.04 161.22, 105.92 163.06 C93.8 164.9, 79.7 163.57, 67.85 160.63 C55.99 157.69, 44.28 152.29, 34.8 145.4 C25.32 138.52, 16.89 129.02, 10.97 119.33 C5.05 109.64, 0.15 98.22, -0.72 87.27 C-1.6 76.32, 1.42 64.19, 5.71 53.62 C10 43.04, 13.95 32.67, 25.02 23.83 C36.08 14.99, 61.3 4.13, 72.11 0.56 C82.92 -3, 89.35 1.04, 89.89 2.44 M118.7 2.44 C130.18 4.28, 142.32 12.4, 151.04 20.19 C159.77 27.97, 166.16 39.09, 171.04 49.16 C175.92 59.23, 180.3 69.64, 180.3 80.58 C180.3 91.52, 175.92 104.43, 171.05 114.82 C166.18 125.22, 159.8 135.46, 151.08 142.96 C142.35 150.47, 130.41 156.43, 118.71 159.83 C107 163.23, 93.09 164.64, 80.84 163.37 C68.6 162.09, 55.87 157.71, 45.23 152.2 C34.59 146.7, 24.07 138.89, 17.01 130.32 C9.96 121.75, 5.4 111.4, 2.91 100.77 C0.41 90.15, -0.26 77.9, 2.04 66.57 C4.34 55.24, 9.7 42.21, 16.7 32.8 C23.7 23.39, 33.7 15.27, 44.04 10.14 C54.37 5, 66.48 2.78, 78.71 1.97 C90.94 1.16, 111.02 4.93, 117.41 5.26 C123.81 5.6, 117.72 3.07, 117.08 3.97" stroke="#000000" stroke-width="1" fill="none"></path></g><g transform="translate(520.1662650681199 1079.190311286056) rotate(0 58.80833435058594 25)"><text x="0" y="0" font-family="Virgil, Segoe UI Emoji" font-size="20px" fill="#000000" text-anchor="start" style="white-space: pre;" direction="ltr" dominant-baseline="text-before-edge">Create </text><text x="0" y="25" font-family="Virgil, Segoe UI Emoji" font-size="20px" fill="#000000" text-anchor="start" style="white-space: pre;" direction="ltr" dominant-baseline="text-before-edge">organization</text></g><g mask="url(#mask-6cDUueqyQH6uIFrvWo8rR)" stroke-linecap="round"><g transform="translate(487.28130213694607 1043.2886332344806) rotate(0 -110.73924208485883 -152.30295172590576)"><path d="M-0.52 0 C-37.2 -50.67, -184.29 -253.89, -220.95 -304.61" stroke="#000000" stroke-width="1.5" fill="none" stroke-dasharray="8 9"></path></g><g transform="translate(487.28130213694607 1043.2886332344806) rotate(0 -110.73924208485883 -152.30295172590576)"><path d="M-196.11 -288.54 C-203.05 -291.63, -208.13 -294.22, -218.97 -304.63" stroke="#000000" stroke-width="1.5" fill="none"></path></g><g transform="translate(487.28130213694607 1043.2886332344806) rotate(0 -110.73924208485883 -152.30295172590576)"><path d="M-212.74 -276.51 C-215.89 -282.22, -217.25 -287.51, -218.97 -304.63" stroke="#000000" stroke-width="1.5" fill="none"></path></g></g><mask id="mask-6cDUueqyQH6uIFrvWo8rR"><rect x="0" y="0" fill="#fff" width="807.7825357567215" height="1447.0332404237001"></rect><rect x="319.6556853270584" y="878.9163296398708" fill="#000" width="114.75" height="25" opacity="1"></rect></mask><g transform="translate(319.65568532705834 878.9163296398708) rotate(0 56.8863747250289 12.069351868703961)"><text x="57.375" y="0" font-family="Virgil, Segoe UI Emoji" font-size="20px" fill="#000000" text-anchor="middle" style="white-space: pre;" direction="ltr" dominant-baseline="text-before-edge">&lt;&lt;exclude&gt;&gt;</text></g><g stroke-linecap="round" transform="translate(267.66626506811986 997.1903112860562) rotate(0 67.49999999999977 58.25)"><path d="M87.79 2.63 C97.49 4.21, 108.27 9.62, 115.79 16.14 C123.31 22.66, 129.81 33.07, 132.92 41.75 C136.03 50.43, 136.39 59.44, 134.45 68.22 C132.5 77.01, 127.83 87.43, 121.28 94.49 C114.73 101.54, 104.7 107.08, 95.13 110.57 C85.56 114.06, 74.2 115.97, 63.86 115.41 C53.52 114.85, 42.3 111.76, 33.12 107.23 C23.94 102.7, 14.24 95.83, 8.77 88.24 C3.29 80.65, 0.8 70.85, 0.25 61.7 C-0.3 52.54, 1.29 41.71, 5.45 33.33 C9.62 24.94, 16.85 16.66, 25.23 11.4 C33.6 6.13, 44.52 3.09, 55.71 1.74 C66.91 0.38, 85.77 2.37, 92.42 3.26 C99.06 4.15, 96.06 5.91, 95.58 7.07 M35.91 7.34 C44.15 2.62, 58.24 -0.83, 68.62 -0.89 C79 -0.96, 88.97 2.45, 98.19 6.95 C107.41 11.46, 117.82 18.62, 123.94 26.12 C130.07 33.62, 133.94 43.07, 134.95 51.94 C135.96 60.8, 133.93 71.11, 130 79.32 C126.07 87.54, 119.32 95.35, 111.37 101.24 C103.43 107.13, 92.34 112.24, 82.34 114.67 C72.34 117.1, 61.38 117.88, 51.37 115.85 C41.37 113.81, 30.23 108.99, 22.32 102.49 C14.42 95.98, 7.65 85.66, 3.95 76.82 C0.25 67.97, -1.06 57.88, 0.13 49.42 C1.32 40.95, 4.96 32.99, 11.1 26.05 C17.25 19.1, 32.55 11.11, 37.01 7.76 C41.46 4.41, 37.5 5.48, 37.83 5.94" stroke="#000000" stroke-width="1" fill="none"></path></g><g transform="translate(302.66626506811986 1031.6903112860562) rotate(0 33.99166488647461 25)"><text x="0" y="0" font-family="Virgil, Segoe UI Emoji" font-size="20px" fill="#000000" text-anchor="start" style="white-space: pre;" direction="ltr" dominant-baseline="text-before-edge">Create</text><text x="0" y="25" font-family="Virgil, Segoe UI Emoji" font-size="20px" fill="#000000" text-anchor="start" style="white-space: pre;" direction="ltr" dominant-baseline="text-before-edge"> driver</text></g><g mask="url(#mask-b7w3mRDjEDWhJWFmZ4Lqj)" stroke-linecap="round"><g transform="translate(303.9864029716365 993.5732767537934) rotate(0 -35.6129317354966 -124.34153593422774)"><path d="M-0.01 0.13 C-12 -41.54, -59.16 -207.42, -71.21 -248.81" stroke="#000000" stroke-width="1.5" fill="none" stroke-dasharray="8 9"></path></g><g transform="translate(303.9864029716365 993.5732767537934) rotate(0 -35.6129317354966 -124.34153593422774)"><path d="M-53.35 -224.62 C-59.2 -235.28, -64.64 -240.57, -70.07 -250.05" stroke="#000000" stroke-width="1.5" fill="none"></path></g><g transform="translate(303.9864029716365 993.5732767537934) rotate(0 -35.6129317354966 -124.34153593422774)"><path d="M-73.08 -218.95 C-71.87 -231.65, -70.19 -238.99, -70.07 -250.05" stroke="#000000" stroke-width="1.5" fill="none"></path></g></g><mask id="mask-b7w3mRDjEDWhJWFmZ4Lqj"><rect x="0" y="0" fill="#fff" width="475.1624127623469" height="1342.9693476897044"></rect><rect x="211.0233980762813" y="856.3752412858378" fill="#000" width="114.75" height="25" opacity="1"></rect></mask><g transform="translate(211.0233980762813 856.3752412858381) rotate(0 57.350073159858596 12.856499533727757)"><text x="57.375" y="0" font-family="Virgil, Segoe UI Emoji" font-size="20px" fill="#000000" text-anchor="middle" style="white-space: pre;" direction="ltr" dominant-baseline="text-before-edge">&lt;&lt;exclude&gt;&gt;</text></g><g transform="translate(472.9822523964451 10) rotate(0 138.51666259765625 22.5)"><text x="0" y="0" font-family="Virgil, Segoe UI Emoji" font-size="36px" fill="#000000" text-anchor="start" style="white-space: pre;" direction="ltr" dominant-baseline="text-before-edge">new wash case </text></g></svg>