<svg version="1.1" xmlns="http://www.w3.org/2000/svg" viewBox="0 0 2834.0000000000005 3621.053296356621" width="2834.0000000000005" height="3621.053296356621">
  <!-- svg-source:excalidraw -->
  
  <defs>
    <style class="style-fonts">
      @font-face {
        font-family: "Virgil";
        src: url("https://excalidraw.com/Virgil.woff2");
      }
      @font-face {
        font-family: "Cascadia";
        src: url("https://excalidraw.com/Cascadia.woff2");
      }
    </style>
  </defs>
  <rect x="0" y="0" width="2834.0000000000005" height="3621.053296356621" fill="#ffffff"></rect><g stroke-linecap="round" transform="translate(746.9761904761879 643.764851367233) rotate(0 84.5 75.5)"><path d="M32 0 M32 0 C68.32 -1.76, 104.35 0.85, 137 0 M32 0 C65.07 -0.16, 99.01 1.1, 137 0 M137 0 C158.62 -0.67, 169.43 9.42, 169 32 M137 0 C156.54 0.71, 169.72 10.26, 169 32 M169 32 C170.35 50.64, 170.62 71.71, 169 119 M169 32 C170.4 52.95, 170.37 74.98, 169 119 M169 119 C169.26 141.47, 156.75 150.99, 137 151 M169 119 C166.76 142.6, 158.26 150.98, 137 151 M137 151 C110.37 151.1, 84.53 151.43, 32 151 M137 151 C98.86 151.56, 62.98 150.9, 32 151 M32 151 C10.06 153, -1.29 139.77, 0 119 M32 151 C12.43 149.26, -2.13 140.55, 0 119 M0 119 C1.4 90.99, -0.97 65.67, 0 32 M0 119 C-1.29 90.52, -0.84 63.04, 0 32 M0 32 C1.93 10.7, 9.12 -0.27, 32 0 M0 32 C-1.61 11.42, 9.78 -0.09, 32 0" stroke="#000000" stroke-width="1" fill="none"></path></g><g transform="translate(769.476190476187 699.5981847005664) rotate(0 42.275001525878906 17.5)"><text x="0" y="0" font-family="Virgil, Segoe UI Emoji" font-size="28px" fill="#000000" text-anchor="start" style="white-space: pre;" direction="ltr" dominant-baseline="text-before-edge">server</text></g><g stroke-linecap="round"><g transform="translate(823.8760789734067 858.7825006009468) rotate(0 -0.5549403807772251 1361.0395461838684)"><path d="M0.63 0.25 C0.5 453.79, -1.37 2268.27, -1.74 2721.83" stroke="#000000" stroke-width="4.5" fill="none" stroke-dasharray="8 12"></path></g></g><mask></mask><g stroke-linecap="round"><g transform="translate(1152.2094123067398 857.9491672676136) rotate(0 12.933841552212385 1348.79890019906)"><path d="M-0.91 -0.67 C3.45 449, 22.11 2248.19, 26.77 2698.27" stroke="#000000" stroke-width="4.5" fill="none" stroke-dasharray="8 12"></path></g></g><mask></mask><g stroke-linecap="round" transform="translate(1070.3095238095245 636.0981847005669) rotate(0 84.5 75.5)"><path d="M32 0 M32 0 C54.08 -0.06, 80.18 0.92, 137 0 M32 0 C59.2 0.97, 88.27 0.48, 137 0 M137 0 C156.73 -0.62, 168.89 12.29, 169 32 M137 0 C157.76 2.17, 170.65 9.33, 169 32 M169 32 C169.52 65.39, 171.45 95.82, 169 119 M169 32 C167.34 64.04, 168.28 94.1, 169 119 M169 119 C168.14 141.9, 156.96 151.36, 137 151 M169 119 C169.94 142.07, 159.65 152.28, 137 151 M137 151 C109.01 151.4, 78.23 149.53, 32 151 M137 151 C95.79 149.94, 52.12 150.8, 32 151 M32 151 C11 151.04, 0.96 141.76, 0 119 M32 151 C10.14 149.9, 2.04 140.78, 0 119 M0 119 C-1.85 87.26, -1.2 58.84, 0 32 M0 119 C-0.03 93.07, 0.28 66.45, 0 32 M0 32 C-0.1 9.57, 11.12 -1.33, 32 0 M0 32 C0.63 12.33, 12.07 -2.25, 32 0" stroke="#000000" stroke-width="1" fill="none"></path></g><g transform="translate(1110.9345238095245 676.5981847005669) rotate(0 43.875 35)"><text x="43.875" y="0" font-family="Virgil, Segoe UI Emoji" font-size="28px" fill="#000000" text-anchor="middle" style="white-space: pre;" direction="ltr" dominant-baseline="text-before-edge">Wash </text><text x="43.875" y="35" font-family="Virgil, Segoe UI Emoji" font-size="28px" fill="#000000" text-anchor="middle" style="white-space: pre;" direction="ltr" dominant-baseline="text-before-edge">module</text></g><g stroke-linecap="round"><g transform="translate(1476.4951265924535 852.1116331336489) rotate(0 15.213333560898434 1343.1743181508027)"><path d="M0.17 -0.4 C5.28 447.29, 25.44 2238.71, 30.26 2686.75" stroke="#000000" stroke-width="4.5" fill="none" stroke-dasharray="8 12"></path></g></g><mask></mask><g stroke-linecap="round" transform="translate(1402.8095238095245 640.2606505666017) rotate(0 84.5 75.5)"><path d="M32 0 M32 0 C63.74 -1.78, 98.61 0.4, 137 0 M32 0 C61.6 1.14, 91.07 1.27, 137 0 M137 0 C159.77 -1.16, 170.31 12.38, 169 32 M137 0 C160.26 -0.27, 170.85 12.63, 169 32 M169 32 C169.49 57.28, 171.47 86.39, 169 119 M169 32 C167.94 58.2, 169.04 84.79, 169 119 M169 119 C170.14 141.44, 157.95 150.66, 137 151 M169 119 C167.12 142.03, 159.78 151.18, 137 151 M137 151 C108.13 151.86, 78.89 148.47, 32 151 M137 151 C104.97 151.73, 71.76 150.54, 32 151 M32 151 C12.44 151.39, 1.14 141.49, 0 119 M32 151 C8.85 149.45, -0.8 139.53, 0 119 M0 119 C-0.29 83.08, 0.64 49.19, 0 32 M0 119 C0.27 92.58, 0.32 68.22, 0 32 M0 32 C1.22 8.71, 11.13 1.26, 32 0 M0 32 C-1.38 12.26, 9.29 -0.5, 32 0" stroke="#000000" stroke-width="1" fill="none"></path></g><g transform="translate(1414.0511925106964 680.7606505666017) rotate(0 73.25833129882812 35)"><text x="73.25833129882812" y="0" font-family="Virgil, Segoe UI Emoji" font-size="28px" fill="#000000" text-anchor="middle" style="white-space: pre;" direction="ltr" dominant-baseline="text-before-edge">Wash cycle</text><text x="73.25833129882812" y="35" font-family="Virgil, Segoe UI Emoji" font-size="28px" fill="#000000" text-anchor="middle" style="white-space: pre;" direction="ltr" dominant-baseline="text-before-edge">module</text></g><g transform="translate(525.1666666666677 474.0981847005669) rotate(0 468.6916809082031 45)"><text x="0" y="0" font-family="Virgil, Segoe UI Emoji" font-size="36px" fill="#000000" text-anchor="start" style="white-space: pre;" direction="ltr" dominant-baseline="text-before-edge">Search for today's wash with the given license plate</text><text x="0" y="45" font-family="Virgil, Segoe UI Emoji" font-size="36px" fill="#000000" text-anchor="start" style="white-space: pre;" direction="ltr" dominant-baseline="text-before-edge"></text></g><g mask="url(#mask-rx2XugaCLRac7PvzP8rgi)" stroke-linecap="round"><g transform="translate(865.0860636881278 1129.2404520715625) rotate(0 139.1596201373249 -0.4487133858332868)"><path d="M-0.96 -0.37 C22.98 -0.26, 97.33 0.31, 144.04 0.47 C190.75 0.64, 256.55 0.91, 279.28 0.63 M0.74 -1.61 C24.48 -1.8, 96.79 -1.22, 143.06 -1.14 C189.33 -1.06, 255.34 -1.23, 278.36 -1.11" stroke="#000000" stroke-width="4" fill="none"></path></g><g transform="translate(865.0860636881278 1129.2404520715625) rotate(0 139.1596201373249 -0.4487133858332868)"><path d="M277.74 -3.07 L265.31 7.12 L262.79 -7.39 L278.99 -2.89" stroke="none" stroke-width="0" fill="#000000" fill-rule="evenodd"></path><path d="M277.89 -1.19 C275.05 0.5, 270.75 4.04, 263.88 6.19 M278.96 -0.47 C273.26 1.74, 267.32 3.75, 264.02 5.95 M265.75 4.34 C264.99 1.96, 265.72 -1.59, 265.47 -7.72 M265.15 5.26 C264.67 2.25, 264.46 -2.14, 265.26 -7.95 M264.8 -6.75 C268.66 -6.52, 269.69 -3.52, 278.65 -0.26 M264.51 -7.73 C270.3 -5.09, 273.86 -2.93, 277.83 -0.87 M278.36 -1.11 C278.36 -1.11, 278.36 -1.11, 278.36 -1.11 M278.36 -1.11 C278.36 -1.11, 278.36 -1.11, 278.36 -1.11" stroke="#000000" stroke-width="4" fill="none"></path></g></g><mask id="mask-rx2XugaCLRac7PvzP8rgi"><rect x="0" y="0" fill="#fff" width="1244.6666666666672" height="1229.7398622997011"></rect><rect x="933.6488120669417" y="1103.7410418434238" fill="#000" width="151.0833282470703" height="50" opacity="1"></rect></mask><g transform="translate(933.6488120669417 1103.7410418434238) rotate(0 70.59687175851099 25.050696842305285)"><text x="75.54166412353516" y="0" font-family="Virgil, Segoe UI Emoji" font-size="20px" fill="#000000" text-anchor="middle" style="white-space: pre;" direction="ltr" dominant-baseline="text-before-edge">Search for a </text><text x="75.54166412353516" y="25" font-family="Virgil, Segoe UI Emoji" font-size="20px" fill="#000000" text-anchor="middle" style="white-space: pre;" direction="ltr" dominant-baseline="text-before-edge">currently wash </text></g><g transform="translate(76.97619047618969 2897.836279938662) rotate(0 70.50833129882812 25)"><text x="0" y="0" font-family="Virgil, Segoe UI Emoji" font-size="20px" fill="#862e9c" text-anchor="start" style="white-space: pre;" direction="ltr" dominant-baseline="text-before-edge">if not founded</text><text x="0" y="25" font-family="Virgil, Segoe UI Emoji" font-size="20px" fill="#862e9c" text-anchor="start" style="white-space: pre;" direction="ltr" dominant-baseline="text-before-edge">wash cycle</text></g><g mask="url(#mask-ox5SUxZhPJC3BLaSuD6ID)" stroke-linecap="round"><g transform="translate(860.1124432240911 2942.6934227958045) rotate(0 306.567788986275 -1.6416637523125246)"><path d="M0.86 -0.7 C103.12 -1.43, 511.18 -2.63, 613.28 -3.26 M-0.15 1.55 C102.05 1.02, 510.51 -4.05, 612.75 -4.84" stroke="#862e9c" stroke-width="4" fill="none"></path></g><g transform="translate(860.1124432240911 2942.6934227958045) rotate(0 306.567788986275 -1.6416637523125246)"><path d="M613.38 -6.61 L599.06 2.03 L598.32 -10.57 L610.83 -5.24" stroke="none" stroke-width="0" fill="#862e9c" fill-rule="evenodd"></path><path d="M611.88 -3.86 C610.38 -1.7, 605.2 0.03, 600.5 1.84 M612.02 -4.1 C607.84 -2.53, 602.71 0.37, 598.7 1.78 M599.92 1.39 C598.86 -3.72, 599.97 -6.21, 599.19 -11.42 M599.7 1.16 C598.66 -3.37, 599.3 -8.48, 599.39 -10.59 M599.38 -10.18 C603.71 -10.63, 605.62 -8.24, 612.23 -3.39 M598.56 -10.79 C602.87 -9.18, 607.25 -7.69, 612.92 -5.34 M612.75 -4.84 C612.75 -4.84, 612.75 -4.84, 612.75 -4.84 M612.75 -4.84 C612.75 -4.84, 612.75 -4.84, 612.75 -4.84" stroke="#862e9c" stroke-width="4" fill="none"></path></g></g><mask id="mask-ox5SUxZhPJC3BLaSuD6ID"><rect x="0" y="0" fill="#fff" width="1572.612443224091" height="3046.9791370815187"></rect><rect x="1076.4124462758489" y="2928.0505656529467" fill="#000" width="179.89999389648438" height="25" opacity="1"></rect></mask><g transform="translate(1076.4124462758489 2928.050565652947) rotate(0 90.26778593451718 13.001193390544586)"><text x="89.94999694824219" y="0" font-family="Virgil, Segoe UI Emoji" font-size="20px" fill="#862e9c" text-anchor="middle" style="white-space: pre;" direction="ltr" dominant-baseline="text-before-edge">Create wash cycle</text></g><g stroke-linecap="round" transform="translate(40.11904761904816 2509.741041843424) rotate(0 565.5714285714284 137.28571428571445)"><path d="M32 0 M32 0 C421.72 -2.93, 812.3 -3.47, 1099.14 0 M32 0 C412.52 0.41, 793.81 0.01, 1099.14 0 M1099.14 0 C1119.62 1.57, 1129.77 11.03, 1131.14 32 M1099.14 0 C1121.42 1.74, 1132.46 11.94, 1131.14 32 M1131.14 32 C1132.13 92.19, 1130.96 149.63, 1131.14 242.57 M1131.14 32 C1130.62 115.52, 1129.13 200.45, 1131.14 242.57 M1131.14 242.57 C1131.48 263.95, 1121.44 275.99, 1099.14 274.57 M1131.14 242.57 C1130.62 262.81, 1122.52 275.02, 1099.14 274.57 M1099.14 274.57 C717.81 270.92, 337.27 271.97, 32 274.57 M1099.14 274.57 C776.79 274.12, 454.84 273.97, 32 274.57 M32 274.57 C10.57 273.47, 0.46 262.57, 0 242.57 M32 274.57 C11.3 276.24, 1.4 261.65, 0 242.57 M0 242.57 C0.05 173.43, -1.55 105.26, 0 32 M0 242.57 C0.36 186.46, -0.19 129.68, 0 32 M0 32 C0.56 12.58, 8.69 0.08, 32 0 M0 32 C0.73 8.62, 10.49 0.45, 32 0" stroke="#000000" stroke-width="4" fill="none"></path></g><g transform="translate(61.83333333333371 2564.764851367233) rotate(0 70.50833129882812 25)"><text x="0" y="0" font-family="Virgil, Segoe UI Emoji" font-size="20px" fill="#862e9c" text-anchor="start" style="white-space: pre;" direction="ltr" dominant-baseline="text-before-edge">if not founded</text><text x="0" y="25" font-family="Virgil, Segoe UI Emoji" font-size="20px" fill="#862e9c" text-anchor="start" style="white-space: pre;" direction="ltr" dominant-baseline="text-before-edge">a wash</text></g><g mask="url(#mask-uE1VWWOaQjPzN0y9qvYzN)" stroke-linecap="round"><g transform="translate(853.3267289383773 2587.264851367233) rotate(0 150.01851637328042 2.728140334202294)"><path d="M0.16 0.68 C49.84 1.17, 249.27 3.19, 299.05 3.92 M-1.22 0 C48.74 1.2, 250.87 4.89, 301.26 5.46" stroke="#862e9c" stroke-width="4" fill="none"></path></g><g transform="translate(853.3267289383773 2587.264851367233) rotate(0 150.01851637328042 2.728140334202294)"><path d="M302.21 7.12 L288.77 10.23 L286.38 -2.96 L300.14 6.18" stroke="none" stroke-width="0" fill="#862e9c" fill-rule="evenodd"></path><path d="M302.11 4.27 C296.1 6.35, 292.37 10.09, 287.55 10.94 M301.57 6.03 C296.47 8.22, 290.71 9.99, 286.96 12.14 M288.83 10.77 C287.27 7.96, 286.74 1.22, 287.88 -0.88 M287.42 11.29 C288.13 7.88, 287.99 4.29, 287.26 -1.51 M287.79 -2.24 C291.12 -0.53, 295.39 1.67, 301.2 5.39 M287.97 -0.54 C291.54 -0.13, 294.57 2.68, 300.81 5.98 M301.26 5.46 C301.26 5.46, 301.26 5.46, 301.26 5.46 M301.26 5.46 C301.26 5.46, 301.26 5.46, 301.26 5.46" stroke="#862e9c" stroke-width="4" fill="none"></path></g></g><mask id="mask-uE1VWWOaQjPzN0y9qvYzN"><rect x="0" y="0" fill="#fff" width="1253.3267289383773" height="2691.1934227958045"></rect><rect x="936.2017289383773" y="2576.7291370815183" fill="#000" width="134.25" height="25" opacity="1"></rect></mask><g transform="translate(936.2017289383773 2576.729137081519) rotate(0 67.14351637328043 13.263854619916515)"><text x="67.125" y="0" font-family="Virgil, Segoe UI Emoji" font-size="20px" fill="#862e9c" text-anchor="middle" style="white-space: pre;" direction="ltr" dominant-baseline="text-before-edge">Create wash </text></g><g stroke-linecap="round" transform="translate(150.54761904761995 647.241041843424) rotate(0 84.5 75.5)"><path d="M32 0 M32 0 C57.13 0.96, 78.31 0.16, 137 0 M32 0 C72.14 0.56, 112.04 0.36, 137 0 M137 0 C157.95 -0.34, 167.37 12.14, 169 32 M137 0 C159.78 0.18, 168.3 12.96, 169 32 M169 32 C167.24 50.63, 168.95 73.3, 169 119 M169 32 C169.19 57.81, 170.31 84.77, 169 119 M169 119 C170.14 141.49, 156.75 149.65, 137 151 M169 119 C168.2 139.53, 160.56 151.04, 137 151 M137 151 C114.25 149.49, 90.11 150.17, 32 151 M137 151 C111.55 151.03, 86.16 149.32, 32 151 M32 151 C11.13 152.26, -1.2 141.71, 0 119 M32 151 C9.29 150.5, -1.5 139.55, 0 119 M0 119 C-0.19 92.67, -1.91 68.14, 0 32 M0 119 C1.18 83.7, 0.78 50.38, 0 32 M0 32 C-0.77 11.13, 8.75 -0.4, 32 0 M0 32 C1.09 12.58, 12.05 -1.56, 32 0" stroke="#000000" stroke-width="1" fill="none"></path></g><g transform="translate(173.04761904761904 703.0743751767573) rotate(0 33.92499923706055 17.5)"><text x="0" y="0" font-family="Virgil, Segoe UI Emoji" font-size="28px" fill="#000000" text-anchor="start" style="white-space: pre;" direction="ltr" dominant-baseline="text-before-edge">Nate</text></g><g stroke-linecap="round"><g transform="translate(216.8322685052433 875.0026298037155) rotate(0 -5.669234548136842 1368.495793565238)"><path d="M-0.52 0.94 C-2.31 456.95, -9.32 2280.08, -10.82 2736.05" stroke="#000000" stroke-width="4.5" fill="none" stroke-dasharray="8 12"></path></g></g><mask></mask><g mask="url(#mask--rSIcu-t-adtKmpauYXM4)" stroke-linecap="round"><g transform="translate(829.2132875865252 3013.472239844047) rotate(0 -134.09023334415102 -1.8694320805249163)"><path d="M-0.82 0.22 C-45.48 -0.32, -223.87 -1.85, -268.44 -2.31 M0.95 -0.71 C-43.78 -1.66, -224.19 -3.32, -269.13 -3.96" stroke="#862e9c" stroke-width="4" fill="none"></path></g><g transform="translate(829.2132875865252 3013.472239844047) rotate(0 -134.09023334415102 -1.8694320805249163)"><path d="M-269.12 -2.63 L-257.34 -11.57 L-256.9 0.77 L-268.44 -2.39" stroke="none" stroke-width="0" fill="#862e9c" fill-rule="evenodd"></path><path d="M-268.85 -3.34 C-264.53 -4.59, -261.32 -7.33, -255.72 -11.36 M-269.36 -3.21 C-264.54 -6.49, -258.37 -9.16, -256.16 -10.07 M-254.56 -10.43 C-256.11 -5, -255.3 -1.39, -254.88 1.54 M-254.85 -10.13 C-256.03 -7.28, -256.02 -4.03, -255.85 2.51 M-256.6 2.95 C-258.47 1.57, -265.02 -0.91, -268.18 -4.86 M-256.1 2.28 C-260.59 0.07, -265.31 -2.37, -269.36 -4.69 M-269.13 -3.96 C-269.13 -3.96, -269.13 -3.96, -269.13 -3.96 M-269.13 -3.96 C-269.13 -3.96, -269.13 -3.96, -269.13 -3.96" stroke="#862e9c" stroke-width="4" fill="none"></path></g></g><mask id="mask--rSIcu-t-adtKmpauYXM4"><rect x="0" y="0" fill="#fff" width="1198.1418590150968" height="3116.6865255583325"></rect><rect x="606.2406705734113" y="2999.365096986904" fill="#000" width="177.01666259765625" height="25" opacity="1"></rect></mask><g transform="translate(606.2406705734113 2999.365096986905) rotate(0 88.88238366896289 12.237710776617746)"><text x="88.50833129882812" y="0" font-family="Virgil, Segoe UI Emoji" font-size="20px" fill="#862e9c" text-anchor="middle" style="white-space: pre;" direction="ltr" dominant-baseline="text-before-edge">Return wash cycle</text></g><g mask="url(#mask-8fpDJy6gOUhRmsKSC0NV4)" stroke-linecap="round"><g transform="translate(234.71921240204915 3195.121994224375) rotate(0 139.14207303595202 -0.48439626965125626)"><path d="M0.69 0.67 C47.05 0.24, 232.49 -1.43, 278.7 -1.63 M-0.41 -0.03 C45.73 -0.35, 230.84 0.19, 277.63 -0.21" stroke="#000000" stroke-width="4" fill="none"></path></g><g transform="translate(234.71921240204915 3195.121994224375) rotate(0 139.14207303595202 -0.48439626965125626)"><path d="M276.33 -1.97 L264.73 7.73 L264.31 -5.04 L278.28 1.72" stroke="none" stroke-width="0" fill="#000000" fill-rule="evenodd"></path><path d="M278.46 -0.5 C272.79 0.82, 269.52 5.16, 264.16 5.71 M278.2 -0.77 C271.46 2.37, 266.85 4.86, 264.41 6.7 M264.29 6.88 C264.83 1.65, 263.24 -1.31, 263.58 -5.29 M263.6 6.37 C263.89 2.31, 264.09 -1.84, 264.16 -6.94 M262.55 -6.17 C269.46 -5.43, 274.01 -3.37, 277.3 -1.18 M264.26 -6.6 C267.4 -5.56, 271.46 -2.43, 276.88 -0.17 M277.63 -0.21 C277.63 -0.21, 277.63 -0.21, 277.63 -0.21 M277.63 -0.21 C277.63 -0.21, 277.63 -0.21, 277.63 -0.21" stroke="#000000" stroke-width="4" fill="none"></path></g></g><mask id="mask-8fpDJy6gOUhRmsKSC0NV4"><rect x="0" y="0" fill="#fff" width="613.6477838306207" height="3296.5505656529463"></rect><rect x="284.69182941516306" y="3169.40770851009" fill="#000" width="178.98333740234375" height="50" opacity="1"></rect></mask><g transform="translate(284.69182941516306 3169.4077085100894) rotate(0 89.16945602283812 25.229889444634296)"><text x="89.49166870117188" y="0" font-family="Virgil, Segoe UI Emoji" font-size="20px" fill="#000000" text-anchor="middle" style="white-space: pre;" direction="ltr" dominant-baseline="text-before-edge">Confirm wash and </text><text x="89.49166870117188" y="25" font-family="Virgil, Segoe UI Emoji" font-size="20px" fill="#000000" text-anchor="middle" style="white-space: pre;" direction="ltr" dominant-baseline="text-before-edge">wash cycle</text></g><g mask="url(#mask-SLwNLlhv67bKEJFHOL6Ia)" stroke-linecap="round"><g transform="translate(869.7658971109747 3255.9791370815183) rotate(0 139.35076185140232 -0.2246709612329596)"><path d="M-0.98 0.89 C45.67 0.7, 233.09 -1.15, 279.68 -1.33 M0.71 0.3 C47.29 0.35, 232.98 0.63, 279.13 0.25" stroke="#000000" stroke-width="4" fill="none"></path></g><g transform="translate(869.7658971109747 3255.9791370815183) rotate(0 139.35076185140232 -0.2246709612329596)"><path d="M279.42 1.73 L266.2 8.55 L264.85 -6.65 L281.05 -1.4" stroke="none" stroke-width="0" fill="#000000" fill-rule="evenodd"></path><path d="M280.24 1.19 C275.43 1.47, 273 2.75, 265.13 7.78 M279.25 0.27 C276.39 2.23, 272.81 2.77, 266.22 6.77 M264.7 6.19 C265.03 3.33, 265.48 -3.4, 265.35 -6.94 M265.52 6.28 C265.73 1.99, 265.75 -1.35, 265.91 -6.67 M266.55 -6.95 C269.64 -4.91, 273.85 -1.96, 279.05 0.73 M265.73 -5.34 C268.68 -4.07, 273.58 -2.95, 279.07 0.4 M279.13 0.25 C279.13 0.25, 279.13 0.25, 279.13 0.25 M279.13 0.25 C279.13 0.25, 279.13 0.25, 279.13 0.25" stroke="#000000" stroke-width="4" fill="none"></path></g></g><mask id="mask-SLwNLlhv67bKEJFHOL6Ia"><rect x="0" y="0" fill="#fff" width="1248.6944685395463" height="3357.4077085100894"></rect><rect x="941.7635156499675" y="3242.764851367233" fill="#000" width="134.93333435058594" height="25" opacity="1"></rect></mask><g transform="translate(941.7635156499675 3242.7648513672325) rotate(0 67.35314331240951 12.989614753052592)"><text x="67.46666717529297" y="0" font-family="Virgil, Segoe UI Emoji" font-size="20px" fill="#000000" text-anchor="middle" style="white-space: pre;" direction="ltr" dominant-baseline="text-before-edge">Confirm wash </text></g><g mask="url(#mask-FYUsby6fiFX0B5SQoyQ2L)" stroke-linecap="round"><g transform="translate(1192.5598921662338 3286.3362799386605) rotate(0 140.04638361674208 -0.2857784775217169)"><path d="M-0.37 1.2 C45.87 0.89, 231.45 -1.18, 278.15 -1.77 M1.64 0.78 C48.19 0.64, 234.14 -0.03, 280.46 -0.41" stroke="#000000" stroke-width="4" fill="none"></path></g><g transform="translate(1192.5598921662338 3286.3362799386605) rotate(0 140.04638361674208 -0.2857784775217169)"><path d="M279.79 -1.01 L268.82 4.36 L268.42 -6.06 L281.09 0.44" stroke="none" stroke-width="0" fill="#000000" fill-rule="evenodd"></path><path d="M281.96 -1.38 C275.12 3.03, 269.49 2.81, 267.04 6.25 M280.29 -0.77 C277.06 1.77, 272.72 3.99, 266.31 5.5 M266.92 5.03 C266.75 1.75, 267.32 -1.21, 266.78 -6.74 M267.07 6.46 C267.24 2.28, 266.98 0.19, 266.45 -6.24 M266.32 -6.74 C270.01 -4.61, 273.18 -4.04, 278.99 0.01 M267.07 -7.34 C272.1 -4.06, 277.26 -1.55, 279.74 -0.56 M280.46 -0.41 C280.46 -0.41, 280.46 -0.41, 280.46 -0.41 M280.46 -0.41 C280.46 -0.41, 280.46 -0.41, 280.46 -0.41" stroke="#000000" stroke-width="4" fill="none"></path></g></g><mask id="mask-FYUsby6fiFX0B5SQoyQ2L"><rect x="0" y="0" fill="#fff" width="1571.4884635948054" height="3387.7648513672316"></rect><rect x="1222.3575137569844" y="3260.621994224375" fill="#000" width="219.3333282470703" height="50" opacity="1"></rect></mask><g transform="translate(1222.3575137569844 3260.6219942243747) rotate(0 110.24876202599145 25.428507236763835)"><text x="109.66666412353516" y="0" font-family="Virgil, Segoe UI Emoji" font-size="20px" fill="#000000" text-anchor="middle" style="white-space: pre;" direction="ltr" dominant-baseline="text-before-edge">Add wash in completed</text><text x="109.66666412353516" y="25" font-family="Virgil, Segoe UI Emoji" font-size="20px" fill="#000000" text-anchor="middle" style="white-space: pre;" direction="ltr" dominant-baseline="text-before-edge">washes in wash cycle </text></g><g mask="url(#mask-HUS4Pig4HBhVqCDDpz7RJ)" stroke-linecap="round"><g transform="translate(847.3129432161647 1193.6696132719953) rotate(0 322.980438170973 1.1165314518887044)"><path d="M0.92 -0.91 C108.36 -0.59, 536.51 1.15, 643.89 1.54 M-0.06 1.23 C107.81 1.79, 538.58 2.88, 646.02 3.14" stroke="#000000" stroke-width="4" fill="none"></path></g><g transform="translate(847.3129432161647 1193.6696132719953) rotate(0 322.980438170973 1.1165314518887044)"><path d="M647.6 3.75 L633.03 10.3 L630.49 -3.22 L645.14 3.86" stroke="none" stroke-width="0" fill="#000000" fill-rule="evenodd"></path><path d="M644.88 1.75 C642.94 4.98, 639.62 6.94, 633.47 9.1 M646.44 3.57 C642.05 4.25, 638.94 6.09, 633.13 9.46 M632.82 8.96 C632.38 6.56, 631.74 4.08, 631.59 -2.88 M632.55 9.85 C631.96 5.16, 631.97 -0.13, 632.02 -3.45 M632.26 -3.69 C634.98 -0.97, 641.89 -0.99, 646.08 3.62 M632.15 -3.06 C634.58 -2.06, 638.53 0.06, 646.47 2.63 M646.02 3.14 C646.02 3.14, 646.02 3.14, 646.02 3.14 M646.02 3.14 C646.02 3.14, 646.02 3.14, 646.02 3.14" stroke="#000000" stroke-width="4" fill="none"></path></g></g><mask id="mask-HUS4Pig4HBhVqCDDpz7RJ"><rect x="0" y="0" fill="#fff" width="1592.3129432161643" height="1295.098184700567"></rect><rect x="1026.4546058138208" y="1181.883898986281" fill="#000" width="286.7166748046875" height="25" opacity="1"></rect></mask><g transform="translate(1026.4546058138208 1181.883898986281) rotate(0 143.83877557331695 12.902245737602925)"><text x="143.35833740234375" y="0" font-family="Virgil, Segoe UI Emoji" font-size="20px" fill="#000000" text-anchor="middle" style="white-space: pre;" direction="ltr" dominant-baseline="text-before-edge">Search for active wash cycle</text></g><g mask="url(#mask-J7Tqy88wtDqmBONoWn6xj)" stroke-linecap="round"><g transform="translate(534.7868348079944 927.8838989862811) rotate(0 134.38138574575328 -2.6518069111247087)"><path d="M0.2 0.03 C22.67 -0.6, 88.72 -3.13, 133.67 -3.65 C178.63 -4.16, 246.99 -3.3, 269.92 -3.07 M-1.15 -1.01 C21.3 -1.97, 88 -5.15, 133.03 -5.32 C178.06 -5.5, 246.44 -2.77, 269.01 -2.06" stroke="#000000" stroke-width="4" fill="none"></path></g><g transform="translate(534.7868348079944 927.8838989862811) rotate(0 134.38138574575328 -2.6518069111247087)"><path d="M267.06 -2.05 L254.32 4.53 L254.57 -8.09 L268.97 -1.55" stroke="none" stroke-width="0" fill="#000000" fill-rule="evenodd"></path><path d="M269.04 -1.33 C267.22 -1.16, 262.57 1.73, 255.5 4.67 M268.75 -2.32 C264.75 -0.04, 258.51 1.95, 254.68 4.06 M254.51 4.11 C254.48 0.85, 256.35 -2.03, 254.39 -8.56 M254.82 3.68 C255.02 -1, 255.57 -5.42, 255.84 -8.93 M257.07 -10.34 C259.23 -6.59, 261.44 -5.35, 269.3 -2.63 M255.99 -8.23 C260.34 -7.14, 263.69 -5.14, 268.59 -1.78 M269.01 -2.06 C269.01 -2.06, 269.01 -2.06, 269.01 -2.06 M269.01 -2.06 C269.01 -2.06, 269.01 -2.06, 269.01 -2.06" stroke="#000000" stroke-width="4" fill="none"></path></g></g><mask id="mask-J7Tqy88wtDqmBONoWn6xj"><rect x="0" y="0" fill="#fff" width="904.9764957264886" height="1032.383898986281"></rect><rect x="562.7322769253831" y="898.383898986281" fill="#000" width="210.3000030517578" height="50" opacity="1"></rect></mask><g transform="translate(562.7322769253831 898.383898986281) rotate(0 106.43594362836461 26.848193088875405)"><text x="105.1500015258789" y="0" font-family="Virgil, Segoe UI Emoji" font-size="20px" fill="#000000" text-anchor="middle" style="white-space: pre;" direction="ltr" dominant-baseline="text-before-edge">search for the given </text><text x="105.1500015258789" y="25" font-family="Virgil, Segoe UI Emoji" font-size="20px" fill="#000000" text-anchor="middle" style="white-space: pre;" direction="ltr" dominant-baseline="text-before-edge">license plate</text></g><g mask="url(#mask-6qsdoGdJYWIYHNdic2VSL)" stroke-linecap="round"><g transform="translate(1480.9315099953735 1306.8797366125682) rotate(0 -307.16173682891116 -2.154182647879054)"><path d="M-0.27 -0.57 C-102.99 -1.39, -513.08 -3.55, -615.72 -4.05 M1.78 1.74 C-101.05 0.46, -513.06 -4.83, -616.11 -6.05" stroke="#000000" stroke-width="4" fill="none"></path></g><g transform="translate(1480.9315099953735 1306.8797366125682) rotate(0 -307.16173682891116 -2.154182647879054)"><path d="M-617.18 -5.29 L-602.47 -11.71 L-602.94 0.79 L-616.17 -5.98" stroke="none" stroke-width="0" fill="#000000" fill-rule="evenodd"></path><path d="M-616.82 -4.72 C-611.1 -7.31, -605.76 -11.5, -603.44 -12.74 M-616.69 -6.15 C-613.06 -7.44, -609.2 -9.36, -602.47 -12.63 M-601.52 -11.45 C-603.81 -7.83, -601.82 -4.79, -601.72 -0.3 M-602.46 -12.25 C-602.36 -8.76, -602.8 -5.78, -602.41 1.06 M-603.92 0.34 C-605.02 -1.38, -607.68 -3.55, -616.41 -5.34 M-603.11 -0.24 C-608.23 -1.85, -613.27 -4.81, -616.1 -5.55 M-616.11 -6.05 C-616.11 -6.05, -616.11 -6.05, -616.11 -6.05 M-616.11 -6.05 C-616.11 -6.05, -616.11 -6.05, -616.11 -6.05" stroke="#000000" stroke-width="4" fill="none"></path></g></g><mask id="mask-6qsdoGdJYWIYHNdic2VSL"><rect x="0" y="0" fill="#fff" width="2197.7172242810884" height="1411.1654508982824"></rect><rect x="1013.0386528525162" y="1292.236879469711" fill="#000" width="319" height="25" opacity="1"></rect></mask><g transform="translate(1013.0386528525162 1292.236879469711) rotate(0 160.73112031394618 12.488674494978056)"><text x="159.5" y="0" font-family="Virgil, Segoe UI Emoji" font-size="20px" fill="#000000" text-anchor="middle" style="white-space: pre;" direction="ltr" dominant-baseline="text-before-edge">Return wash cycle search result</text></g><g mask="url(#mask-iGfQu_aW-VeLHHi1dWJiS)" stroke-linecap="round"><g transform="translate(1153.4193182484357 1256.5267561291384) rotate(0 -142.27662810752452 0.4630278238135759)"><path d="M0.68 0.69 C-47.03 0.64, -237.67 -0.03, -285.24 -0.09 M-0.42 0.01 C-47.86 0.07, -235.48 0.79, -283.02 1.02" stroke="#000000" stroke-width="4" fill="none"></path></g><g transform="translate(1153.4193182484357 1256.5267561291384) rotate(0 -142.27662810752452 0.4630278238135759)"><path d="M-283.37 1.35 L-269.52 -5.3 L-270.55 7.76 L-282.97 -0.44" stroke="none" stroke-width="0" fill="#000000" fill-rule="evenodd"></path><path d="M-282.16 -0.17 C-278.77 -2.07, -273 -2.58, -269.43 -6.53 M-283.31 0.99 C-279.13 -1.27, -275.03 -3.19, -269.25 -4.83 M-268.66 -6.14 C-268.68 -1.56, -269.81 2.95, -269.83 7.24 M-269.65 -6 C-269.22 -1.03, -270.01 2.12, -269.2 6.74 M-269.05 5.86 C-273.69 6.13, -276.13 4.48, -284.04 -0.02 M-269.68 7.1 C-272.18 6.55, -275.7 4.22, -283.51 0.36 M-283.02 1.02 C-283.02 1.02, -283.02 1.02, -283.02 1.02 M-283.02 1.02 C-283.02 1.02, -283.02 1.02, -283.02 1.02" stroke="#000000" stroke-width="4" fill="none"></path></g></g><mask id="mask-iGfQu_aW-VeLHHi1dWJiS"><rect x="0" y="0" fill="#fff" width="1537.7050325341504" height="1357.2410418434242"></rect><rect x="908.7681298067503" y="1231.8838989862813" fill="#000" width="205.01666259765625" height="50" opacity="1"></rect></mask><g transform="translate(908.7681298067503 1231.8838989862813) rotate(0 102.37456033416095 25.105884966670686)"><text x="102.50833129882812" y="0" font-family="Virgil, Segoe UI Emoji" font-size="20px" fill="#000000" text-anchor="middle" style="white-space: pre;" direction="ltr" dominant-baseline="text-before-edge">Return wash search </text><text x="102.50833129882812" y="25" font-family="Virgil, Segoe UI Emoji" font-size="20px" fill="#000000" text-anchor="middle" style="white-space: pre;" direction="ltr" dominant-baseline="text-before-edge">result</text></g><g stroke-linecap="round" transform="translate(44.76190476190595 2805.764851367233) rotate(0 758.0714285714281 158.53571428571433)"><path d="M32 0 M32 0 C352.45 2.79, 673.47 1.4, 1484.14 0 M32 0 C447.68 -1.91, 863.65 -2.12, 1484.14 0 M1484.14 0 C1505.93 -1.33, 1516.69 12.12, 1516.14 32 M1484.14 0 C1506.88 -2.25, 1516.68 12.12, 1516.14 32 M1516.14 32 C1517.21 91.65, 1517.01 153.34, 1516.14 285.07 M1516.14 32 C1516.55 105.81, 1517.02 181.98, 1516.14 285.07 M1516.14 285.07 C1514.16 306.49, 1506.11 315.3, 1484.14 317.07 M1516.14 285.07 C1515.96 306.85, 1504.59 317.6, 1484.14 317.07 M1484.14 317.07 C1188.24 320.32, 890.48 319.28, 32 317.07 M1484.14 317.07 C1184.01 319.07, 884.19 319.44, 32 317.07 M32 317.07 C8.78 315.64, -1.3 304.64, 0 285.07 M32 317.07 C11.45 318.88, 0.34 308.1, 0 285.07 M0 285.07 C-2.46 202.47, -3.31 118.04, 0 32 M0 285.07 C-1.44 201.4, -1 118.01, 0 32 M0 32 C-1.07 11.43, 10.63 0.51, 32 0 M0 32 C-0.41 11.05, 10.59 0.08, 32 0" stroke="#000000" stroke-width="4" fill="none"></path></g><g mask="url(#mask-P2gGGYAHymE_6m6Jf3nAV)" stroke-linecap="round"><g transform="translate(823.1477838306207 1352.2410418434238) rotate(0 -136.84642760056477 2.280504122006761)"><path d="M1.16 0.02 C-44.58 0.78, -228.87 3.35, -274.85 4.12 M0.31 -1.01 C-45.02 -0.03, -227.19 4.98, -272.63 5.57" stroke="#000000" stroke-width="4" fill="none"></path></g><g transform="translate(823.1477838306207 1352.2410418434238) rotate(0 -136.84642760056477 2.280504122006761)"><path d="M-272.57 4.11 L-258.76 0.1 L-259.37 11.94 L-273.23 4.29" stroke="none" stroke-width="0" fill="#000000" fill-rule="evenodd"></path><path d="M-272.6 4.42 C-269.24 2.64, -264.98 1.35, -259.23 -1.13 M-272.42 6.12 C-268.89 3.3, -265.87 2.89, -259.62 -0.54 M-259.6 -1.11 C-259.2 2.39, -259.22 4.64, -260.14 11.98 M-258.97 -1.62 C-259.24 4.08, -259.33 9.12, -259.51 11.5 M-259.92 10.58 C-265.12 8.77, -267.95 6.94, -273.02 5.58 M-259.39 10.96 C-263.62 9.9, -268.8 7.64, -272.38 6.3 M-272.63 5.57 C-272.63 5.57, -272.63 5.57, -272.63 5.57 M-272.63 5.57 C-272.63 5.57, -272.63 5.57, -272.63 5.57" stroke="#000000" stroke-width="4" fill="none"></path></g></g><mask id="mask-P2gGGYAHymE_6m6Jf3nAV"><rect x="0" y="0" fill="#fff" width="1197.0763552591923" height="1456.5267561291384"></rect><rect x="614.033496590456" y="1341.883898986281" fill="#000" width="144.3000030517578" height="25" opacity="1"></rect></mask><g transform="translate(614.033496590456 1341.883898986281) rotate(0 72.26785963959992 12.637646979149423)"><text x="72.1500015258789" y="0" font-family="Virgil, Segoe UI Emoji" font-size="20px" fill="#000000" text-anchor="middle" style="white-space: pre;" direction="ltr" dominant-baseline="text-before-edge">Return results</text></g><g mask="url(#mask-iv5tNAJ5I6StpOzqmEGSf)" stroke-linecap="round"><g transform="translate(538.559042335605 2562.5505656529476) rotate(0 137.8166865502319 -1.3840451736002706)"><path d="M-0.84 0.39 C22.75 -0.01, 94.37 -1.96, 140.59 -2.55 C186.81 -3.14, 253.77 -3.04, 276.47 -3.16 M0.92 -0.45 C24.39 -0.63, 93.61 -0.75, 139.4 -1.04 C185.19 -1.33, 252.71 -1.93, 275.68 -2.19" stroke="#862e9c" stroke-width="4" fill="none"></path></g><g transform="translate(538.559042335605 2562.5505656529476) rotate(0 137.8166865502319 -1.3840451736002706)"><path d="M275.21 -1.87 L261.54 3 L263.84 -7.29 L275.79 -2.45" stroke="none" stroke-width="0" fill="#862e9c" fill-rule="evenodd"></path><path d="M276.17 -2.77 C272.59 -0.91, 268.81 0.95, 261.15 4.7 M275.85 -1.72 C270.23 0.61, 265.19 2.34, 261.66 4.03 M262 3.9 C260.87 0.9, 263.29 -4.46, 262.07 -7.99 M261.9 4.43 C261.52 1.48, 262.4 -0.54, 262.4 -8.82 M262.56 -8.96 C264.72 -6.88, 269.26 -6.87, 274.6 -3.16 M262.13 -7.84 C265.17 -6.47, 267.57 -6.1, 276.4 -2.81 M275.68 -2.19 C275.68 -2.19, 275.68 -2.19, 275.68 -2.19 M275.68 -2.19 C275.68 -2.19, 275.68 -2.19, 275.68 -2.19" stroke="#862e9c" stroke-width="4" fill="none"></path></g></g><mask id="mask-iv5tNAJ5I6StpOzqmEGSf"><rect x="0" y="0" fill="#fff" width="915.0906497401095" height="2665.0505656529476"></rect><rect x="589.014460789798" y="2547.5505656529476" fill="#000" width="181.1999969482422" height="25" opacity="1"></rect></mask><g transform="translate(589.014460789798 2547.5505656529476) rotate(0 87.36126809603888 13.615954826399843)"><text x="90.5999984741211" y="0" font-family="Virgil, Segoe UI Emoji" font-size="20px" fill="#862e9c" text-anchor="middle" style="white-space: pre;" direction="ltr" dominant-baseline="text-before-edge">Create wash date</text></g><g mask="url(#mask-befL2YXI9soa8f-2a6GhM)" stroke-linecap="round"><g transform="translate(549.9378305696007 2918.0505656529476) rotate(0 137.65643241741907 -0.9542100390232235)"><path d="M-0.06 -0.66 C23.57 -1.2, 95.18 -3.14, 141.33 -3.3 C187.48 -3.46, 254.21 -1.57, 276.86 -1.63 M-1.55 1.61 C21.99 1.2, 94.22 -1.33, 140.53 -2.18 C186.83 -3.03, 253.37 -3.35, 276.27 -3.52" stroke="#862e9c" stroke-width="4" fill="none"></path></g><g transform="translate(549.9378305696007 2918.0505656529476) rotate(0 137.65643241741907 -0.9542100390232235)"><path d="M278.09 -2.42 L262.83 2.65 L263.21 -7.91 L274.35 -4.44" stroke="none" stroke-width="0" fill="#862e9c" fill-rule="evenodd"></path><path d="M275.44 -3.17 C271.73 -1.43, 270.27 0.75, 261.25 3.26 M275.82 -3.68 C270.82 -1.34, 266.36 1.21, 262.95 2.82 M263.93 1.66 C262.87 -0.1, 261.67 -4.01, 262.88 -10.25 M263.02 3.44 C263.19 -1.61, 262.34 -5.87, 262.28 -9.54 M263.63 -11.18 C265.12 -9.1, 268.45 -5.97, 277.45 -3.3 M262.38 -9.99 C268.47 -8.18, 273.45 -4.99, 276.5 -3.2 M276.27 -3.52 C276.27 -3.52, 276.27 -3.52, 276.27 -3.52 M276.27 -3.52 C276.27 -3.52, 276.27 -3.52, 276.27 -3.52" stroke="#862e9c" stroke-width="4" fill="none"></path></g></g><mask id="mask-befL2YXI9soa8f-2a6GhM"><rect x="0" y="0" fill="#fff" width="926.4694379741052" height="3020.5505656529476"></rect><rect x="591.0432505496726" y="2903.0505656529467" fill="#000" width="199.89999389648438" height="25" opacity="1"></rect></mask><g transform="translate(591.0432505496726 2903.050565652947) rotate(0 96.55101243734714 14.045789960977004)"><text x="99.94999694824219" y="0" font-family="Virgil, Segoe UI Emoji" font-size="20px" fill="#862e9c" text-anchor="middle" style="white-space: pre;" direction="ltr" dominant-baseline="text-before-edge">Create  wash cycle </text></g><g mask="url(#mask-64DQKTNxQLXaCiyKTuZCO)" stroke-linecap="round"><g transform="translate(1145.0089535877821 2632.193422795805) rotate(0 -141.89398147599127 0.20267364266999266)"><path d="M0.33 0.87 C-46.98 0.93, -236.16 -0.56, -283.55 -0.46 M-0.96 0.28 C-48.38 0.51, -236.84 0.59, -284.12 0.46" stroke="#862e9c" stroke-width="4" fill="none"></path></g><g transform="translate(1145.0089535877821 2632.193422795805) rotate(0 -141.89398147599127 0.20267364266999266)"><path d="M-283.54 2.32 L-272.43 -6.79 L-268.86 5.65 L-286.07 2.33" stroke="none" stroke-width="0" fill="#862e9c" fill-rule="evenodd"></path><path d="M-283.03 1.37 C-281.15 -1.27, -274.35 -4.57, -269.48 -6.77 M-284.15 0.42 C-280.05 -1.34, -276.73 -3.75, -270.31 -5.15 M-271.64 -5.97 C-270.27 -3.81, -270.22 -1.98, -270.78 7.41 M-270.96 -6.46 C-270.8 -0.78, -270.69 3.68, -270.52 7.23 M-271.85 7.32 C-272.1 5.63, -274.97 4.6, -282.67 -0.04 M-269.93 7.04 C-274.02 5.3, -278.66 3.27, -284.45 0.73 M-284.12 0.46 C-284.12 0.46, -284.12 0.46, -284.12 0.46 M-284.12 0.46 C-284.12 0.46, -284.12 0.46, -284.12 0.46" stroke="#862e9c" stroke-width="4" fill="none"></path></g></g><mask id="mask-64DQKTNxQLXaCiyKTuZCO"><rect x="0" y="0" fill="#fff" width="1529.2946678734968" height="2732.9077085100907"></rect><rect x="942.1827620943388" y="2620.0505656529476" fill="#000" width="121.36666870117188" height="25" opacity="1"></rect></mask><g transform="translate(942.1827620943388 2620.0505656529476) rotate(0 60.93221001745201 12.345530785527103)"><text x="60.68333435058594" y="0" font-family="Virgil, Segoe UI Emoji" font-size="20px" fill="#862e9c" text-anchor="middle" style="white-space: pre;" direction="ltr" dominant-baseline="text-before-edge">Return wash</text></g><g mask="url(#mask-Bh9NJY1OZSg1Nkl7XgOiA)" stroke-linecap="round"><g transform="translate(1478.9193182484348 2980.1934227958045) rotate(0 -308.6137186832196 -2.1939717468925437)"><path d="M0.28 0.76 C-102.76 0.38, -514.54 -2.57, -617.51 -3.46 M-1.03 0.11 C-103.75 -0.5, -512.85 -4.57, -615.17 -5.14" stroke="#862e9c" stroke-width="4" fill="none"></path></g><g transform="translate(1478.9193182484348 2980.1934227958045) rotate(0 -308.6137186832196 -2.1939717468925437)"><path d="M-613.5 -6.3 L-603.48 -9.5 L-600.42 2.9 L-615.21 -3.59" stroke="none" stroke-width="0" fill="#862e9c" fill-rule="evenodd"></path><path d="M-614.23 -6.05 C-609.15 -8.33, -605.58 -10.65, -602.04 -11.44 M-615.4 -5.88 C-610.96 -6.25, -607.89 -8.77, -601.29 -12.04 M-601.24 -12.59 C-601.79 -7.07, -600.51 -3.2, -602.49 0.42 M-601.77 -11.54 C-601.62 -8.33, -602.24 -6.59, -602.04 0.74 M-600.52 1.79 C-604.77 -1.33, -611.19 -1.55, -616.41 -3.95 M-602.36 1.31 C-606.46 -0.5, -611.01 -2.62, -615.19 -4.95 M-615.17 -5.14 C-615.17 -5.14, -615.17 -5.14, -615.17 -5.14 M-615.17 -5.14 C-615.17 -5.14, -615.17 -5.14, -615.17 -5.14" stroke="#862e9c" stroke-width="4" fill="none"></path></g></g><mask id="mask-Bh9NJY1OZSg1Nkl7XgOiA"><rect x="0" y="0" fill="#fff" width="2195.7050325341497" height="3084.4791370815187"></rect><rect x="1082.0181298067494" y="2965.5505656529467" fill="#000" width="177.01666259765625" height="25" opacity="1"></rect></mask><g transform="translate(1082.0181298067494 2965.550565652947) rotate(0 88.28746975846587 12.448885395964567)"><text x="88.50833129882812" y="0" font-family="Virgil, Segoe UI Emoji" font-size="20px" fill="#862e9c" text-anchor="middle" style="white-space: pre;" direction="ltr" dominant-baseline="text-before-edge">Return wash cycle</text></g><g stroke-linecap="round" transform="translate(452.8333333333337 642.8838989862811) rotate(0 84.5 75.5)"><path d="M32 0 M32 0 C56.76 -0.67, 81.69 0.54, 137 0 M32 0 C62.65 -0.86, 94.19 1.08, 137 0 M137 0 C156.36 0.08, 169.63 8.89, 169 32 M137 0 C158.15 0.45, 168.12 11.2, 169 32 M169 32 C170.49 50.97, 167.47 66.15, 169 119 M169 32 C168.14 49.71, 168.52 68.61, 169 119 M169 119 C167.12 138.9, 157.04 149.23, 137 151 M169 119 C169.79 142.14, 158.67 152.7, 137 151 M137 151 C101.48 152.57, 65.52 152.24, 32 151 M137 151 C101.31 151.45, 67.12 151.81, 32 151 M32 151 C9.6 151.76, -0.04 140.84, 0 119 M32 151 C10.26 151.38, -0.07 140.42, 0 119 M0 119 C-1.66 98.3, 0.95 76.32, 0 32 M0 119 C1.17 92.07, 0.32 63.9, 0 32 M0 32 C0.57 12.52, 8.75 -0.92, 32 0 M0 32 C1.92 9.34, 8.43 2.16, 32 0" stroke="#000000" stroke-width="1" fill="none"></path></g><g transform="translate(475.3333333333328 698.7172323196146) rotate(0 57.19166564941406 17.5)"><text x="0" y="0" font-family="Virgil, Segoe UI Emoji" font-size="28px" fill="#000000" text-anchor="start" style="white-space: pre;" direction="ltr" dominant-baseline="text-before-edge">frontend</text></g><g stroke-linecap="round"><g transform="translate(521.451215731731 867.7902420132373) rotate(0 1.414121283963084 1366.98183152688)"><path d="M-0.05 -0.06 C0.56 455.68, 2.52 2278.52, 2.88 2734.03" stroke="#000000" stroke-width="4.5" fill="none" stroke-dasharray="8 12"></path></g></g><mask></mask><g mask="url(#mask-tdsZnwbXFNASvDJXDuwr_)" stroke-linecap="round"><g transform="translate(237.059042335605 886.8838989862811) rotate(0 137.99580873572478 -1.9144997963724677)"><path d="M0.38 -0.14 C23.84 -0.74, 94.61 -3.47, 140.69 -3.68 C186.77 -3.88, 254.43 -1.56, 276.87 -1.35 M-0.88 -1.26 C22.39 -1.76, 93.35 -2.45, 139.54 -2.76 C185.74 -3.06, 253.71 -3.33, 276.28 -3.1" stroke="#000000" stroke-width="4" fill="none"></path></g><g transform="translate(237.059042335605 886.8838989862811) rotate(0 137.99580873572478 -1.9144997963724677)"><path d="M277.29 -1.26 L261.78 4.13 L264.28 -10.78 L275.04 -2.11" stroke="none" stroke-width="0" fill="#000000" fill-rule="evenodd"></path><path d="M276.1 -3.56 C270.78 -0.77, 269.66 -0.81, 262.73 3.68 M275.99 -2.92 C272.68 -1.89, 270.88 0.22, 263.12 2.7 M263.13 2.73 C262.46 0.29, 263.65 -3.84, 261.8 -10.3 M262.76 3.67 C262.84 1.13, 262.43 -2.35, 263.31 -10 M263.34 -10.94 C267.88 -7.76, 273.56 -5.48, 276.85 -3.12 M262.68 -9.45 C266.68 -7.25, 271.55 -5.89, 276.43 -2.66 M276.28 -3.1 C276.28 -3.1, 276.28 -3.1, 276.28 -3.1 M276.28 -3.1 C276.28 -3.1, 276.28 -3.1, 276.28 -3.1" stroke="#000000" stroke-width="4" fill="none"></path></g></g><mask id="mask-tdsZnwbXFNASvDJXDuwr_"><rect x="0" y="0" fill="#fff" width="613.5906497401095" height="989.3838989862812"></rect><rect x="284.1811249133332" y="871.883898986281" fill="#000" width="187.86666870117188" height="25" opacity="1"></rect></mask><g transform="translate(284.1811249133332 871.883898986281) rotate(0 90.8737261579966 13.085500203627646)"><text x="93.93333435058594" y="0" font-family="Virgil, Segoe UI Emoji" font-size="20px" fill="#000000" text-anchor="middle" style="white-space: pre;" direction="ltr" dominant-baseline="text-before-edge">insert license plate</text></g><g mask="url(#mask-hwUZfHx3ZToZZr6vwFth0)" stroke-linecap="round"><g transform="translate(515.9462459459207 1401.7410418434238) rotate(0 -132.1643327727686 -0.2591524117225248)"><path d="M0.34 1.15 C-43.71 1.06, -220.76 -1.01, -264.67 -1.66 M-0.94 0.7 C-44.61 0.93, -218.79 0.35, -262.58 -0.1" stroke="#000000" stroke-width="4" fill="none"></path></g><g transform="translate(515.9462459459207 1401.7410418434238) rotate(0 -132.1643327727686 -0.2591524117225248)"><path d="M-261.01 -1.41 L-250.18 -5.37 L-249.75 4.72 L-263.14 1.66" stroke="none" stroke-width="0" fill="#000000" fill-rule="evenodd"></path><path d="M-261.14 -1.58 C-258.78 -1.35, -256.51 -3.63, -248.65 -6.93 M-262.22 0.52 C-257.66 -2.6, -254.23 -4.82, -249.36 -6.08 M-248.1 -7.55 C-249.91 -3.85, -250.14 0.73, -248.03 6.51 M-249.16 -6.55 C-248.32 -2.14, -248.46 3.32, -248.82 6.59 M-248.48 5.52 C-251.2 4.93, -254.13 3.4, -262.33 -0.15 M-249 5.77 C-252.95 4.83, -257.39 2.57, -262.8 -0.58 M-262.58 -0.1 C-262.58 -0.1, -262.58 -0.1, -262.58 -0.1 M-262.58 -0.1 C-262.58 -0.1, -262.58 -0.1, -262.58 -0.1" stroke="#000000" stroke-width="4" fill="none"></path></g></g><mask id="mask-hwUZfHx3ZToZZr6vwFth0"><rect x="0" y="0" fill="#fff" width="879.425382705663" height="1503.455327557709"></rect><rect x="279.9983416895848" y="1388.383898986281" fill="#000" width="208.4166717529297" height="25" opacity="1"></rect></mask><g transform="translate(279.9983416895848 1388.383898986281) rotate(0 103.78357148356736 13.097990445420137)"><text x="104.20833587646484" y="0" font-family="Virgil, Segoe UI Emoji" font-size="20px" fill="#000000" text-anchor="middle" style="white-space: pre;" direction="ltr" dominant-baseline="text-before-edge">show founded results</text></g><g mask="url(#mask-wNs2jvGmyagLD5hBfpytS)" stroke-linecap="round"><g transform="translate(241.84709718818408 2532.5505656529476) rotate(0 137.59551685833583 -1.6473911157166867)"><path d="M0.38 -1.07 C24.07 -1.45, 95.01 -2.07, 140.96 -2.27 C186.91 -2.46, 253.67 -2.14, 276.07 -2.22 M-0.88 0.99 C22.75 0.21, 93.97 -3.98, 139.96 -4.27 C185.95 -4.56, 252.55 -1.18, 275.06 -0.76" stroke="#862e9c" stroke-width="4" fill="none"></path></g><g transform="translate(241.84709718818408 2532.5505656529476) rotate(0 137.59551685833583 -1.6473911157166867)"><path d="M274.33 -2.36 L260.7 6.89 L260.62 -8.03 L273.39 0.43" stroke="none" stroke-width="0" fill="#862e9c" fill-rule="evenodd"></path><path d="M273.73 -0.88 C272.58 -0.11, 269.86 0.22, 260.97 5.85 M274.54 -1.46 C269.4 1.68, 264.25 3.46, 261.27 5.63 M260.15 5.57 C262.44 2.71, 262.47 0.33, 262.9 -7.96 M261.77 5.33 C261.46 1.98, 260.75 -1.71, 261.4 -7.31 M262.06 -7.8 C265.26 -5.91, 268.36 -5.06, 275.4 -0.72 M261.51 -7.42 C264.51 -6.56, 268.45 -4.13, 275.1 -0.86 M275.06 -0.76 C275.06 -0.76, 275.06 -0.76, 275.06 -0.76 M275.06 -0.76 C275.06 -0.76, 275.06 -0.76, 275.06 -0.76" stroke="#862e9c" stroke-width="4" fill="none"></path></g></g><mask id="mask-wNs2jvGmyagLD5hBfpytS"><rect x="0" y="0" fill="#fff" width="618.3787045926886" height="2635.0505656529476"></rect><rect x="298.58584846708413" y="2517.5505656529476" fill="#000" width="168.63333129882812" height="25" opacity="1"></rect></mask><g transform="translate(298.58584846708413 2517.5505656529476) rotate(0 80.85676557943577 13.352608884283427)"><text x="84.31666564941406" y="0" font-family="Virgil, Segoe UI Emoji" font-size="20px" fill="#862e9c" text-anchor="middle" style="white-space: pre;" direction="ltr" dominant-baseline="text-before-edge">insert wash date</text></g><g mask="url(#mask-Dd-DL6TRQzp9eg1DJOnrR)" stroke-linecap="round"><g transform="translate(248.20420176054063 2880.5505656529476) rotate(0 138.32048325881576 -1.5229338407609703)"><path d="M-0.46 0.28 C22.87 -0.22, 93.65 -2.44, 139.91 -2.74 C186.17 -3.04, 254.21 -1.41, 277.1 -1.5 M1.5 -0.62 C25.19 -0.95, 96.16 -0.88, 142.01 -1.33 C187.87 -1.78, 253.99 -3.11, 276.64 -3.32" stroke="#862e9c" stroke-width="4" fill="none"></path></g><g transform="translate(248.20420176054063 2880.5505656529476) rotate(0 138.32048325881576 -1.5229338407609703)"><path d="M275.57 -3.82 L261.46 4.4 L261.57 -10.62 L275.47 -4.83" stroke="none" stroke-width="0" fill="#862e9c" fill-rule="evenodd"></path><path d="M276.98 -4.76 C272.41 -0.75, 270.01 1.35, 262.12 2.17 M276.35 -3.52 C273.82 -1.43, 270.32 -1.11, 262.65 2.55 M264.07 3.63 C264.19 -1.45, 262.53 -4.04, 261.91 -8.46 M262.52 3.22 C262.76 -0.75, 262.63 -4.93, 262.94 -9.3 M263.01 -10.33 C267.17 -7.69, 269.59 -5.69, 277.5 -3.67 M263.63 -9.05 C267.3 -7.54, 271.79 -4.8, 275.92 -3.67 M276.64 -3.32 C276.64 -3.32, 276.64 -3.32, 276.64 -3.32 M276.64 -3.32 C276.64 -3.32, 276.64 -3.32, 276.64 -3.32" stroke="#862e9c" stroke-width="4" fill="none"></path></g></g><mask id="mask-Dd-DL6TRQzp9eg1DJOnrR"><rect x="0" y="0" fill="#fff" width="624.7358091650451" height="2983.0505656529476"></rect><rect x="300.5929545653196" y="2853.0505656529476" fill="#000" width="177.3333282470703" height="50" opacity="1"></rect></mask><g transform="translate(300.5929545653196 2853.0505656529476) rotate(0 85.9317304540368 25.977066159239257)"><text x="88.66666412353516" y="0" font-family="Virgil, Segoe UI Emoji" font-size="20px" fill="#862e9c" text-anchor="middle" style="white-space: pre;" direction="ltr" dominant-baseline="text-before-edge">insert wash cycle </text><text x="88.66666412353516" y="25" font-family="Virgil, Segoe UI Emoji" font-size="20px" fill="#862e9c" text-anchor="middle" style="white-space: pre;" direction="ltr" dominant-baseline="text-before-edge">date range</text></g><g mask="url(#mask-2cBWA8ioiP13E6VIHkAqY)" stroke-linecap="round"><g transform="translate(507.1477838306207 3061.65770851009) rotate(0 -134.10112820813836 -1.5161825411552172)"><path d="M0.57 1 C-43.94 0.36, -223.15 -3.14, -268.2 -4.03 M-0.59 0.47 C-45.09 0, -224.32 -2.24, -268.77 -2.92" stroke="#862e9c" stroke-width="4" fill="none"></path></g><g transform="translate(507.1477838306207 3061.65770851009) rotate(0 -134.10112820813836 -1.5161825411552172)"><path d="M-270.16 -4.07 L-256.26 -10.58 L-255.68 5.13 L-268.16 -2.74" stroke="none" stroke-width="0" fill="#862e9c" fill-rule="evenodd"></path><path d="M-267.53 -2.01 C-266.98 -5.28, -264.57 -6.33, -254.55 -9.64 M-269.48 -3.46 C-265.51 -5.36, -261.03 -5.79, -254.98 -8.52 M-255.47 -7.85 C-256.07 -3.85, -254.7 -0.24, -254.72 2.37 M-255.43 -8.83 C-255.21 -5.1, -255.36 -1.35, -255.29 3.63 M-256.36 3.91 C-257.7 1.68, -261.6 -0.01, -269.74 -1.55 M-255.05 4.3 C-260.78 0.93, -264.23 -1.48, -269.5 -2.22 M-268.77 -2.92 C-268.77 -2.92, -268.77 -2.92, -268.77 -2.92 M-268.77 -2.92 C-268.77 -2.92, -268.77 -2.92, -268.77 -2.92" stroke="#862e9c" stroke-width="4" fill="none"></path></g></g><mask id="mask-2cBWA8ioiP13E6VIHkAqY"><rect x="0" y="0" fill="#fff" width="876.0763552591923" height="3164.871994224375"></rect><rect x="263.74183246692087" y="3035.0505656529467" fill="#000" width="217.88333129882812" height="50" opacity="1"></rect></mask><g transform="translate(263.74183246692087 3035.0505656529476) rotate(0 109.30482315556148 25.090960315987445)"><text x="108.94166564941406" y="0" font-family="Virgil, Segoe UI Emoji" font-size="20px" fill="#862e9c" text-anchor="middle" style="white-space: pre;" direction="ltr" dominant-baseline="text-before-edge">Return created wash </text><text x="108.94166564941406" y="25" font-family="Virgil, Segoe UI Emoji" font-size="20px" fill="#862e9c" text-anchor="middle" style="white-space: pre;" direction="ltr" dominant-baseline="text-before-edge">cycle</text></g><g mask="url(#mask-vf6kE5XT_uquX3CMchWaS)" stroke-linecap="round"><g transform="translate(520.0678738337363 2683.6577085100903) rotate(0 -134.33386062333767 -1.8848381925346303)"><path d="M-0.83 -1.12 C-45.89 -1.45, -224.84 -2.38, -269.6 -2.78 M0.93 0.9 C-43.79 0.28, -222.02 -4.13, -267.24 -4.67" stroke="#862e9c" stroke-width="4" fill="none"></path></g><g transform="translate(520.0678738337363 2683.6577085100903) rotate(0 -134.33386062333767 -1.8848381925346303)"><path d="M-267.65 -3.15 L-252.92 -10.57 L-253.43 0.87 L-265.76 -6.64" stroke="none" stroke-width="0" fill="#862e9c" fill-rule="evenodd"></path><path d="M-268.64 -5.51 C-261.71 -7.33, -257.71 -8.95, -252.53 -12.17 M-266.98 -4.09 C-263.96 -5.39, -260.69 -6.61, -253.78 -10.98 M-253.14 -10.35 C-253.18 -6.96, -253.82 -1.27, -253.31 1.24 M-253.64 -10.65 C-253.63 -6.44, -254.06 -2.03, -253.75 1.46 M-253.53 1.47 C-259.08 1.15, -261.61 -2.25, -267.43 -4.24 M-253.14 1.49 C-259.73 -0.03, -263.83 -2.73, -267.25 -4.09 M-267.24 -4.67 C-267.24 -4.67, -267.24 -4.67, -267.24 -4.67 M-267.24 -4.67 C-267.24 -4.67, -267.24 -4.67, -267.24 -4.67" stroke="#862e9c" stroke-width="4" fill="none"></path></g></g><mask id="mask-vf6kE5XT_uquX3CMchWaS"><rect x="0" y="0" fill="#fff" width="888.9964452623078" height="2786.8719942243756"></rect><rect x="281.6619224700364" y="2669.5505656529476" fill="#000" width="207.88333129882812" height="25" opacity="1"></rect></mask><g transform="translate(281.6619224700364 2669.5505656529476) rotate(0 104.07209074036217 12.222304664608032)"><text x="103.94166564941406" y="0" font-family="Virgil, Segoe UI Emoji" font-size="20px" fill="#862e9c" text-anchor="middle" style="white-space: pre;" direction="ltr" dominant-baseline="text-before-edge">Return created wash</text></g><g mask="url(#mask-fDaF7VI8IrSQKPMGzkWzJ)" stroke-linecap="round"><g transform="translate(546.7658971109747 3238.764851367233) rotate(0 139.24226921472174 -1.3248711642030457)"><path d="M-0.45 -0.32 C46.15 -0.49, 232.56 -0.3, 278.94 -0.63 M1.51 -1.53 C48.02 -2.08, 231.56 -2.35, 277.99 -2.33" stroke="#000000" stroke-width="4" fill="none"></path></g><g transform="translate(546.7658971109747 3238.764851367233) rotate(0 139.24226921472174 -1.3248711642030457)"><path d="M278.33 -3.39 L265.88 2.05 L262.96 -9.88 L277.52 -3.22" stroke="none" stroke-width="0" fill="#000000" fill-rule="evenodd"></path><path d="M277.6 -2.33 C275.69 -2.25, 270.3 -0.26, 263.08 4.53 M278.24 -1.61 C272.61 -0.05, 268.43 1.96, 265 4.25 M264.41 3.46 C264.8 -0.86, 264.82 -4.41, 264.71 -8.88 M264.04 4.16 C264.42 -0.46, 264.53 -3.65, 264.24 -8.56 M265.22 -8.58 C267.82 -6.65, 273.08 -6.81, 277.3 -1.08 M264.85 -8.06 C267.61 -6.67, 270.73 -6.13, 278.37 -1.65 M277.99 -2.33 C277.99 -2.33, 277.99 -2.33, 277.99 -2.33 M277.99 -2.33 C277.99 -2.33, 277.99 -2.33, 277.99 -2.33" stroke="#000000" stroke-width="4" fill="none"></path></g></g><mask id="mask-fDaF7VI8IrSQKPMGzkWzJ"><rect x="0" y="0" fill="#fff" width="925.6944685395463" height="3340.193422795804"></rect><rect x="596.7385141240886" y="3213.0505656529476" fill="#000" width="178.98333740234375" height="50" opacity="1"></rect></mask><g transform="translate(596.7385141240886 3213.050565652947) rotate(0 89.26965220160784 24.389414550082506)"><text x="89.49166870117188" y="0" font-family="Virgil, Segoe UI Emoji" font-size="20px" fill="#000000" text-anchor="middle" style="white-space: pre;" direction="ltr" dominant-baseline="text-before-edge">Confirm wash and </text><text x="89.49166870117188" y="25" font-family="Virgil, Segoe UI Emoji" font-size="20px" fill="#000000" text-anchor="middle" style="white-space: pre;" direction="ltr" dominant-baseline="text-before-edge">wash cycle</text></g><g transform="translate(1621.8333333333337 159.05056565294785) rotate(0 308.92498779296875 210)"><text x="0" y="0" font-family="Virgil, Segoe UI Emoji" font-size="28px" fill="#000000" text-anchor="start" style="white-space: pre;" direction="ltr" dominant-baseline="text-before-edge">Scenarios: </text><text x="0" y="35" font-family="Virgil, Segoe UI Emoji" font-size="28px" fill="#000000" text-anchor="start" style="white-space: pre;" direction="ltr" dominant-baseline="text-before-edge"></text><text x="0" y="70" font-family="Virgil, Segoe UI Emoji" font-size="28px" fill="#000000" text-anchor="start" style="white-space: pre;" direction="ltr" dominant-baseline="text-before-edge">- find a license plate</text><text x="0" y="105" font-family="Virgil, Segoe UI Emoji" font-size="28px" fill="#000000" text-anchor="start" style="white-space: pre;" direction="ltr" dominant-baseline="text-before-edge">    - find a wash, find a wash cycle</text><text x="0" y="140" font-family="Virgil, Segoe UI Emoji" font-size="28px" fill="#000000" text-anchor="start" style="white-space: pre;" direction="ltr" dominant-baseline="text-before-edge">    - not find a wash, find a wash cycle</text><text x="0" y="175" font-family="Virgil, Segoe UI Emoji" font-size="28px" fill="#000000" text-anchor="start" style="white-space: pre;" direction="ltr" dominant-baseline="text-before-edge">    - not find a wash, not find a wash cycle</text><text x="0" y="210" font-family="Virgil, Segoe UI Emoji" font-size="28px" fill="#000000" text-anchor="start" style="white-space: pre;" direction="ltr" dominant-baseline="text-before-edge">- not find a license plate</text><text x="0" y="245" font-family="Virgil, Segoe UI Emoji" font-size="28px" fill="#000000" text-anchor="start" style="white-space: pre;" direction="ltr" dominant-baseline="text-before-edge">    - find owner data</text><text x="0" y="280" font-family="Virgil, Segoe UI Emoji" font-size="28px" fill="#000000" text-anchor="start" style="white-space: pre;" direction="ltr" dominant-baseline="text-before-edge">    - not find owner data</text><text x="0" y="315" font-family="Virgil, Segoe UI Emoji" font-size="28px" fill="#000000" text-anchor="start" style="white-space: pre;" direction="ltr" dominant-baseline="text-before-edge">    - find proprietary data</text><text x="0" y="350" font-family="Virgil, Segoe UI Emoji" font-size="28px" fill="#000000" text-anchor="start" style="white-space: pre;" direction="ltr" dominant-baseline="text-before-edge">    - not find proprietary data</text><text x="0" y="385" font-family="Virgil, Segoe UI Emoji" font-size="28px" fill="#000000" text-anchor="start" style="white-space: pre;" direction="ltr" dominant-baseline="text-before-edge"></text></g><g mask="url(#mask-F7PGbB04CcTieKJydVnx7)" stroke-linecap="round"><g transform="translate(822.547016237763 2660.360089462471) rotate(0 -141.79574115984428 0.2979332641299379)"><path d="M-0.78 -1.06 C-47.9 -0.64, -236.65 1.21, -283.87 1.66 M1.02 1 C-46.13 1.17, -236.97 0.24, -284.61 0.03" stroke="#862e9c" stroke-width="4" fill="none"></path></g><g transform="translate(822.547016237763 2660.360089462471) rotate(0 -141.79574115984428 0.2979332641299379)"><path d="M-285.08 -0.85 L-269.77 -7.26 L-272.01 6.21 L-286.19 1.83" stroke="none" stroke-width="0" fill="#862e9c" fill-rule="evenodd"></path><path d="M-285.93 0.54 C-280.58 -0.95, -277.85 -1.98, -269.54 -6.75 M-284.01 0.26 C-280.75 -1.23, -278.04 -3.25, -271.31 -5.98 M-270.66 -6.47 C-270.74 -3.16, -270.92 -0.73, -270.75 6.46 M-271.13 -6.15 C-271.16 -3.78, -270.41 -0.14, -271 6.35 M-271.73 7.68 C-276.43 2.74, -278.61 3, -283.41 0 M-270.66 7.12 C-276.48 4.28, -280.69 1.03, -285.07 0.4 M-284.61 0.03 C-284.61 0.03, -284.61 0.03, -284.61 0.03 M-284.61 0.03 C-284.61 0.03, -284.61 0.03, -284.61 0.03" stroke="#862e9c" stroke-width="4" fill="none"></path></g></g><mask id="mask-F7PGbB04CcTieKJydVnx7"><rect x="0" y="0" fill="#fff" width="1206.8327305234777" height="2761.074375176757"></rect><rect x="619.7208247443198" y="2648.2172323196137" fill="#000" width="121.36666870117188" height="25" opacity="1"></rect></mask><g transform="translate(619.7208247443198 2648.2172323196137) rotate(0 61.03045033359899 12.440790406987048)"><text x="60.68333435058594" y="0" font-family="Virgil, Segoe UI Emoji" font-size="20px" fill="#862e9c" text-anchor="middle" style="white-space: pre;" direction="ltr" dominant-baseline="text-before-edge">Return wash</text></g><g stroke-linecap="round" transform="translate(10 1086.5505656529474) rotate(0 1407.0000000000002 634.0833333333333)"><path d="M32 0 M32 0 C951.85 -1.35, 1871.28 -1.88, 2782 0 M32 0 C774.92 9.19, 1517.33 9.24, 2782 0 M2782 0 C2801.38 0.01, 2813.12 11.38, 2814 32 M2782 0 C2802.1 0.88, 2813.95 11.25, 2814 32 M2814 32 C2814.83 371.58, 2814.98 712.09, 2814 1236.17 M2814 32 C2814.89 305.36, 2814.86 578.34, 2814 1236.17 M2814 1236.17 C2815.82 1258.6, 2803.45 1267.9, 2782 1268.17 M2814 1236.17 C2814.66 1259.64, 2801.13 1267.1, 2782 1268.17 M2782 1268.17 C1727.87 1257.94, 672.87 1257.44, 32 1268.17 M2782 1268.17 C1742.85 1262.59, 703.11 1262.41, 32 1268.17 M32 1268.17 C12.24 1266.86, -1.24 1258.48, 0 1236.17 M32 1268.17 C9.83 1266.33, -0.65 1259.52, 0 1236.17 M0 1236.17 C1.66 938.57, 0.72 641.62, 0 32 M0 1236.17 C1.11 965.71, 1.06 694.97, 0 32 M0 32 C1.48 8.7, 9.24 -1.22, 32 0 M0 32 C-0.54 9.65, 12.07 -1.17, 32 0" stroke="#000000" stroke-width="4" fill="none"></path></g><g transform="translate(57.99999999999977 1158.5505656529474) rotate(0 61.224998474121094 25)"><text x="0" y="0" font-family="Virgil, Segoe UI Emoji" font-size="20px" fill="#000000" text-anchor="start" style="white-space: pre;" direction="ltr" dominant-baseline="text-before-edge">if founded</text><text x="0" y="25" font-family="Virgil, Segoe UI Emoji" font-size="20px" fill="#000000" text-anchor="start" style="white-space: pre;" direction="ltr" dominant-baseline="text-before-edge">license plate</text></g><g stroke-linecap="round"><g transform="translate(32 1428.5505656529474) rotate(0 835.3762119192633 -0.782357312646127)"><path d="M-0.4 -0.36 C278.06 -0.72, 1392.59 -1.11, 1671.15 -0.99 M1.59 -1.59 C279.96 -1.32, 1392.63 0.06, 1670.81 0.03" stroke="#000000" stroke-width="4" fill="none"></path></g></g><mask></mask><g transform="translate(45.49166870117142 1541.5505656529472) rotate(0 19 12.5)"><text x="0" y="0" font-family="Virgil, Segoe UI Emoji" font-size="20px" fill="#862e9c" text-anchor="start" style="white-space: pre;" direction="ltr" dominant-baseline="text-before-edge">else</text></g><g stroke-linecap="round"><g transform="translate(1810.1856027829306 858.7610047192263) rotate(0 13.998462293420914 1335.4400324027974)"><path d="M0.95 0.37 C5.27 445.62, 22.95 2225.57, 27.04 2670.51" stroke="#000000" stroke-width="4.5" fill="none" stroke-dasharray="8 12"></path></g></g><mask></mask><g stroke-linecap="round" transform="translate(1723.9999999999998 636.9100221521794) rotate(0 84.5 75.5)"><path d="M32 0 M32 0 C72.69 -2.28, 111.68 -1.21, 137 0 M32 0 C67.25 -0.15, 102.36 -0.23, 137 0 M137 0 C158.27 0.07, 167.85 11.12, 169 32 M137 0 C158.4 -1.68, 169.47 11.99, 169 32 M169 32 C167.86 57.9, 170.24 80.27, 169 119 M169 32 C168.29 56.5, 170.09 81.34, 169 119 M169 119 C167.05 142.21, 159.55 152.59, 137 151 M169 119 C168.96 142.13, 157.78 149.76, 137 151 M137 151 C101.13 152.11, 62.1 149.3, 32 151 M137 151 C100.05 151.04, 63.14 149.91, 32 151 M32 151 C8.99 152.19, -1.38 139.18, 0 119 M32 151 C9.33 149.27, -0.47 142.09, 0 119 M0 119 C-1.13 91.74, -2.05 60.08, 0 32 M0 119 C0.81 97.69, -0.28 77.29, 0 32 M0 32 C-1.58 12.46, 11.16 -0.35, 32 0 M0 32 C1.77 10.36, 9.1 -0.42, 32 0" stroke="#000000" stroke-width="1" fill="none"></path></g><g transform="translate(1764.6249999999998 677.4100221521794) rotate(0 43.875 35)"><text x="43.875" y="0" font-family="Virgil, Segoe UI Emoji" font-size="28px" fill="#000000" text-anchor="middle" style="white-space: pre;" direction="ltr" dominant-baseline="text-before-edge">Vehicle</text><text x="43.875" y="35" font-family="Virgil, Segoe UI Emoji" font-size="28px" fill="#000000" text-anchor="middle" style="white-space: pre;" direction="ltr" dominant-baseline="text-before-edge">module</text></g><g mask="url(#mask-PT_8-9YSUkcCWkZo3H6y2)" stroke-linecap="round"><g transform="translate(242.51376385485105 1585.0505656529476) rotate(0 137.9898692403755 -1.7474112928303676)"><path d="M-0.53 0.43 C23.07 0.09, 94.24 -1.6, 140.41 -2.04 C186.59 -2.48, 253.86 -2.15, 276.51 -2.2 M1.4 -0.39 C25.49 -1.1, 97.06 -3.87, 142.79 -3.92 C188.51 -3.98, 253.45 -1.19, 275.73 -0.72" stroke="#862e9c" stroke-width="4" fill="none"></path></g><g transform="translate(242.51376385485105 1585.0505656529476) rotate(0 137.9898692403755 -1.7474112928303676)"><path d="M276.82 -2.25 L260.91 3.21 L262.68 -5.75 L275.42 -2.1" stroke="none" stroke-width="0" fill="#862e9c" fill-rule="evenodd"></path><path d="M276.27 -1.52 C273.51 0.39, 270.53 1.36, 262.2 5.16 M275.75 -1.27 C271.66 1.54, 267.15 3.03, 261.72 4.72 M261.78 5.57 C263.21 -0.96, 261.59 -3.65, 261.6 -8.7 M261.94 5.7 C261.87 -0.13, 262.5 -4.2, 262.05 -7.18 M263.07 -8.02 C266.16 -5.25, 273.75 -3.07, 275.36 -1.98 M261.9 -8.03 C266.95 -4.39, 272.14 -2.47, 275.86 -1.11 M275.73 -0.72 C275.73 -0.72, 275.73 -0.72, 275.73 -0.72 M275.73 -0.72 C275.73 -0.72, 275.73 -0.72, 275.73 -0.72" stroke="#862e9c" stroke-width="4" fill="none"></path></g></g><mask id="mask-PT_8-9YSUkcCWkZo3H6y2"><rect x="0" y="0" fill="#fff" width="619.0453712593555" height="1687.5505656529476"></rect><rect x="292.39417773140735" y="1570.0505656529476" fill="#000" width="182.35000610351562" height="25" opacity="1"></rect></mask><g transform="translate(292.39417773140735 1570.0505656529476) rotate(0 88.1094553638192 13.252588707169746)"><text x="91.17500305175781" y="0" font-family="Virgil, Segoe UI Emoji" font-size="20px" fill="#862e9c" text-anchor="middle" style="white-space: pre;" direction="ltr" dominant-baseline="text-before-edge">enter vehicle data</text></g><g mask="url(#mask-1gn9Gzhn2F7VER06AJiPh)" stroke-linecap="round"><g transform="translate(547.7052888386213 1640.0505656529476) rotate(0 137.49933731966863 -0.2676818203315605)"><path d="M-0.02 0.3 C23.56 -0.15, 94.76 -2.67, 140.84 -2.3 C186.93 -1.93, 253.99 1.7, 276.49 2.54 M-1.5 -0.58 C21.97 -1.47, 93.58 -5.06, 139.78 -4.32 C185.99 -3.57, 253.05 2.49, 275.71 3.88" stroke="#862e9c" stroke-width="4" fill="none"></path></g><g transform="translate(547.7052888386213 1640.0505656529476) rotate(0 137.49933731966863 -0.2676818203315605)"><path d="M276.05 5.6 L261.38 7.83 L261.77 -2.45 L273.89 3.67" stroke="none" stroke-width="0" fill="#862e9c" fill-rule="evenodd"></path><path d="M276.09 3.62 C272.52 5.15, 268.87 5.65, 262.03 9.25 M275.53 4 C272.31 4.69, 270.04 6.8, 261.73 9.11 M261.1 10.27 C261.14 3.83, 263.37 1.68, 263.62 -3.45 M262.01 9.79 C261.79 4.73, 262.92 -0.75, 262.22 -3.12 M263.93 -4.23 C265.64 -2.73, 270.34 -0.58, 274.84 3.01 M262.84 -3.36 C265.67 -2.28, 269.04 -0.98, 275.17 3.43 M275.71 3.88 C275.71 3.88, 275.71 3.88, 275.71 3.88 M275.71 3.88 C275.71 3.88, 275.71 3.88, 275.71 3.88" stroke="#862e9c" stroke-width="4" fill="none"></path></g></g><mask id="mask-1gn9Gzhn2F7VER06AJiPh"><rect x="0" y="0" fill="#fff" width="924.2368962431258" height="1745.0505656529476"></rect><rect x="590.5690401175214" y="1625.0505656529476" fill="#000" width="196.38333129882812" height="25" opacity="1"></rect></mask><g transform="translate(590.5690401175214 1625.0505656529476) rotate(0 94.63558604076857 14.732318179668553)"><text x="98.19166564941406" y="0" font-family="Virgil, Segoe UI Emoji" font-size="20px" fill="#862e9c" text-anchor="middle" style="white-space: pre;" direction="ltr" dominant-baseline="text-before-edge">create vehicle data</text></g><g mask="url(#mask-r1c9wSGdAvWi2dq9LUejM)" stroke-linecap="round"><g transform="translate(860.2052888386213 1692.5505656529476) rotate(0 473.77388499402696 -2.9165528435260057)"><path d="M-0.04 0.04 C23.39 -0.36, -17.82 -1.24, 140.37 -2.23 C298.55 -3.21, 814.25 -5.53, 949.06 -5.88 M-1.52 -0.98 C22.32 -1.78, -15.59 -3.53, 142.72 -4.21 C301.02 -4.88, 813.83 -4.64, 948.32 -5.02" stroke="#862e9c" stroke-width="4" fill="none"></path></g><g transform="translate(860.2052888386213 1692.5505656529476) rotate(0 473.77388499402696 -2.9165528435260057)"><path d="M947.47 -4.04 L932.9 1.13 L935.71 -13.16 L946.56 -6.17" stroke="none" stroke-width="0" fill="#862e9c" fill-rule="evenodd"></path><path d="M948.37 -5.88 C944.83 -3.19, 939.56 -1.13, 935.59 0.99 M949 -4.61 C944.05 -3.2, 939.93 -0.4, 934.01 0.99 M935.92 2.1 C935.81 -3.55, 935.78 -8.7, 934.03 -10.7 M935.23 0.92 C934.39 -3.32, 934.54 -9.11, 934.54 -10.79 M935.6 -12.38 C937.19 -10.54, 940.28 -8.42, 949.46 -4.56 M935.27 -12.08 C938.39 -9.78, 942.95 -7.69, 948.77 -5.4 M948.32 -5.02 C948.32 -5.02, 948.32 -5.02, 948.32 -5.02 M948.32 -5.02 C948.32 -5.02, 948.32 -5.02, 948.32 -5.02" stroke="#862e9c" stroke-width="4" fill="none"></path></g></g><mask id="mask-r1c9wSGdAvWi2dq9LUejM"><rect x="0" y="0" fill="#fff" width="1909.2368962431267" height="1797.5505656529476"></rect><rect x="932.7440355398846" y="1665.0505656529476" fill="#000" width="137.03334045410156" height="50" opacity="1"></rect></mask><g transform="translate(932.7440355398846 1665.0505656529476) rotate(0 401.2351382927636 24.583447156474108)"><text x="68.51667022705078" y="0" font-family="Virgil, Segoe UI Emoji" font-size="20px" fill="#862e9c" text-anchor="middle" style="white-space: pre;" direction="ltr" dominant-baseline="text-before-edge">create vehicle</text><text x="68.51667022705078" y="25" font-family="Virgil, Segoe UI Emoji" font-size="20px" fill="#862e9c" text-anchor="middle" style="white-space: pre;" direction="ltr" dominant-baseline="text-before-edge"></text></g><g stroke-linecap="round"><g transform="translate(2180.1856027829326 863.8794362523545) rotate(0 15.138342000916168 1313.6567262452088)"><path d="M0.03 -0.88 C5.19 437.11, 25.3 2190.1, 30.24 2628.19" stroke="#000000" stroke-width="4.5" fill="none" stroke-dasharray="8 12"></path></g></g><mask></mask><g stroke-linecap="round" transform="translate(2094.000000000002 642.0284536853076) rotate(0 84.5 75.5)"><path d="M32 0 M32 0 C64.94 -0.68, 95.89 -0.82, 137 0 M32 0 C56.82 -0.71, 81.82 0.35, 137 0 M137 0 C156.42 -0.92, 170.67 9.51, 169 32 M137 0 C156.09 2.16, 170.4 12.5, 169 32 M169 32 C168.6 58.97, 171.51 83.03, 169 119 M169 32 C169.07 62.61, 169.32 91.44, 169 119 M169 119 C168.44 142.09, 157.27 150.51, 137 151 M169 119 C167.07 141.7, 156.74 149.67, 137 151 M137 151 C113.13 151.39, 86.38 151.12, 32 151 M137 151 C110.31 149.36, 84.81 149.53, 32 151 M32 151 C11.88 149.98, -0.97 140.11, 0 119 M32 151 C8.85 153.07, 0.56 139.93, 0 119 M0 119 C-0.25 87.36, 1.71 53.8, 0 32 M0 119 C-0.99 92.2, -0.3 68.24, 0 32 M0 32 C-0.31 9.28, 9.83 0.98, 32 0 M0 32 C-2.1 10.43, 11.81 -2.09, 32 0" stroke="#000000" stroke-width="1" fill="none"></path></g><g transform="translate(2134.625000000002 682.5284536853076) rotate(0 43.875 35)"><text x="43.875" y="0" font-family="Virgil, Segoe UI Emoji" font-size="28px" fill="#000000" text-anchor="middle" style="white-space: pre;" direction="ltr" dominant-baseline="text-before-edge">driver</text><text x="43.875" y="35" font-family="Virgil, Segoe UI Emoji" font-size="28px" fill="#000000" text-anchor="middle" style="white-space: pre;" direction="ltr" dominant-baseline="text-before-edge">module</text></g><g stroke-linecap="round"><g transform="translate(2570.1856027829326 863.8794362523545) rotate(0 8.697749755655423 1313.2784552575392)"><path d="M-0.36 -0.77 C2.64 437.09, 14.91 2189.45, 17.76 2627.33" stroke="#000000" stroke-width="4.5" fill="none" stroke-dasharray="8 12"></path></g></g><mask></mask><g stroke-linecap="round" transform="translate(2484.000000000002 642.0284536853076) rotate(0 91 75.5)"><path d="M32 0 M32 0 C64.92 -0.96, 95.38 -0.5, 150 0 M32 0 C79.19 -0.03, 123.74 1.48, 150 0 M150 0 C172.55 1.59, 181.97 12.23, 182 32 M150 0 C170.78 -1.24, 183.16 12.78, 182 32 M182 32 C181.1 53.01, 183.39 75.76, 182 119 M182 32 C181.22 50.9, 180.92 70.88, 182 119 M182 119 C180.62 139.18, 170.17 149.49, 150 151 M182 119 C181.53 142.09, 172.03 151.21, 150 151 M150 151 C110.64 150.45, 73.99 151.4, 32 151 M150 151 C119.32 150.29, 88.82 151.3, 32 151 M32 151 C11.16 150.65, 1.54 140.07, 0 119 M32 151 C9.1 150.58, 1.34 142.17, 0 119 M0 119 C-1.5 90.09, -1.96 63.6, 0 32 M0 119 C-0.29 85.92, -0.78 51.75, 0 32 M0 32 C0.99 8.85, 8.91 -1.15, 32 0 M0 32 C-1.7 12.42, 12.89 -1.85, 32 0" stroke="#000000" stroke-width="1" fill="none"></path></g><g transform="translate(2490.224998474123 682.5284536853076) rotate(0 84.7750015258789 35)"><text x="84.7750015258789" y="0" font-family="Virgil, Segoe UI Emoji" font-size="28px" fill="#000000" text-anchor="middle" style="white-space: pre;" direction="ltr" dominant-baseline="text-before-edge">Organization</text><text x="84.7750015258789" y="35" font-family="Virgil, Segoe UI Emoji" font-size="28px" fill="#000000" text-anchor="middle" style="white-space: pre;" direction="ltr" dominant-baseline="text-before-edge">module</text></g><g mask="url(#mask-HmNgnDLYkcKupX7vfZYsI)" stroke-linecap="round"><g transform="translate(833.4999999999998 985.0505656529474) rotate(0 480.01358606094516 -2.2201067406684274)"><path d="M0.34 1.11 C160.14 0.21, 798.74 -4.42, 958.85 -5.55 M-0.93 0.65 C159.21 -0.08, 800.68 -3.41, 960.96 -4.31" stroke="#000000" stroke-width="4" fill="none"></path></g><g transform="translate(833.4999999999998 985.0505656529474) rotate(0 480.01358606094516 -2.2201067406684274)"><path d="M962.43 -5.41 L946.79 1.81 L947.67 -11.83 L959.28 -5.22" stroke="none" stroke-width="0" fill="#000000" fill-rule="evenodd"></path><path d="M962.35 -5.74 C956.11 -1.06, 951.8 -1.81, 948.81 3.01 M960.78 -4.71 C956.19 -1.08, 950.33 1.01, 947.99 1.61 M946.39 1.75 C948.44 -1.59, 946.99 -5, 948.08 -11.45 M947.27 2.59 C947.65 -0.91, 947.55 -4.37, 947.8 -11.2 M946.67 -9.66 C949.65 -9.84, 953.36 -8.86, 962.31 -3.94 M946.82 -10.71 C951.67 -8.19, 955.24 -7.04, 961.37 -4.88 M960.96 -4.31 C960.96 -4.31, 960.96 -4.31, 960.96 -4.31 M960.96 -4.31 C960.96 -4.31, 960.96 -4.31, 960.96 -4.31" stroke="#000000" stroke-width="4" fill="none"></path></g></g><mask id="mask-HmNgnDLYkcKupX7vfZYsI"><rect x="0" y="0" fill="#fff" width="1893.5000000000002" height="1090.0505656529474"></rect><rect x="1181.2416687011719" y="970.0505656529474" fill="#000" width="264.51666259765625" height="25" opacity="1"></rect></mask><g transform="translate(1181.2416687011719 970.0505656529474) rotate(0 132.27191735977306 12.779893259331573)"><text x="132.25833129882812" y="0" font-family="Virgil, Segoe UI Emoji" font-size="20px" fill="#000000" text-anchor="middle" style="white-space: pre;" direction="ltr" dominant-baseline="text-before-edge">Search for a liicense plate</text></g><g mask="url(#mask-AP_npMqBHXpiBy36O81aj)" stroke-linecap="round"><g transform="translate(1771.0797828963684 1032.5505656529474) rotate(0 -463.8327781658622 1.4651556771248124)"><path d="M1 -0.69 C-153.58 0, -774.04 2.93, -928.67 3.62 M0.07 1.56 C-154.07 1.99, -772.03 2.08, -926.57 2.09" stroke="#000000" stroke-width="4" fill="none"></path></g><g transform="translate(1771.0797828963684 1032.5505656529474) rotate(0 -463.8327781658622 1.4651556771248124)"><path d="M-926.23 0.83 L-914.65 -5.16 L-911.18 8.8 L-927.37 0.24" stroke="none" stroke-width="0" fill="#000000" fill-rule="evenodd"></path><path d="M-927.44 0.63 C-922.36 1.59, -919.79 -0.64, -911.81 -4.61 M-926.9 2.44 C-922.67 -0.08, -920.38 -0.78, -913.25 -4.85 M-913.29 -5.31 C-912.11 -1.68, -913.6 1.91, -913.93 8.17 M-912.87 -4.58 C-912.47 -0.1, -913.39 4.91, -913.12 8.15 M-913.14 7.24 C-916.5 6.44, -923.02 4.95, -926.77 1.07 M-912.82 8.4 C-916.43 6.18, -921.06 4.22, -926.44 2.74 M-926.57 2.09 C-926.57 2.09, -926.57 2.09, -926.57 2.09 M-926.57 2.09 C-926.57 2.09, -926.57 2.09, -926.57 2.09" stroke="#000000" stroke-width="4" fill="none"></path></g></g><mask id="mask-AP_npMqBHXpiBy36O81aj"><rect x="0" y="0" fill="#fff" width="2798.5797828963687" height="1135.0505656529474"></rect><rect x="1137.563120298712" y="1021.3005656529474" fill="#000" width="339.5333251953125" height="25" opacity="1"></rect></mask><g transform="translate(1137.563120298712 1021.3005656529474) rotate(0 169.6838844317943 12.715155677124812)"><text x="169.76666259765625" y="0" font-family="Virgil, Segoe UI Emoji" font-size="20px" fill="#000000" text-anchor="middle" style="white-space: pre;" direction="ltr" dominant-baseline="text-before-edge">Return license plate search result</text></g><g mask="url(#mask-n7G5AYFImxWmuJ819vfib)" stroke-linecap="round"><g transform="translate(815.5623472814157 1455.40770851009) rotate(0 -137.08908715913478 2.8159680341305915)"><path d="M0.73 0.96 C-44.74 1.64, -228.12 4.77, -273.95 5.22 M-0.35 0.41 C-45.87 1.28, -229.11 2.89, -274.91 3.59" stroke="#862e9c" stroke-width="4" fill="none"></path></g><g transform="translate(815.5623472814157 1455.40770851009) rotate(0 -137.08908715913478 2.8159680341305915)"><path d="M-273.12 3.96 L-262.18 -4.76 L-262.63 11.17 L-273.74 3.49" stroke="none" stroke-width="0" fill="#862e9c" fill-rule="evenodd"></path><path d="M-273.71 3.57 C-271.06 1.83, -270.3 1.63, -260.01 -3.57 M-275.37 3.96 C-270.55 0.83, -265.81 -0.16, -261.79 -3.09 M-262.12 -3.65 C-262.24 -0.43, -260.28 2.96, -261.12 9.98 M-261.84 -3.29 C-261.41 -0.05, -260.83 3.04, -261.55 9.7 M-261.5 10.92 C-264.51 7.41, -267.61 7.95, -273.71 3.9 M-261.63 9.02 C-265.2 8.48, -269.5 5.48, -275.22 3.96 M-274.91 3.59 C-274.91 3.59, -274.91 3.59, -274.91 3.59 M-274.91 3.59 C-274.91 3.59, -274.91 3.59, -274.91 3.59" stroke="#862e9c" stroke-width="4" fill="none"></path></g></g><mask id="mask-n7G5AYFImxWmuJ819vfib"><rect x="0" y="0" fill="#fff" width="1189.4909187099872" height="1559.6934227958047"></rect><rect x="606.448060041251" y="1445.0505656529474" fill="#000" width="144.3000030517578" height="25" opacity="1"></rect></mask><g transform="translate(606.448060041251 1445.0505656529474) rotate(0 72.02520008102991 13.173110891273254)"><text x="72.1500015258789" y="0" font-family="Virgil, Segoe UI Emoji" font-size="20px" fill="#862e9c" text-anchor="middle" style="white-space: pre;" direction="ltr" dominant-baseline="text-before-edge">Return results</text></g><g mask="url(#mask-dxvauO8GYVv4sLN0WHyUG)" stroke-linecap="round"><g transform="translate(508.06234728141567 1507.90770851009) rotate(0 -136.09785635144854 2.369652462697644)"><path d="M-0.29 -0.65 C-45.84 0.09, -227.63 4.47, -273.32 5.39 M1.76 1.63 C-43.9 1.98, -227.74 3.65, -273.95 3.84" stroke="#862e9c" stroke-width="4" fill="none"></path></g><g transform="translate(508.06234728141567 1507.90770851009) rotate(0 -136.09785635144854 2.369652462697644)"><path d="M-275.35 5.24 L-259.24 -2.69 L-259.55 11.8 L-272.41 4.46" stroke="none" stroke-width="0" fill="#862e9c" fill-rule="evenodd"></path><path d="M-274.76 4.6 C-268.58 1.29, -265.22 1.22, -261.38 -3.52 M-274.17 4.5 C-269.6 1.52, -265.1 -0.1, -260.92 -3.02 M-259.43 -2.21 C-260.36 0.69, -261.12 4.48, -261.56 9.18 M-260.02 -2.91 C-260.72 0.37, -260.89 4.04, -260.16 9.98 M-260.59 10.96 C-264.25 7.95, -270.64 6.11, -275.1 3.07 M-260.43 9.57 C-263.37 9.32, -266.47 7.62, -273.58 3.16 M-273.95 3.84 C-273.95 3.84, -273.95 3.84, -273.95 3.84 M-273.95 3.84 C-273.95 3.84, -273.95 3.84, -273.95 3.84" stroke="#862e9c" stroke-width="4" fill="none"></path></g></g><mask id="mask-dxvauO8GYVv4sLN0WHyUG"><rect x="0" y="0" fill="#fff" width="881.9909187099872" height="1612.1934227958047"></rect><rect x="266.88972569066505" y="1497.5505656529474" fill="#000" width="208.4166717529297" height="25" opacity="1"></rect></mask><g transform="translate(266.88972569066505 1497.5505656529474) rotate(0 105.07476523930208 12.726795319840306)"><text x="104.20833587646484" y="0" font-family="Virgil, Segoe UI Emoji" font-size="20px" fill="#862e9c" text-anchor="middle" style="white-space: pre;" direction="ltr" dominant-baseline="text-before-edge">show founded results</text></g><g mask="url(#mask-HqSGG5Wva9UmjD_razYkC)" stroke-linecap="round"><g transform="translate(835.9999999999998 1787.5505656529476) rotate(0 666.8723032890505 -3.4479342260708847)"><path d="M-0.53 0.55 C221.75 -0.87, 1112.09 -6.35, 1334.28 -7.45 M1.39 -0.2 C223.54 -0.98, 1111.54 -5.01, 1333.82 -6.32" stroke="#862e9c" stroke-width="4" fill="none"></path></g><g transform="translate(835.9999999999998 1787.5505656529476) rotate(0 666.8723032890505 -3.4479342260708847)"><path d="M1334.59 -4.61 L1321.81 0.7 L1321.68 -11.09 L1335.74 -6.45" stroke="none" stroke-width="0" fill="#862e9c" fill-rule="evenodd"></path><path d="M1334.52 -5.15 C1328.15 -5.07, 1325.11 -2.44, 1319.06 -0.34 M1333.19 -5.88 C1328.01 -4.31, 1322.83 -1.95, 1320.11 0.66 M1319.59 1.02 C1318.98 -5.01, 1319.43 -8.59, 1319.64 -11.82 M1319.76 0.65 C1320.46 -3.19, 1320.78 -6.32, 1319.76 -12.71 M1320.15 -11.77 C1323.98 -11.15, 1328.52 -7.87, 1335.11 -6.56 M1319.51 -12.67 C1323.69 -11.9, 1325.8 -10.2, 1333.27 -5.75 M1333.82 -6.32 C1333.82 -6.32, 1333.82 -6.32, 1333.82 -6.32 M1333.82 -6.32 C1333.82 -6.32, 1333.82 -6.32, 1333.82 -6.32" stroke="#862e9c" stroke-width="4" fill="none"></path></g></g><mask id="mask-HqSGG5Wva9UmjD_razYkC"><rect x="0" y="0" fill="#fff" width="2269.333333333332" height="1894.2172323196144"></rect><rect x="1369.6833292643223" y="1759.2172323196144" fill="#000" width="265.9666748046875" height="50" opacity="1"></rect></mask><g transform="translate(1369.6833292643223 1759.2172323196144) rotate(0 133.18897402472794 24.885399107262486)"><text x="132.98333740234375" y="0" font-family="Virgil, Segoe UI Emoji" font-size="20px" fill="#862e9c" text-anchor="middle" style="white-space: pre;" direction="ltr" dominant-baseline="text-before-edge">Search for the given driver</text><text x="132.98333740234375" y="25" font-family="Virgil, Segoe UI Emoji" font-size="20px" fill="#862e9c" text-anchor="middle" style="white-space: pre;" direction="ltr" dominant-baseline="text-before-edge">data</text></g><g mask="url(#mask-49lI74MjftFhVg5Ea5W6m)" stroke-linecap="round"><g transform="translate(815.854132948815 1897.5505656529479) rotate(0 874.4095049876712 -3.5180734196057273)"><path d="M-0.74 0.59 C290.69 -0.55, 1457.83 -6.59, 1749.56 -7.63 M1.07 -0.15 C292.23 -1.1, 1457.11 -5.38, 1748.38 -6.59" stroke="#862e9c" stroke-width="4" fill="none"></path></g><g transform="translate(815.854132948815 1897.5505656529479) rotate(0 874.4095049876712 -3.5180734196057273)"><path d="M1749.86 -5.09 L1736.73 -0.33 L1733.94 -13.66 L1746.45 -8.09" stroke="none" stroke-width="0" fill="#862e9c" fill-rule="evenodd"></path><path d="M1749.12 -7.14 C1742 -4.68, 1739.38 -2.64, 1734.44 -1.46 M1747.95 -7.16 C1743.31 -3.8, 1738.82 -2.01, 1734.94 -0.6 M1734.04 -0.5 C1734.36 -4.17, 1734.26 -10.3, 1734.62 -13.88 M1735.3 -0.29 C1734.33 -5.26, 1735.11 -9.58, 1734.89 -12.9 M1733.27 -12.62 C1740.83 -10.81, 1743.34 -8.98, 1749.12 -7.96 M1734.11 -13.31 C1738.18 -10.36, 1743.41 -9.72, 1748.25 -6.78 M1748.38 -6.59 C1748.38 -6.59, 1748.38 -6.59, 1748.38 -6.59 M1748.38 -6.59 C1748.38 -6.59, 1748.38 -6.59, 1748.38 -6.59" stroke="#862e9c" stroke-width="4" fill="none"></path></g></g><mask id="mask-49lI74MjftFhVg5Ea5W6m"><rect x="0" y="0" fill="#fff" width="2665.8541329488135" height="2004.2172323196146"></rect><rect x="1526.2457955464706" y="1869.2172323196146" fill="#000" width="329.2166748046875" height="50" opacity="1"></rect></mask><g transform="translate(1526.2457955464708 1869.2172323196144) rotate(0 164.01784239001574 24.815259913727644)"><text x="164.60833740234375" y="0" font-family="Virgil, Segoe UI Emoji" font-size="20px" fill="#862e9c" text-anchor="middle" style="white-space: pre;" direction="ltr" dominant-baseline="text-before-edge">Search for the given organization</text><text x="164.60833740234375" y="25" font-family="Virgil, Segoe UI Emoji" font-size="20px" fill="#862e9c" text-anchor="middle" style="white-space: pre;" direction="ltr" dominant-baseline="text-before-edge">data</text></g><g mask="url(#mask-N02lKUkbui2sk-4hJ22Lc)" stroke-linecap="round"><g transform="translate(2560.8803495710954 1947.1934227958047) rotate(0 -859.9539903288206 2.848253357991524)"><path d="M-0.34 1.05 C-287.2 1.84, -1434.66 3.13, -1721.59 3.75 M1.68 0.56 C-284.74 1.61, -1432.34 4.76, -1719.22 5.13" stroke="#862e9c" stroke-width="4" fill="none"></path></g><g transform="translate(2560.8803495710954 1947.1934227958047) rotate(0 -859.9539903288206 2.848253357991524)"><path d="M-1720.04 4.35 L-1707.56 -2.73 L-1706.11 13.04 L-1721.21 5.79" stroke="none" stroke-width="0" fill="#862e9c" fill-rule="evenodd"></path><path d="M-1717.9 4.33 C-1715.96 2.24, -1711.12 0.78, -1706.5 -2.11 M-1718.99 5.2 C-1716.03 3.21, -1712.55 1.43, -1706.17 -1.69 M-1706.28 -1.85 C-1705.82 1.27, -1704.54 6.08, -1705.83 12.42 M-1705.27 -0.73 C-1705.58 2.38, -1705.36 5.55, -1705.94 10.81 M-1706.65 10.81 C-1709.25 8.05, -1714.45 8.16, -1720.58 3.82 M-1704.88 10.84 C-1708.99 9.83, -1712.36 8.6, -1718.66 4.72 M-1719.22 5.13 C-1719.22 5.13, -1719.22 5.13, -1719.22 5.13 M-1719.22 5.13 C-1719.22 5.13, -1719.22 5.13, -1719.22 5.13" stroke="#862e9c" stroke-width="4" fill="none"></path></g></g><mask id="mask-N02lKUkbui2sk-4hJ22Lc"><rect x="0" y="0" fill="#fff" width="4381.832730523476" height="2051.241041843424"></rect><rect x="1535.5374903937332" y="1936.7172323196146" fill="#000" width="329.73333740234375" height="25" opacity="1"></rect></mask><g transform="translate(1535.537490393733 1936.7172323196146) rotate(0 165.38886884854185 13.324443834181892)"><text x="164.86666870117188" y="0" font-family="Virgil, Segoe UI Emoji" font-size="20px" fill="#862e9c" text-anchor="middle" style="white-space: pre;" direction="ltr" dominant-baseline="text-before-edge">return organization search result</text></g><g mask="url(#mask-pfUtgzCWKuZY0XSXQcrN4)" stroke-linecap="round"><g transform="translate(2171.3977663491924 1835.5267561291378) rotate(0 -659.3076268776379 3.5341401326506627)"><path d="M-1.01 0.71 C-220.78 1.74, -1099.59 5.03, -1319.28 5.85 M0.67 0.04 C-218.67 1.23, -1096.85 5.95, -1317.01 7.03" stroke="#862e9c" stroke-width="4" fill="none"></path></g><g transform="translate(2171.3977663491924 1835.5267561291378) rotate(0 -659.3076268776379 3.5341401326506627)"><path d="M-1317.51 8.62 L-1305.44 1.27 L-1302.07 14.95 L-1317.07 6.75" stroke="none" stroke-width="0" fill="#862e9c" fill-rule="evenodd"></path><path d="M-1316.12 5.99 C-1314.51 4.69, -1311.43 3.67, -1302.3 1.08 M-1316.45 6.29 C-1313.36 4.66, -1308.81 2.81, -1302.99 0.24 M-1302.31 0.93 C-1303.66 4.78, -1303.59 6.13, -1303.61 14.04 M-1303.1 0.14 C-1303.72 4.8, -1303.26 10.8, -1303.48 12.86 M-1303.54 14.04 C-1308.29 10.24, -1311.3 8.83, -1315.86 8.48 M-1303.57 13.41 C-1305.81 11.48, -1309.58 10.4, -1316.88 6.56 M-1317.01 7.03 C-1317.01 7.03, -1317.01 7.03, -1317.01 7.03 M-1317.01 7.03 C-1317.01 7.03, -1317.01 7.03, -1317.01 7.03" stroke="#862e9c" stroke-width="4" fill="none"></path></g></g><mask id="mask-pfUtgzCWKuZY0XSXQcrN4"><rect x="0" y="0" fill="#fff" width="3589.8501473015735" height="1942.074375176757"></rect><rect x="1415.7549117494668" y="1826.3005656529474" fill="#000" width="192.8333282470703" height="25" opacity="1"></rect></mask><g transform="translate(1415.7549117494664 1826.3005656529474) rotate(0 96.3352277220879 12.76033060884103)"><text x="96.41666412353516" y="0" font-family="Virgil, Segoe UI Emoji" font-size="20px" fill="#862e9c" text-anchor="middle" style="white-space: pre;" direction="ltr" dominant-baseline="text-before-edge">return driver result</text></g><g transform="translate(658.6428571428576 2082.788660891043) rotate(0 70.50833129882812 25)"><text x="0" y="0" font-family="Virgil, Segoe UI Emoji" font-size="20px" fill="#862e9c" text-anchor="start" style="white-space: pre;" direction="ltr" dominant-baseline="text-before-edge">if not founded</text><text x="0" y="25" font-family="Virgil, Segoe UI Emoji" font-size="20px" fill="#862e9c" text-anchor="start" style="white-space: pre;" direction="ltr" dominant-baseline="text-before-edge">organization </text></g><g mask="url(#mask-c2XDfu3TT-UtAXsetetKN)" stroke-linecap="round"><g transform="translate(833.5475361739889 2090.8838989862807) rotate(0 875.0591517109417 -2.8210944333424663)"><path d="M-0.25 0.92 C291.6 -0.03, 1458.62 -5.19, 1750.37 -6.56 M1.82 0.35 C293.6 -0.3, 1458.32 -3.85, 1749.61 -4.96" stroke="#862e9c" stroke-width="4" fill="none"></path></g><g transform="translate(833.5475361739889 2090.8838989862807) rotate(0 875.0591517109417 -2.8210944333424663)"><path d="M1749.55 -5.24 L1734.74 2.11 L1734.31 -10.85 L1748.57 -6.68" stroke="none" stroke-width="0" fill="#862e9c" fill-rule="evenodd"></path><path d="M1750.75 -4.51 C1746.41 -3.19, 1742.2 -0.79, 1734.56 0.35 M1750.07 -5.35 C1745.98 -3.58, 1742.51 -1.3, 1736.22 1.29 M1735.81 2.16 C1737.05 -3.1, 1735.98 -7.45, 1735.02 -11.91 M1735.94 0.98 C1735.74 -0.81, 1735.42 -3.73, 1736.31 -11.84 M1737.14 -9.81 C1737.64 -10.09, 1741.37 -8.87, 1749.83 -3.86 M1736.12 -11.73 C1738.68 -10.04, 1743.32 -8.02, 1749.31 -5.66 M1749.61 -4.96 C1749.61 -4.96, 1749.61 -4.96, 1749.61 -4.96 M1749.61 -4.96 C1749.61 -4.96, 1749.61 -4.96, 1749.61 -4.96" stroke="#862e9c" stroke-width="4" fill="none"></path></g></g><mask id="mask-c2XDfu3TT-UtAXsetetKN"><rect x="0" y="0" fill="#fff" width="2683.5475361739873" height="2197.5505656529476"></rect><rect x="1607.1725361739882" y="2075.050565652947" fill="#000" width="202.75" height="25" opacity="1"></rect></mask><g transform="translate(1607.1725361739884 2075.050565652947) rotate(0 101.43415171094239 13.012238899990905)"><text x="101.375" y="0" font-family="Virgil, Segoe UI Emoji" font-size="20px" fill="#862e9c" text-anchor="middle" style="white-space: pre;" direction="ltr" dominant-baseline="text-before-edge">create organization </text></g><g transform="translate(623.586000809343 2206.4196132719953) rotate(0 70.50833129882812 25)"><text x="0" y="0" font-family="Virgil, Segoe UI Emoji" font-size="20px" fill="#862e9c" text-anchor="start" style="white-space: pre;" direction="ltr" dominant-baseline="text-before-edge">if not founded</text><text x="0" y="25" font-family="Virgil, Segoe UI Emoji" font-size="20px" fill="#862e9c" text-anchor="start" style="white-space: pre;" direction="ltr" dominant-baseline="text-before-edge">  driver</text></g><g mask="url(#mask-kgL0OGhtNzFmKstpONKR7)" stroke-linecap="round"><g transform="translate(798.4906798404743 2214.514851367233) rotate(0 682.3181035212114 -1.6250132734670046)"><path d="M0.89 -1.18 C227.94 -1.75, 1135.45 -3.62, 1362.48 -4.06 M-0.1 0.81 C227.3 0.44, 1137.7 -2.3, 1364.74 -2.91" stroke="#862e9c" stroke-width="4" fill="none"></path></g><g transform="translate(798.4906798404743 2214.514851367233) rotate(0 682.3181035212114 -1.6250132734670046)"><path d="M1363.7 -4.62 L1352.97 4.14 L1351.74 -10.9 L1364.02 -1.13" stroke="none" stroke-width="0" fill="#862e9c" fill-rule="evenodd"></path><path d="M1363.26 -3.98 C1359.49 -1.14, 1355.44 2.15, 1350.4 2.74 M1364.92 -3.04 C1361.34 -1.05, 1356.33 0.76, 1351.6 4.07 M1350.19 2.81 C1349.89 -0.38, 1352.23 -4.85, 1350.25 -9.75 M1351.48 2.89 C1350.71 -1.32, 1350.78 -4.9, 1351.74 -9.72 M1351.35 -8.11 C1354.13 -7.86, 1358.58 -5.37, 1363.8 -4.17 M1350.83 -9.9 C1354.12 -7.11, 1358.55 -6.07, 1365.03 -2.27 M1364.74 -2.91 C1364.74 -2.91, 1364.74 -2.91, 1364.74 -2.91 M1364.74 -2.91 C1364.74 -2.91, 1364.74 -2.91, 1364.74 -2.91" stroke="#862e9c" stroke-width="4" fill="none"></path></g></g><mask id="mask-kgL0OGhtNzFmKstpONKR7"><rect x="0" y="0" fill="#fff" width="2261.8240131738066" height="2317.848184700566"></rect><rect x="1415.4073465071406" y="2200.348184700566" fill="#000" width="129.5" height="25" opacity="1"></rect></mask><g transform="translate(1415.4073465071406 2200.3481847005664) rotate(0 65.40143685454507 12.541653393199624)"><text x="64.75" y="0" font-family="Virgil, Segoe UI Emoji" font-size="20px" fill="#862e9c" text-anchor="middle" style="white-space: pre;" direction="ltr" dominant-baseline="text-before-edge">create driver</text></g><g transform="translate(1342.0000000000002 10) rotate(0 79.8499984741211 22.5)"><text x="0" y="0" font-family="Virgil, Segoe UI Emoji" font-size="36px" fill="#5f3dc4" text-anchor="start" style="white-space: pre;" direction="ltr" dominant-baseline="text-before-edge">new wash</text></g></svg>